<svg width="406" height="126" viewBox="0 0 406 126" fill="none" xmlns="http://www.w3.org/2000/svg">
<path d="M54.56 21.24C53.5067 21.24 52.54 21.0533 51.66 20.68C50.78 20.2933 50.0133 19.76 49.36 19.08C48.72 18.3867 48.22 17.5733 47.86 16.64C47.5 15.7067 47.32 14.68 47.32 13.56C47.32 12.44 47.5 11.4133 47.86 10.48C48.22 9.54667 48.72 8.73333 49.36 8.04C50.0133 7.34667 50.78 6.81333 51.66 6.44C52.54 6.05333 53.5067 5.86 54.56 5.86C55.5733 5.86 56.48 6.04 57.28 6.4C58.0933 6.76 58.7733 7.22667 59.32 7.8C59.88 8.36 60.28 8.95333 60.52 9.58L59.02 10.24C58.6467 9.37333 58.0733 8.68 57.3 8.16C56.54 7.62667 55.6267 7.36 54.56 7.36C53.4667 7.36 52.4933 7.62 51.64 8.14C50.7867 8.66 50.12 9.38667 49.64 10.32C49.16 11.24 48.92 12.32 48.92 13.56C48.92 14.7867 49.16 15.8667 49.64 16.8C50.12 17.7333 50.7867 18.46 51.64 18.98C52.4933 19.4867 53.4667 19.74 54.56 19.74C55.6267 19.74 56.54 19.48 57.3 18.96C58.0733 18.44 58.6467 17.7467 59.02 16.88L60.52 17.54C60.28 18.1533 59.88 18.7467 59.32 19.32C58.7733 19.88 58.0933 20.34 57.28 20.7C56.48 21.06 55.5733 21.24 54.56 21.24ZM63.165 21V5.86H64.665V12.36L64.325 12.28C64.5917 11.5867 65.025 11.04 65.625 10.64C66.2383 10.24 66.945 10.04 67.745 10.04C68.505 10.04 69.185 10.2133 69.785 10.56C70.3983 10.9067 70.8783 11.3867 71.225 12C71.585 12.6 71.765 13.28 71.765 14.04V21H70.265V14.62C70.265 13.9667 70.145 13.4133 69.905 12.96C69.665 12.5067 69.3317 12.16 68.905 11.92C68.4917 11.6667 68.0183 11.54 67.485 11.54C66.9517 11.54 66.4717 11.6667 66.045 11.92C65.6183 12.16 65.2783 12.5133 65.025 12.98C64.785 13.4333 64.665 13.98 64.665 14.62V21H63.165ZM79.6498 21.24C78.6365 21.24 77.7165 21 76.8898 20.52C76.0632 20.0267 75.4032 19.36 74.9098 18.52C74.4298 17.6667 74.1898 16.7 74.1898 15.62C74.1898 14.5533 74.4298 13.6 74.9098 12.76C75.3898 11.92 76.0365 11.26 76.8498 10.78C77.6765 10.2867 78.6098 10.04 79.6498 10.04C80.6898 10.04 81.6165 10.28 82.4298 10.76C83.2565 11.24 83.9032 11.9 84.3698 12.74C84.8498 13.58 85.0898 14.54 85.0898 15.62C85.0898 16.7133 84.8432 17.6867 84.3498 18.54C83.8565 19.38 83.1965 20.04 82.3698 20.52C81.5565 21 80.6498 21.24 79.6498 21.24ZM79.6498 19.74C80.3698 19.74 81.0165 19.56 81.5898 19.2C82.1765 18.84 82.6365 18.3467 82.9698 17.72C83.3165 17.0933 83.4898 16.3933 83.4898 15.62C83.4898 14.8467 83.3165 14.1533 82.9698 13.54C82.6365 12.9267 82.1765 12.44 81.5898 12.08C81.0165 11.72 80.3698 11.54 79.6498 11.54C78.9298 11.54 78.2765 11.72 77.6898 12.08C77.1165 12.44 76.6565 12.9267 76.3098 13.54C75.9632 14.1533 75.7898 14.8467 75.7898 15.62C75.7898 16.3933 75.9632 17.0933 76.3098 17.72C76.6565 18.3467 77.1165 18.84 77.6898 19.2C78.2765 19.56 78.9298 19.74 79.6498 19.74ZM92.7553 21.24C91.742 21.24 90.822 21 89.9953 20.52C89.1686 20.0267 88.5086 19.36 88.0153 18.52C87.5353 17.6667 87.2953 16.7 87.2953 15.62C87.2953 14.5533 87.5353 13.6 88.0153 12.76C88.4953 11.92 89.142 11.26 89.9553 10.78C90.782 10.2867 91.7153 10.04 92.7553 10.04C93.7953 10.04 94.722 10.28 95.5353 10.76C96.362 11.24 97.0086 11.9 97.4753 12.74C97.9553 13.58 98.1953 14.54 98.1953 15.62C98.1953 16.7133 97.9486 17.6867 97.4553 18.54C96.962 19.38 96.302 20.04 95.4753 20.52C94.662 21 93.7553 21.24 92.7553 21.24ZM92.7553 19.74C93.4753 19.74 94.122 19.56 94.6953 19.2C95.282 18.84 95.742 18.3467 96.0753 17.72C96.422 17.0933 96.5953 16.3933 96.5953 15.62C96.5953 14.8467 96.422 14.1533 96.0753 13.54C95.742 12.9267 95.282 12.44 94.6953 12.08C94.122 11.72 93.4753 11.54 92.7553 11.54C92.0353 11.54 91.382 11.72 90.7953 12.08C90.222 12.44 89.762 12.9267 89.4153 13.54C89.0686 14.1533 88.8953 14.8467 88.8953 15.62C88.8953 16.3933 89.0686 17.0933 89.4153 17.72C89.762 18.3467 90.222 18.84 90.7953 19.2C91.382 19.56 92.0353 19.74 92.7553 19.74ZM104.561 21.24C103.534 21.24 102.634 20.98 101.861 20.46C101.087 19.94 100.527 19.2333 100.181 18.34L101.441 17.74C101.747 18.3933 102.174 18.9133 102.721 19.3C103.281 19.6867 103.894 19.88 104.561 19.88C105.201 19.88 105.741 19.7267 106.181 19.42C106.621 19.1 106.841 18.6867 106.841 18.18C106.841 17.8067 106.734 17.5133 106.521 17.3C106.307 17.0733 106.061 16.9 105.781 16.78C105.501 16.66 105.254 16.5733 105.041 16.52L103.501 16.08C102.514 15.8 101.801 15.4067 101.361 14.9C100.921 14.3933 100.701 13.8067 100.701 13.14C100.701 12.5133 100.861 11.9667 101.181 11.5C101.501 11.0333 101.934 10.6733 102.481 10.42C103.027 10.1667 103.634 10.04 104.301 10.04C105.207 10.04 106.027 10.28 106.761 10.76C107.507 11.2267 108.034 11.88 108.341 12.72L107.061 13.32C106.794 12.72 106.407 12.2533 105.901 11.92C105.407 11.5733 104.854 11.4 104.241 11.4C103.641 11.4 103.161 11.5533 102.801 11.86C102.441 12.1667 102.261 12.5533 102.261 13.02C102.261 13.38 102.354 13.6667 102.541 13.88C102.727 14.0933 102.941 14.2533 103.181 14.36C103.434 14.4667 103.654 14.5467 103.841 14.6L105.621 15.12C106.487 15.3733 107.161 15.7667 107.641 16.3C108.134 16.8333 108.381 17.46 108.381 18.18C108.381 18.7667 108.214 19.2933 107.881 19.76C107.561 20.2267 107.114 20.5933 106.541 20.86C105.967 21.1133 105.307 21.24 104.561 21.24ZM115.897 21.24C114.897 21.24 113.99 21 113.177 20.52C112.377 20.0267 111.743 19.3533 111.277 18.5C110.81 17.6467 110.577 16.68 110.577 15.6C110.577 14.52 110.803 13.5667 111.257 12.74C111.71 11.9 112.323 11.24 113.097 10.76C113.883 10.28 114.763 10.04 115.737 10.04C116.51 10.04 117.197 10.1867 117.797 10.48C118.41 10.76 118.93 11.1467 119.357 11.64C119.783 12.12 120.11 12.6667 120.337 13.28C120.563 13.88 120.677 14.5 120.677 15.14C120.677 15.2733 120.67 15.4267 120.657 15.6C120.643 15.76 120.623 15.9267 120.597 16.1H111.537V14.7H119.737L119.017 15.3C119.137 14.5667 119.05 13.9133 118.757 13.34C118.477 12.7533 118.07 12.2933 117.537 11.96C117.003 11.6133 116.403 11.44 115.737 11.44C115.07 11.44 114.45 11.6133 113.877 11.96C113.317 12.3067 112.877 12.7933 112.557 13.42C112.237 14.0333 112.11 14.7667 112.177 15.62C112.11 16.4733 112.243 17.22 112.577 17.86C112.923 18.4867 113.39 18.9733 113.977 19.32C114.577 19.6667 115.217 19.84 115.897 19.84C116.683 19.84 117.343 19.6533 117.877 19.28C118.41 18.9067 118.843 18.44 119.177 17.88L120.457 18.56C120.243 19.04 119.917 19.4867 119.477 19.9C119.037 20.3 118.51 20.6267 117.897 20.88C117.297 21.12 116.63 21.24 115.897 21.24ZM126.94 25.4C126.726 25.4 126.506 25.38 126.28 25.34C126.066 25.3133 125.853 25.26 125.64 25.18V23.78C125.773 23.7933 125.94 23.8133 126.14 23.84C126.353 23.88 126.566 23.9 126.78 23.9C127.433 23.9 127.933 23.76 128.28 23.48C128.626 23.2133 128.966 22.6933 129.3 21.92L129.98 20.32L129.94 21.64L125.4 10.28H127.02L130.74 19.66H130.32L134.02 10.28H135.68L130.78 22.36C130.566 22.88 130.293 23.3733 129.96 23.84C129.64 24.3067 129.233 24.68 128.74 24.96C128.246 25.2533 127.646 25.4 126.94 25.4ZM142.267 21.24C141.254 21.24 140.334 21 139.507 20.52C138.68 20.0267 138.02 19.36 137.527 18.52C137.047 17.6667 136.807 16.7 136.807 15.62C136.807 14.5533 137.047 13.6 137.527 12.76C138.007 11.92 138.654 11.26 139.467 10.78C140.294 10.2867 141.227 10.04 142.267 10.04C143.307 10.04 144.234 10.28 145.047 10.76C145.874 11.24 146.52 11.9 146.987 12.74C147.467 13.58 147.707 14.54 147.707 15.62C147.707 16.7133 147.46 17.6867 146.967 18.54C146.474 19.38 145.814 20.04 144.987 20.52C144.174 21 143.267 21.24 142.267 21.24ZM142.267 19.74C142.987 19.74 143.634 19.56 144.207 19.2C144.794 18.84 145.254 18.3467 145.587 17.72C145.934 17.0933 146.107 16.3933 146.107 15.62C146.107 14.8467 145.934 14.1533 145.587 13.54C145.254 12.9267 144.794 12.44 144.207 12.08C143.634 11.72 142.987 11.54 142.267 11.54C141.547 11.54 140.894 11.72 140.307 12.08C139.734 12.44 139.274 12.9267 138.927 13.54C138.58 14.1533 138.407 14.8467 138.407 15.62C138.407 16.3933 138.58 17.0933 138.927 17.72C139.274 18.3467 139.734 18.84 140.307 19.2C140.894 19.56 141.547 19.74 142.267 19.74ZM154.153 21.24C153.406 21.24 152.726 21.0667 152.113 20.72C151.499 20.36 151.013 19.8667 150.653 19.24C150.306 18.6 150.132 17.8667 150.132 17.04V10.28H151.633V16.86C151.633 17.4333 151.746 17.94 151.973 18.38C152.213 18.8067 152.539 19.14 152.953 19.38C153.379 19.62 153.866 19.74 154.413 19.74C154.959 19.74 155.446 19.62 155.873 19.38C156.299 19.1267 156.633 18.7733 156.873 18.32C157.113 17.8533 157.233 17.3 157.233 16.66V10.28H158.733V21H157.233V18.92L157.573 19C157.319 19.6933 156.886 20.24 156.273 20.64C155.659 21.04 154.953 21.24 154.153 21.24ZM161.817 21V10.28H163.317V12.04L163.117 11.78C163.371 11.2733 163.751 10.8733 164.257 10.58C164.777 10.2867 165.404 10.14 166.137 10.14H166.817V11.64H165.877C165.104 11.64 164.484 11.88 164.017 12.36C163.551 12.84 163.317 13.52 163.317 14.4V21H161.817ZM178.994 21.24C177.94 21.24 176.974 21.0533 176.094 20.68C175.214 20.2933 174.447 19.76 173.794 19.08C173.154 18.3867 172.654 17.5733 172.294 16.64C171.934 15.7067 171.754 14.68 171.754 13.56C171.754 12.44 171.934 11.4133 172.294 10.48C172.654 9.54667 173.154 8.73333 173.794 8.04C174.447 7.34667 175.214 6.81333 176.094 6.44C176.974 6.05333 177.94 5.86 178.994 5.86C180.007 5.86 180.914 6.04 181.714 6.4C182.527 6.76 183.207 7.22667 183.754 7.8C184.314 8.36 184.714 8.95333 184.954 9.58L183.454 10.24C183.08 9.37333 182.507 8.68 181.734 8.16C180.974 7.62667 180.06 7.36 178.994 7.36C177.9 7.36 176.927 7.62 176.074 8.14C175.22 8.66 174.554 9.38667 174.074 10.32C173.594 11.24 173.354 12.32 173.354 13.56C173.354 14.7867 173.594 15.8667 174.074 16.8C174.554 17.7333 175.22 18.46 176.074 18.98C176.927 19.4867 177.9 19.74 178.994 19.74C180.06 19.74 180.974 19.48 181.734 18.96C182.507 18.44 183.08 17.7467 183.454 16.88L184.954 17.54C184.714 18.1533 184.314 18.7467 183.754 19.32C183.207 19.88 182.527 20.34 181.714 20.7C180.914 21.06 180.007 21.24 178.994 21.24ZM187.599 21V5.86H189.099V21H187.599ZM197.189 21.24C196.176 21.24 195.256 21 194.429 20.52C193.602 20.0267 192.942 19.36 192.449 18.52C191.969 17.6667 191.729 16.7 191.729 15.62C191.729 14.5533 191.969 13.6 192.449 12.76C192.929 11.92 193.576 11.26 194.389 10.78C195.216 10.2867 196.149 10.04 197.189 10.04C198.229 10.04 199.156 10.28 199.969 10.76C200.796 11.24 201.442 11.9 201.909 12.74C202.389 13.58 202.629 14.54 202.629 15.62C202.629 16.7133 202.382 17.6867 201.889 18.54C201.396 19.38 200.736 20.04 199.909 20.52C199.096 21 198.189 21.24 197.189 21.24ZM197.189 19.74C197.909 19.74 198.556 19.56 199.129 19.2C199.716 18.84 200.176 18.3467 200.509 17.72C200.856 17.0933 201.029 16.3933 201.029 15.62C201.029 14.8467 200.856 14.1533 200.509 13.54C200.176 12.9267 199.716 12.44 199.129 12.08C198.556 11.72 197.909 11.54 197.189 11.54C196.469 11.54 195.816 11.72 195.229 12.08C194.656 12.44 194.196 12.9267 193.849 13.54C193.502 14.1533 193.329 14.8467 193.329 15.62C193.329 16.3933 193.502 17.0933 193.849 17.72C194.196 18.3467 194.656 18.84 195.229 19.2C195.816 19.56 196.469 19.74 197.189 19.74ZM209.074 21.24C208.328 21.24 207.648 21.0667 207.034 20.72C206.421 20.36 205.934 19.8667 205.574 19.24C205.228 18.6 205.054 17.8667 205.054 17.04V10.28H206.554V16.86C206.554 17.4333 206.668 17.94 206.894 18.38C207.134 18.8067 207.461 19.14 207.874 19.38C208.301 19.62 208.788 19.74 209.334 19.74C209.881 19.74 210.368 19.62 210.794 19.38C211.221 19.1267 211.554 18.7733 211.794 18.32C212.034 17.8533 212.154 17.3 212.154 16.66V10.28H213.654V21H212.154V18.92L212.494 19C212.241 19.6933 211.808 20.24 211.194 20.64C210.581 21.04 209.874 21.24 209.074 21.24ZM221.579 21.24C220.579 21.24 219.679 21 218.879 20.52C218.079 20.0267 217.446 19.36 216.979 18.52C216.526 17.6667 216.299 16.7067 216.299 15.64C216.299 14.56 216.526 13.6 216.979 12.76C217.446 11.92 218.073 11.26 218.859 10.78C219.659 10.2867 220.566 10.04 221.579 10.04C222.499 10.04 223.319 10.24 224.039 10.64C224.759 11.04 225.326 11.58 225.739 12.26L225.499 12.68V5.86H226.999V21H225.499V18.6L225.739 18.82C225.366 19.5933 224.806 20.1933 224.059 20.62C223.326 21.0333 222.499 21.24 221.579 21.24ZM221.659 19.74C222.379 19.74 223.026 19.56 223.599 19.2C224.186 18.84 224.646 18.3533 224.979 17.74C225.326 17.1133 225.499 16.4133 225.499 15.64C225.499 14.8667 225.326 14.1733 224.979 13.56C224.646 12.9333 224.186 12.44 223.599 12.08C223.026 11.72 222.379 11.54 221.659 11.54C220.953 11.54 220.313 11.72 219.739 12.08C219.166 12.44 218.713 12.9267 218.379 13.54C218.059 14.1533 217.899 14.8533 217.899 15.64C217.899 16.4133 218.059 17.1133 218.379 17.74C218.713 18.3533 219.159 18.84 219.719 19.2C220.293 19.56 220.939 19.74 221.659 19.74ZM238.718 21.24C237.771 21.24 236.911 21.06 236.138 20.7C235.364 20.34 234.711 19.86 234.178 19.26C233.644 18.6467 233.264 17.9733 233.038 17.24L234.478 16.7C234.824 17.7133 235.364 18.4867 236.098 19.02C236.831 19.54 237.704 19.8 238.718 19.8C239.358 19.8 239.918 19.7 240.398 19.5C240.891 19.2867 241.271 18.9933 241.538 18.62C241.804 18.2467 241.938 17.8133 241.938 17.32C241.938 16.5867 241.738 16.02 241.338 15.62C240.938 15.22 240.364 14.9133 239.618 14.7L236.938 13.9C235.884 13.5933 235.071 13.08 234.498 12.36C233.938 11.64 233.658 10.82 233.658 9.9C233.658 9.11333 233.851 8.42 234.238 7.82C234.624 7.20667 235.151 6.72667 235.818 6.38C236.498 6.03333 237.264 5.86 238.118 5.86C239.011 5.86 239.811 6.02667 240.518 6.36C241.238 6.68 241.844 7.10667 242.338 7.64C242.831 8.17333 243.184 8.76667 243.398 9.42L241.998 9.98C241.678 9.1 241.178 8.43333 240.498 7.98C239.831 7.52667 239.044 7.3 238.138 7.3C237.564 7.3 237.058 7.4 236.618 7.6C236.191 7.8 235.858 8.08667 235.618 8.46C235.378 8.83333 235.258 9.27333 235.258 9.78C235.258 10.3933 235.451 10.9467 235.838 11.44C236.224 11.92 236.818 12.28 237.618 12.52L239.978 13.22C241.151 13.5667 242.038 14.0667 242.638 14.72C243.238 15.3733 243.538 16.1933 243.538 17.18C243.538 17.98 243.331 18.6867 242.918 19.3C242.518 19.9 241.951 20.3733 241.218 20.72C240.498 21.0667 239.664 21.24 238.718 21.24ZM250.507 21.12C249.547 21.12 248.807 20.84 248.287 20.28C247.767 19.72 247.507 18.92 247.507 17.88V11.78H245.527V10.28H246.027C246.481 10.28 246.841 10.1333 247.107 9.84C247.374 9.53333 247.507 9.15333 247.507 8.7V7.8H249.007V10.28H251.367V11.78H249.007V17.88C249.007 18.24 249.061 18.56 249.167 18.84C249.274 19.1067 249.454 19.32 249.707 19.48C249.974 19.64 250.327 19.72 250.767 19.72C250.874 19.72 251.001 19.7133 251.147 19.7C251.294 19.6867 251.421 19.6733 251.527 19.66V21C251.367 21.04 251.187 21.0667 250.987 21.08C250.787 21.1067 250.627 21.12 250.507 21.12ZM258.79 21.24C257.777 21.24 256.857 21 256.03 20.52C255.204 20.0267 254.544 19.36 254.05 18.52C253.57 17.6667 253.33 16.7 253.33 15.62C253.33 14.5533 253.57 13.6 254.05 12.76C254.53 11.92 255.177 11.26 255.99 10.78C256.817 10.2867 257.75 10.04 258.79 10.04C259.83 10.04 260.757 10.28 261.57 10.76C262.397 11.24 263.044 11.9 263.51 12.74C263.99 13.58 264.23 14.54 264.23 15.62C264.23 16.7133 263.984 17.6867 263.49 18.54C262.997 19.38 262.337 20.04 261.51 20.52C260.697 21 259.79 21.24 258.79 21.24ZM258.79 19.74C259.51 19.74 260.157 19.56 260.73 19.2C261.317 18.84 261.777 18.3467 262.11 17.72C262.457 17.0933 262.63 16.3933 262.63 15.62C262.63 14.8467 262.457 14.1533 262.11 13.54C261.777 12.9267 261.317 12.44 260.73 12.08C260.157 11.72 259.51 11.54 258.79 11.54C258.07 11.54 257.417 11.72 256.83 12.08C256.257 12.44 255.797 12.9267 255.45 13.54C255.104 14.1533 254.93 14.8467 254.93 15.62C254.93 16.3933 255.104 17.0933 255.45 17.72C255.797 18.3467 256.257 18.84 256.83 19.2C257.417 19.56 258.07 19.74 258.79 19.74ZM266.876 21V10.28H268.376V12.04L268.176 11.78C268.429 11.2733 268.809 10.8733 269.316 10.58C269.836 10.2867 270.463 10.14 271.196 10.14H271.876V11.64H270.936C270.163 11.64 269.543 11.88 269.076 12.36C268.609 12.84 268.376 13.52 268.376 14.4V21H266.876ZM276.734 21.24C276.054 21.24 275.447 21.1133 274.914 20.86C274.38 20.5933 273.96 20.2333 273.654 19.78C273.347 19.3267 273.194 18.8067 273.194 18.22C273.194 17.66 273.314 17.1533 273.554 16.7C273.794 16.2333 274.167 15.84 274.674 15.52C275.18 15.2 275.827 14.9733 276.614 14.84L280.814 14.14V15.5L276.974 16.14C276.2 16.2733 275.64 16.52 275.294 16.88C274.96 17.24 274.794 17.6667 274.794 18.16C274.794 18.64 274.98 19.0467 275.354 19.38C275.74 19.7133 276.234 19.88 276.834 19.88C277.567 19.88 278.207 19.7267 278.754 19.42C279.3 19.1 279.727 18.6733 280.034 18.14C280.34 17.6067 280.494 17.0133 280.494 16.36V13.64C280.494 13 280.26 12.48 279.794 12.08C279.327 11.68 278.72 11.48 277.974 11.48C277.32 11.48 276.747 11.6467 276.254 11.98C275.76 12.3 275.394 12.72 275.154 13.24L273.794 12.5C273.994 12.0467 274.307 11.6333 274.734 11.26C275.174 10.8867 275.674 10.5933 276.234 10.38C276.794 10.1533 277.374 10.04 277.974 10.04C278.76 10.04 279.454 10.1933 280.054 10.5C280.667 10.8067 281.14 11.2333 281.474 11.78C281.82 12.3133 281.994 12.9333 281.994 13.64V21H280.494V18.86L280.714 19.08C280.527 19.48 280.234 19.8467 279.834 20.18C279.447 20.5 278.987 20.76 278.454 20.96C277.934 21.1467 277.36 21.24 276.734 21.24ZM290.159 25.4C289.426 25.4 288.746 25.2867 288.119 25.06C287.506 24.8333 286.972 24.52 286.519 24.12C286.079 23.7333 285.739 23.28 285.499 22.76L286.879 22.02C287.092 22.5267 287.472 22.9667 288.019 23.34C288.566 23.7133 289.266 23.9 290.119 23.9C290.772 23.9 291.372 23.7733 291.919 23.52C292.466 23.2667 292.906 22.8933 293.239 22.4C293.572 21.9067 293.739 21.3 293.739 20.58V18.2L293.979 18.42C293.606 19.1933 293.052 19.7933 292.319 20.22C291.586 20.6333 290.786 20.84 289.919 20.84C288.919 20.84 288.019 20.6 287.219 20.12C286.419 19.64 285.786 18.9933 285.319 18.18C284.866 17.3533 284.639 16.44 284.639 15.44C284.639 14.4267 284.866 13.5133 285.319 12.7C285.786 11.8867 286.412 11.24 287.199 10.76C287.999 10.28 288.906 10.04 289.919 10.04C290.786 10.04 291.572 10.24 292.279 10.64C292.999 11.04 293.566 11.58 293.979 12.26L293.739 12.68V10.28H295.239V20.58C295.239 21.5 295.019 22.32 294.579 23.04C294.152 23.7733 293.552 24.3467 292.779 24.76C292.019 25.1867 291.146 25.4 290.159 25.4ZM289.999 19.34C290.692 19.34 291.319 19.1667 291.879 18.82C292.439 18.46 292.886 17.9867 293.219 17.4C293.566 16.8 293.739 16.1467 293.739 15.44C293.739 14.7333 293.566 14.0867 293.219 13.5C292.886 12.9 292.439 12.4267 291.879 12.08C291.319 11.72 290.692 11.54 289.999 11.54C289.292 11.54 288.652 11.72 288.079 12.08C287.506 12.4267 287.052 12.8933 286.719 13.48C286.399 14.0667 286.239 14.72 286.239 15.44C286.239 16.1467 286.399 16.8 286.719 17.4C287.052 17.9867 287.499 18.46 288.059 18.82C288.632 19.1667 289.279 19.34 289.999 19.34ZM303.201 21.24C302.201 21.24 301.295 21 300.481 20.52C299.681 20.0267 299.048 19.3533 298.581 18.5C298.115 17.6467 297.881 16.68 297.881 15.6C297.881 14.52 298.108 13.5667 298.561 12.74C299.015 11.9 299.628 11.24 300.401 10.76C301.188 10.28 302.068 10.04 303.041 10.04C303.815 10.04 304.501 10.1867 305.101 10.48C305.715 10.76 306.235 11.1467 306.661 11.64C307.088 12.12 307.415 12.6667 307.641 13.28C307.868 13.88 307.981 14.5 307.981 15.14C307.981 15.2733 307.975 15.4267 307.961 15.6C307.948 15.76 307.928 15.9267 307.901 16.1H298.841V14.7H307.041L306.321 15.3C306.441 14.5667 306.355 13.9133 306.061 13.34C305.781 12.7533 305.375 12.2933 304.841 11.96C304.308 11.6133 303.708 11.44 303.041 11.44C302.375 11.44 301.755 11.6133 301.181 11.96C300.621 12.3067 300.181 12.7933 299.861 13.42C299.541 14.0333 299.415 14.7667 299.481 15.62C299.415 16.4733 299.548 17.22 299.881 17.86C300.228 18.4867 300.695 18.9733 301.281 19.32C301.881 19.6667 302.521 19.84 303.201 19.84C303.988 19.84 304.648 19.6533 305.181 19.28C305.715 18.9067 306.148 18.44 306.481 17.88L307.761 18.56C307.548 19.04 307.221 19.4867 306.781 19.9C306.341 20.3 305.815 20.6267 305.201 20.88C304.601 21.12 303.935 21.24 303.201 21.24Z" fill="black"/>
<g filter="url(#filter0_d_2214_745)">
<rect x="1" y="50" width="346" height="71" rx="35.5" fill="white" shape-rendering="crispEdges"/>
<rect x="1" y="50" width="346" height="71" rx="35.5" stroke="#38B6FF" stroke-width="2" shape-rendering="crispEdges"/>
<path d="M44.902 93.216C43.966 93.216 43.09 93.048 42.274 92.712C41.47 92.364 40.762 91.884 40.15 91.272C39.538 90.648 39.058 89.916 38.71 89.076C38.362 88.224 38.188 87.294 38.188 86.286C38.188 85.278 38.362 84.354 38.71 83.514C39.058 82.662 39.538 81.93 40.15 81.318C40.762 80.694 41.47 80.214 42.274 79.878C43.09 79.542 43.966 79.374 44.902 79.374C45.838 79.374 46.708 79.548 47.512 79.896C48.328 80.232 49.042 80.712 49.654 81.336C50.266 81.948 50.746 82.674 51.094 83.514C51.442 84.354 51.616 85.278 51.616 86.286C51.616 87.294 51.442 88.224 51.094 89.076C50.746 89.916 50.266 90.648 49.654 91.272C49.042 91.884 48.328 92.364 47.512 92.712C46.708 93.048 45.838 93.216 44.902 93.216ZM44.902 91.866C45.682 91.866 46.39 91.722 47.026 91.434C47.674 91.146 48.232 90.744 48.7 90.228C49.168 89.712 49.528 89.118 49.78 88.446C50.044 87.774 50.176 87.054 50.176 86.286C50.176 85.53 50.044 84.816 49.78 84.144C49.528 83.472 49.168 82.878 48.7 82.362C48.232 81.846 47.674 81.444 47.026 81.156C46.39 80.868 45.682 80.724 44.902 80.724C44.122 80.724 43.408 80.868 42.76 81.156C42.124 81.444 41.572 81.846 41.104 82.362C40.636 82.878 40.27 83.472 40.006 84.144C39.754 84.816 39.628 85.53 39.628 86.286C39.628 87.054 39.754 87.774 40.006 88.446C40.27 89.118 40.636 89.712 41.104 90.228C41.572 90.744 42.13 91.146 42.778 91.434C43.426 91.722 44.134 91.866 44.902 91.866ZM54.1887 93V83.352H55.5387V85.224L55.2327 85.152C55.4727 84.528 55.8627 84.036 56.4027 83.676C56.9547 83.316 57.5907 83.136 58.3107 83.136C58.9947 83.136 59.6067 83.292 60.1467 83.604C60.6987 83.916 61.1307 84.348 61.4427 84.9C61.7667 85.44 61.9287 86.052 61.9287 86.736V93H60.5787V87.258C60.5787 86.67 60.4707 86.172 60.2547 85.764C60.0507 85.356 59.7567 85.044 59.3727 84.828C59.0007 84.6 58.5687 84.486 58.0767 84.486C57.5847 84.486 57.1467 84.6 56.7627 84.828C56.3787 85.044 56.0787 85.362 55.8627 85.782C55.6467 86.19 55.5387 86.682 55.5387 87.258V93H54.1887ZM69.4377 93V80.85H66.9177V79.59H70.8777V93H69.4377ZM79.824 93V80.94H76.116V79.59H84.936V80.94H81.264V93H79.824ZM86.7129 93V79.59H92.3469C93.1029 79.59 93.7569 79.734 94.3089 80.022C94.8729 80.298 95.3049 80.688 95.6049 81.192C95.9169 81.696 96.0729 82.284 96.0729 82.956C96.0729 83.652 95.8989 84.27 95.5509 84.81C95.2149 85.338 94.7289 85.74 94.0929 86.016L94.0749 85.584C94.6029 85.776 95.0529 86.046 95.4249 86.394C95.8089 86.742 96.1029 87.15 96.3069 87.618C96.5109 88.074 96.6129 88.566 96.6129 89.094C96.6129 90.294 96.2289 91.248 95.4609 91.956C94.7049 92.652 93.6729 93 92.3649 93H86.7129ZM88.1529 91.65H92.3649C93.2169 91.65 93.8949 91.428 94.3989 90.984C94.9149 90.528 95.1729 89.904 95.1729 89.112C95.1729 88.332 94.9149 87.714 94.3989 87.258C93.8949 86.79 93.2169 86.556 92.3649 86.556H88.1529V91.65ZM88.1529 85.26H92.2389C92.9589 85.26 93.5349 85.05 93.9669 84.63C94.4109 84.21 94.6329 83.67 94.6329 83.01C94.6329 82.338 94.4109 81.828 93.9669 81.48C93.5349 81.12 92.9589 80.94 92.2389 80.94H88.1529V85.26Z" fill="black" fill-opacity="0.48"/>
<rect x="134" y="62" width="201" height="47" rx="23.5" fill="#2684FF"/>
<path d="M159.386 93V79.59H161.366L166.406 86.574H165.416L170.366 79.59H172.346V93H170.24V82.092L171.032 82.308L165.974 89.22H165.758L160.808 82.308L161.51 82.092V93H159.386ZM179.618 93.216C178.682 93.216 177.824 92.994 177.044 92.55C176.276 92.106 175.664 91.5 175.208 90.732C174.752 89.964 174.524 89.094 174.524 88.122C174.524 87.138 174.752 86.268 175.208 85.512C175.664 84.744 176.276 84.144 177.044 83.712C177.812 83.268 178.67 83.046 179.618 83.046C180.578 83.046 181.436 83.268 182.192 83.712C182.96 84.144 183.566 84.744 184.01 85.512C184.466 86.268 184.694 87.138 184.694 88.122C184.694 89.106 184.466 89.982 184.01 90.75C183.554 91.518 182.942 92.124 182.174 92.568C181.406 93 180.554 93.216 179.618 93.216ZM179.618 91.326C180.194 91.326 180.704 91.188 181.148 90.912C181.592 90.636 181.94 90.258 182.192 89.778C182.456 89.286 182.588 88.734 182.588 88.122C182.588 87.51 182.456 86.964 182.192 86.484C181.94 86.004 181.592 85.626 181.148 85.35C180.704 85.074 180.194 84.936 179.618 84.936C179.054 84.936 178.544 85.074 178.088 85.35C177.644 85.626 177.29 86.004 177.026 86.484C176.774 86.964 176.648 87.51 176.648 88.122C176.648 88.734 176.774 89.286 177.026 89.778C177.29 90.258 177.644 90.636 178.088 90.912C178.544 91.188 179.054 91.326 179.618 91.326ZM186.68 93V83.262H188.624V85.224L188.444 84.936C188.66 84.3 189.008 83.844 189.488 83.568C189.968 83.28 190.544 83.136 191.216 83.136H191.81V84.99H190.964C190.292 84.99 189.746 85.2 189.326 85.62C188.918 86.028 188.714 86.616 188.714 87.384V93H186.68ZM197.774 93.216C196.802 93.216 195.938 92.994 195.182 92.55C194.438 92.094 193.856 91.482 193.436 90.714C193.016 89.934 192.806 89.064 192.806 88.104C192.806 87.12 193.016 86.25 193.436 85.494C193.868 84.738 194.444 84.144 195.164 83.712C195.884 83.268 196.7 83.046 197.612 83.046C198.344 83.046 198.998 83.172 199.574 83.424C200.15 83.676 200.636 84.024 201.032 84.468C201.428 84.9 201.728 85.398 201.932 85.962C202.148 86.526 202.256 87.126 202.256 87.762C202.256 87.918 202.25 88.08 202.238 88.248C202.226 88.416 202.202 88.572 202.166 88.716H194.408V87.096H201.014L200.042 87.834C200.162 87.246 200.12 86.724 199.916 86.268C199.724 85.8 199.424 85.434 199.016 85.17C198.62 84.894 198.152 84.756 197.612 84.756C197.072 84.756 196.592 84.894 196.172 85.17C195.752 85.434 195.428 85.818 195.2 86.322C194.972 86.814 194.882 87.414 194.93 88.122C194.87 88.782 194.96 89.358 195.2 89.85C195.452 90.342 195.8 90.726 196.244 91.002C196.7 91.278 197.216 91.416 197.792 91.416C198.38 91.416 198.878 91.284 199.286 91.02C199.706 90.756 200.036 90.414 200.276 89.994L201.932 90.804C201.74 91.26 201.44 91.674 201.032 92.046C200.636 92.406 200.156 92.694 199.592 92.91C199.04 93.114 198.434 93.216 197.774 93.216ZM211.599 93.108C210.579 93.108 209.787 92.82 209.223 92.244C208.659 91.668 208.377 90.858 208.377 89.814V85.098H206.667V83.262H206.937C207.393 83.262 207.747 83.13 207.999 82.866C208.251 82.602 208.377 82.242 208.377 81.786V81.03H210.411V83.262H212.625V85.098H210.411V89.724C210.411 90.06 210.465 90.348 210.573 90.588C210.681 90.816 210.855 90.996 211.095 91.128C211.335 91.248 211.647 91.308 212.031 91.308C212.127 91.308 212.235 91.302 212.355 91.29C212.475 91.278 212.589 91.266 212.697 91.254V93C212.529 93.024 212.343 93.048 212.139 93.072C211.935 93.096 211.755 93.108 211.599 93.108ZM214.682 93V79.374H216.716V85.17L216.392 84.918C216.632 84.306 217.016 83.844 217.544 83.532C218.072 83.208 218.684 83.046 219.38 83.046C220.1 83.046 220.736 83.202 221.288 83.514C221.84 83.826 222.272 84.258 222.584 84.81C222.896 85.362 223.052 85.992 223.052 86.7V93H221.036V87.258C221.036 86.766 220.94 86.352 220.748 86.016C220.568 85.668 220.316 85.404 219.992 85.224C219.668 85.032 219.296 84.936 218.876 84.936C218.468 84.936 218.096 85.032 217.76 85.224C217.436 85.404 217.178 85.668 216.986 86.016C216.806 86.364 216.716 86.778 216.716 87.258V93H214.682ZM228.145 93.216C227.485 93.216 226.903 93.102 226.399 92.874C225.907 92.634 225.523 92.31 225.247 91.902C224.971 91.482 224.833 90.99 224.833 90.426C224.833 89.898 224.947 89.424 225.175 89.004C225.415 88.584 225.781 88.23 226.273 87.942C226.765 87.654 227.383 87.45 228.127 87.33L231.511 86.772V88.374L228.523 88.896C227.983 88.992 227.587 89.166 227.335 89.418C227.083 89.658 226.957 89.97 226.957 90.354C226.957 90.726 227.095 91.032 227.371 91.272C227.659 91.5 228.025 91.614 228.469 91.614C229.021 91.614 229.501 91.494 229.909 91.254C230.329 91.014 230.653 90.696 230.881 90.3C231.109 89.892 231.223 89.442 231.223 88.95V86.448C231.223 85.968 231.043 85.578 230.683 85.278C230.335 84.966 229.867 84.81 229.279 84.81C228.739 84.81 228.265 84.954 227.857 85.242C227.461 85.518 227.167 85.878 226.975 86.322L225.283 85.476C225.463 84.996 225.757 84.576 226.165 84.216C226.573 83.844 227.047 83.556 227.587 83.352C228.139 83.148 228.721 83.046 229.333 83.046C230.101 83.046 230.779 83.19 231.367 83.478C231.967 83.766 232.429 84.168 232.753 84.684C233.089 85.188 233.257 85.776 233.257 86.448V93H231.313V91.236L231.727 91.29C231.499 91.686 231.205 92.028 230.845 92.316C230.497 92.604 230.095 92.826 229.639 92.982C229.195 93.138 228.697 93.216 228.145 93.216ZM235.635 93V83.262H237.579V85.17L237.345 84.918C237.585 84.306 237.969 83.844 238.497 83.532C239.025 83.208 239.637 83.046 240.333 83.046C241.053 83.046 241.689 83.202 242.241 83.514C242.793 83.826 243.225 84.258 243.537 84.81C243.849 85.362 244.005 85.998 244.005 86.718V93H241.989V87.258C241.989 86.766 241.899 86.352 241.719 86.016C241.539 85.668 241.281 85.404 240.945 85.224C240.621 85.032 240.249 84.936 239.829 84.936C239.409 84.936 239.031 85.032 238.695 85.224C238.371 85.404 238.119 85.668 237.939 86.016C237.759 86.364 237.669 86.778 237.669 87.258V93H235.635ZM256.043 93.216C255.071 93.216 254.165 93.042 253.325 92.694C252.497 92.346 251.765 91.86 251.129 91.236C250.505 90.612 250.013 89.88 249.653 89.04C249.305 88.2 249.131 87.282 249.131 86.286C249.131 85.29 249.305 84.372 249.653 83.532C250.013 82.68 250.505 81.948 251.129 81.336C251.753 80.712 252.485 80.232 253.325 79.896C254.165 79.548 255.071 79.374 256.043 79.374C257.027 79.374 257.933 79.548 258.761 79.896C259.601 80.232 260.333 80.712 260.957 81.336C261.593 81.96 262.085 82.692 262.433 83.532C262.781 84.372 262.955 85.29 262.955 86.286C262.955 87.282 262.775 88.2 262.415 89.04C262.067 89.88 261.581 90.612 260.957 91.236C260.333 91.86 259.601 92.346 258.761 92.694C257.921 93.042 257.015 93.216 256.043 93.216ZM256.043 91.272C256.739 91.272 257.375 91.146 257.951 90.894C258.539 90.642 259.049 90.294 259.481 89.85C259.913 89.394 260.249 88.866 260.489 88.266C260.729 87.654 260.849 86.994 260.849 86.286C260.849 85.578 260.729 84.924 260.489 84.324C260.249 83.724 259.913 83.196 259.481 82.74C259.049 82.284 258.539 81.93 257.951 81.678C257.375 81.426 256.739 81.3 256.043 81.3C255.347 81.3 254.705 81.426 254.117 81.678C253.541 81.93 253.037 82.284 252.605 82.74C252.173 83.196 251.837 83.724 251.597 84.324C251.369 84.924 251.255 85.578 251.255 86.286C251.255 86.994 251.369 87.654 251.597 88.266C251.837 88.866 252.173 89.394 252.605 89.85C253.037 90.294 253.547 90.642 254.135 90.894C254.723 91.146 255.359 91.272 256.043 91.272ZM265.131 93V83.262H267.075V85.17L266.841 84.918C267.081 84.306 267.465 83.844 267.993 83.532C268.521 83.208 269.133 83.046 269.829 83.046C270.549 83.046 271.185 83.202 271.737 83.514C272.289 83.826 272.721 84.258 273.033 84.81C273.345 85.362 273.501 85.998 273.501 86.718V93H271.485V87.258C271.485 86.766 271.395 86.352 271.215 86.016C271.035 85.668 270.777 85.404 270.441 85.224C270.117 85.032 269.745 84.936 269.325 84.936C268.905 84.936 268.527 85.032 268.191 85.224C267.867 85.404 267.615 85.668 267.435 86.016C267.255 86.364 267.165 86.778 267.165 87.258V93H265.131ZM280.25 93.216C279.278 93.216 278.414 92.994 277.658 92.55C276.914 92.094 276.332 91.482 275.912 90.714C275.492 89.934 275.282 89.064 275.282 88.104C275.282 87.12 275.492 86.25 275.912 85.494C276.344 84.738 276.92 84.144 277.64 83.712C278.36 83.268 279.176 83.046 280.088 83.046C280.82 83.046 281.474 83.172 282.05 83.424C282.626 83.676 283.112 84.024 283.508 84.468C283.904 84.9 284.204 85.398 284.408 85.962C284.624 86.526 284.732 87.126 284.732 87.762C284.732 87.918 284.726 88.08 284.714 88.248C284.702 88.416 284.678 88.572 284.642 88.716H276.884V87.096H283.49L282.518 87.834C282.638 87.246 282.596 86.724 282.392 86.268C282.2 85.8 281.9 85.434 281.492 85.17C281.096 84.894 280.628 84.756 280.088 84.756C279.548 84.756 279.068 84.894 278.648 85.17C278.228 85.434 277.904 85.818 277.676 86.322C277.448 86.814 277.358 87.414 277.406 88.122C277.346 88.782 277.436 89.358 277.676 89.85C277.928 90.342 278.276 90.726 278.72 91.002C279.176 91.278 279.692 91.416 280.268 91.416C280.856 91.416 281.354 91.284 281.762 91.02C282.182 90.756 282.512 90.414 282.752 89.994L284.408 90.804C284.216 91.26 283.916 91.674 283.508 92.046C283.112 92.406 282.632 92.694 282.068 92.91C281.516 93.114 280.91 93.216 280.25 93.216ZM292.438 93V81.48H288.874V79.59H298.054V81.48H294.544V93H292.438ZM299.642 93V79.59H305.294C306.134 79.59 306.86 79.74 307.472 80.04C308.084 80.328 308.552 80.748 308.876 81.3C309.2 81.84 309.362 82.482 309.362 83.226C309.362 83.874 309.194 84.468 308.858 85.008C308.534 85.536 308.024 85.956 307.328 86.268V85.368C307.94 85.608 308.438 85.914 308.822 86.286C309.206 86.646 309.482 87.054 309.65 87.51C309.83 87.966 309.92 88.446 309.92 88.95C309.92 90.21 309.506 91.2 308.678 91.92C307.862 92.64 306.74 93 305.312 93H299.642ZM301.766 91.11H305.474C306.182 91.11 306.746 90.918 307.166 90.534C307.586 90.138 307.796 89.616 307.796 88.968C307.796 88.308 307.586 87.786 307.166 87.402C306.746 87.006 306.182 86.808 305.474 86.808H301.766V91.11ZM301.766 84.936H305.348C305.924 84.936 306.386 84.774 306.734 84.45C307.082 84.114 307.256 83.676 307.256 83.136C307.256 82.596 307.082 82.176 306.734 81.876C306.386 81.576 305.924 81.426 305.348 81.426H301.766V84.936Z" fill="white"/>
</g>
<rect x="260.429" y="19" width="154" height="31" rx="15.5" transform="rotate(19.6587 260.429 19)" fill="#FFEAE5"/>
<path d="M279.583 49.0596C279.521 49.0887 279.41 49.0616 279.249 48.9785C279.083 48.9066 278.976 48.7791 278.927 48.5958C278.904 48.4094 278.923 48.2124 278.985 48.005C279.046 47.7975 279.147 47.515 279.287 47.1574C279.497 46.7861 279.795 46.3067 280.184 45.7191C280.572 45.1314 281.003 44.4764 281.478 43.754C281.968 43.0243 282.464 42.2777 282.966 41.5141C283.209 41.155 283.408 40.8499 283.561 40.5988C283.726 40.3518 283.844 40.1646 283.915 40.037C284.001 39.9022 284.044 39.8348 284.044 39.8348C284.025 39.8534 284 39.87 283.969 39.8845C283.95 39.903 283.93 39.9216 283.911 39.9402C283.892 39.9587 283.872 39.9773 283.853 39.9959C283.853 39.9959 283.816 40.0273 283.743 40.0903C283.68 40.1573 283.553 40.2646 283.36 40.4123C283.221 40.5157 283.08 40.6436 282.936 40.7961C282.792 40.9487 282.572 41.1376 282.275 41.3627C281.973 41.6372 281.63 41.9544 281.247 42.3143C280.863 42.6743 280.546 42.956 280.295 43.1594C280.172 43.2555 280.06 43.3366 279.96 43.4028C279.871 43.473 279.805 43.5323 279.762 43.5807C279.673 43.6889 279.545 43.8152 279.379 43.9597C279.212 44.1042 279.031 44.2369 278.835 44.358C278.731 44.4355 278.598 44.5218 278.436 44.6171C278.286 44.7163 278.151 44.8084 278.032 44.8931C277.917 44.9666 277.859 45.0033 277.859 45.0033C277.812 45.063 277.7 45.1441 277.523 45.2466C277.347 45.3491 277.136 45.4585 276.89 45.5747C276.66 45.6836 276.428 45.7793 276.195 45.8616C275.687 46.0367 275.288 46.1174 275 46.1037C274.723 46.094 274.469 45.895 274.239 45.5067C274.156 45.2734 274.102 45.0502 274.076 44.8371C274.055 44.6127 274.102 44.3366 274.219 44.0089C274.336 43.6812 274.556 43.2437 274.879 42.6964C275.092 42.3518 275.318 41.9865 275.557 41.6007C275.808 41.2189 276.053 40.8541 276.292 40.5062C276.535 40.147 276.747 39.8403 276.927 39.586C277.122 39.3245 277.257 39.1433 277.331 39.0424C277.466 38.772 277.524 38.6271 277.506 38.6077C277.491 38.5771 277.413 38.619 277.27 38.7336C277.146 38.8297 276.906 39.0371 276.55 39.3559C276.194 39.6748 275.786 40.0513 275.325 40.4855C274.875 40.9238 274.431 41.3641 273.993 41.8064C273.223 42.4997 272.577 43.078 272.054 43.5413C271.532 44.0046 271.107 44.3751 270.778 44.6528C270.454 44.9191 270.205 45.1168 270.031 45.246C269.865 45.3905 269.741 45.4865 269.66 45.5341C269.587 45.5971 269.535 45.6358 269.504 45.6504C269.339 45.5785 269.22 45.4469 269.148 45.2556C269.076 45.0643 269.037 44.8528 269.031 44.6211C269.049 44.5 269.074 44.3753 269.107 44.247C269.14 44.1186 269.2 43.9871 269.286 43.8523C269.388 43.7102 269.517 43.5649 269.671 43.4164C269.923 43.1751 270.153 42.9769 270.362 42.822C270.57 42.667 270.699 42.573 270.749 42.5399C270.834 42.481 270.909 42.4124 270.976 42.3341C271.042 42.2558 271.095 42.1791 271.134 42.104C271.215 42.0564 271.35 41.9454 271.54 41.7711C271.741 41.6008 271.948 41.4135 272.161 41.2093C272.304 41.0947 272.501 40.9357 272.752 40.7323C273.007 40.5176 273.28 40.29 273.569 40.0495C273.863 39.7977 274.124 39.566 274.353 39.3545C275.169 38.6394 275.819 38.0688 276.302 37.6426C276.79 37.2052 277.122 36.9352 277.299 36.8327C277.398 36.8044 277.504 36.7213 277.617 36.5833C277.746 36.438 277.847 36.3339 277.92 36.2709C278.191 36.011 278.442 35.8076 278.673 35.6607C278.92 35.5066 279.105 35.4517 279.229 35.4961C279.32 35.5284 279.42 35.6027 279.532 35.7189C279.654 35.8392 279.761 35.9857 279.853 36.1585C279.924 36.3498 279.967 36.5879 279.98 36.8729C280.008 37.1505 279.917 37.475 279.708 37.8463C279.632 38.0231 279.526 38.2334 279.387 38.4771C279.253 38.7096 279.119 38.9421 278.985 39.1745C278.851 39.407 278.732 39.5999 278.626 39.7533C278.354 40.2295 278.078 40.6791 277.8 41.102C277.537 41.5177 277.291 41.9015 277.064 42.2535C276.836 42.6054 276.641 42.9182 276.48 43.1918C276.322 43.4541 276.2 43.6716 276.113 43.8444C276.037 44.0212 276.017 44.1479 276.054 44.2246C276.083 44.248 276.133 44.2528 276.201 44.2391C276.285 44.2181 276.352 44.1911 276.402 44.158C276.502 44.0918 276.597 44.0236 276.686 43.9534C276.774 43.8832 276.888 43.7964 277.027 43.6931C277.297 43.5091 277.58 43.3045 277.877 43.0793C278.19 42.8468 278.56 42.5587 278.989 42.2149C279.433 41.8638 279.964 41.4291 280.582 40.911C281.205 40.3815 281.968 39.7241 282.873 38.9387C283.275 38.6361 283.664 38.3294 284.043 38.0186C284.422 37.7079 284.745 37.4795 285.014 37.3334C285.248 37.2131 285.48 37.2257 285.708 37.371C285.948 37.5203 286.135 37.7464 286.269 38.0491C286.403 38.3518 286.422 38.6711 286.328 39.0068C286.283 39.1691 286.148 39.4395 285.923 39.8181C285.714 40.1893 285.459 40.6014 285.157 41.0542C284.855 41.507 284.54 41.9425 284.212 42.3606C284.11 42.5406 283.962 42.7747 283.77 43.0628C283.578 43.351 283.378 43.6428 283.171 43.9382C282.963 44.2336 282.774 44.4972 282.602 44.7288C282.385 45.0848 282.208 45.3657 282.071 45.5715C281.945 45.7814 281.83 46.0332 281.725 46.327C281.559 46.4715 281.398 46.7072 281.243 47.0341C281.088 47.361 280.946 47.7053 280.817 48.0669C280.614 48.4914 280.407 48.7679 280.195 48.8962C279.995 49.0286 279.875 49.0811 279.833 49.0536C279.755 48.9874 279.672 48.9894 279.583 49.0596ZM283.671 49.4687C283.524 49.4162 283.415 49.3456 283.345 49.2568C283.286 49.172 283.213 49.0566 283.125 48.9105C282.991 48.6078 282.902 48.3022 282.86 47.9939C282.828 47.6896 282.864 47.4474 282.966 47.2674C283.032 47.1891 283.074 47.1084 283.091 47.0253C283.123 46.9349 283.139 46.8897 283.139 46.8897C283.103 46.813 283.098 46.773 283.125 46.7698C283.155 46.7553 283.19 46.7294 283.229 46.6923C283.297 46.7165 283.342 46.6624 283.363 46.5301C283.373 46.4316 283.476 46.2516 283.671 45.9901C283.882 45.7213 284.12 45.4816 284.387 45.2709C284.495 45.1821 284.649 45.0715 284.849 44.9392C285.053 44.7955 285.267 44.6615 285.49 44.5372C285.728 44.4057 285.935 44.3076 286.111 44.2431C286.478 44.1067 286.807 44.0074 287.097 43.9453C287.398 43.8872 287.683 43.8743 287.951 43.9066C288.22 43.9389 288.484 44.0015 288.744 44.0944C289.016 44.1913 289.204 44.3604 289.309 44.6017C289.528 44.8076 289.654 45.0247 289.688 45.2532C289.732 45.4857 289.717 45.7605 289.641 46.0777C289.554 46.4289 289.371 46.8349 289.092 47.2958C288.816 47.7454 288.338 48.2115 287.655 48.6941C287.228 49 286.838 49.2175 286.486 49.3467C286.134 49.4758 285.76 49.5779 285.363 49.6529C285.07 49.7263 284.781 49.7316 284.498 49.6686C284.214 49.6056 283.939 49.539 283.671 49.4687ZM286.138 48.0184C286.464 47.8925 286.724 47.7177 286.918 47.4942C287.124 47.2746 287.352 47.0119 287.601 46.706C287.671 46.6543 287.739 46.5514 287.807 46.3972C287.886 46.2471 287.946 46.0966 287.987 45.9456C288.033 45.7834 288.025 45.6788 287.966 45.632C287.892 45.5166 287.797 45.4633 287.679 45.4722C287.565 45.4697 287.409 45.4968 287.21 45.5533C286.77 45.7147 286.337 45.9293 285.91 46.1973C285.498 46.458 285.141 46.8337 284.838 47.3245C284.703 47.5949 284.655 47.8197 284.693 47.9989C284.746 48.1708 284.89 48.2669 285.125 48.2871C285.375 48.3 285.713 48.2105 286.138 48.0184ZM289.479 51.7922C289.151 51.4967 288.927 51.2319 288.807 50.9978C288.702 50.7565 288.691 50.574 288.773 50.4505C288.82 50.3908 288.882 50.3428 288.959 50.3065C289.035 50.2702 289.168 50.292 289.356 50.3719C289.559 50.4446 289.852 50.6064 290.233 50.8575C290.358 50.9019 290.484 50.9407 290.612 50.9738C290.741 51.0069 290.86 51.0303 290.97 51.044C291.091 51.0618 291.191 51.0658 291.271 51.0562C291.336 51.0537 291.363 51.0315 291.352 50.9896C291.346 50.9363 291.322 50.877 291.282 50.8116C291.257 50.7389 291.218 50.6869 291.166 50.6554C291.117 50.6126 291.071 50.5831 291.025 50.567C291.023 50.5024 290.992 50.4277 290.933 50.343C290.886 50.2622 290.823 50.1698 290.746 50.0657C290.57 49.7735 290.408 49.5119 290.261 49.281C290.115 49.0502 290.078 48.9032 290.151 48.8403C290.167 48.7951 290.176 48.7725 290.176 48.7725C290.18 48.7612 290.182 48.7555 290.182 48.7555C290.102 48.7273 290.067 48.5937 290.076 48.3547C290.089 48.1045 290.128 47.889 290.193 47.7082C290.273 47.4822 290.399 47.2723 290.57 47.0786C290.753 46.8889 290.954 46.7186 291.173 46.5677C291.404 46.4208 291.627 46.2965 291.842 46.1948C292.129 46.0681 292.426 45.9511 292.732 45.8437C293.053 45.7291 293.383 45.6432 293.722 45.5859C294.073 45.5327 294.439 45.5234 294.822 45.5582C294.992 45.5808 295.179 45.6284 295.382 45.7011C295.586 45.7738 295.722 45.8545 295.793 45.9433C295.903 45.9191 296.01 45.9764 296.114 46.1153C296.221 46.2428 296.316 46.4042 296.399 46.5996C296.482 46.795 296.532 46.9782 296.547 47.1493C296.498 47.2849 296.432 47.4524 296.348 47.6518C296.28 47.8439 296.208 48.0094 296.133 48.1482C296.058 48.287 295.981 48.3423 295.901 48.3141C295.901 48.3141 295.883 48.3137 295.845 48.3128C295.822 48.3048 295.801 48.329 295.78 48.3855C295.74 48.4985 295.609 48.5982 295.387 48.6845C295.12 48.7547 294.874 48.8007 294.649 48.8225C294.425 48.8443 294.276 48.7974 294.203 48.682C294.151 48.6126 294.105 48.5452 294.065 48.4798C294.024 48.4144 293.994 48.3397 293.973 48.2558C293.973 48.2558 293.964 48.2271 293.946 48.1698C293.944 48.1052 293.95 48.0503 293.967 48.0051C293.983 47.9599 294.014 47.9264 294.06 47.9047C294.11 47.8716 294.135 47.855 294.135 47.855C294.346 47.7646 294.513 47.6714 294.636 47.5754C294.771 47.4834 294.872 47.3982 294.938 47.3199C295.008 47.2303 295.053 47.1573 295.073 47.1008C295.098 47.033 295.095 46.9874 295.065 46.9639C295.05 46.9333 294.998 46.9018 294.908 46.8695C294.851 46.8493 294.711 46.8501 294.486 46.8719C294.273 46.8977 294.041 46.9421 293.789 47.005C293.541 47.0566 293.342 47.1131 293.193 47.1745C293.12 47.2374 293.067 47.2762 293.037 47.2907C293.017 47.3093 292.985 47.3105 292.94 47.2943C292.956 47.2491 292.926 47.2447 292.849 47.281C292.772 47.3173 292.676 47.3722 292.561 47.4456C292.445 47.5191 292.328 47.5982 292.209 47.6829C292.089 47.7677 291.995 47.8359 291.925 47.8875C291.878 47.9852 291.815 48.0712 291.738 48.1454C291.675 48.2124 291.634 48.2931 291.613 48.3876C291.584 48.5046 291.602 48.6321 291.667 48.7702C291.733 48.9082 291.833 49.0907 291.969 49.3175C292.259 49.7526 292.47 50.0892 292.602 50.3274C292.745 50.5695 292.838 50.7556 292.88 50.8856C292.923 51.0155 292.938 51.1354 292.924 51.2452C292.991 51.6641 292.904 51.9773 292.665 52.1848C292.429 52.3809 292.134 52.4923 291.781 52.5189C291.648 52.535 291.432 52.5152 291.133 52.4595C290.83 52.4151 290.523 52.3307 290.21 52.2063C289.905 52.0973 289.661 51.9593 289.479 51.7922ZM296.71 54.3755C296.568 54.2738 296.438 54.1382 296.321 53.9686C296.203 53.7991 296.085 53.6106 295.968 53.4032C295.897 53.1739 295.86 52.9757 295.856 52.8086C295.856 52.6303 295.886 52.4373 295.948 52.2299C296.024 52.0152 296.121 51.744 296.238 51.4162C296.287 51.2806 296.378 51.0966 296.512 50.8641C296.657 50.6357 296.807 50.396 296.96 50.145C297.125 49.898 297.272 49.6829 297.401 49.4996C297.534 49.3051 297.619 49.176 297.654 49.1122C297.74 48.9774 297.714 48.8725 297.575 48.7974C297.437 48.7223 297.275 48.6581 297.09 48.6048C296.92 48.5443 296.813 48.4869 296.769 48.4329C296.728 48.4054 296.725 48.3408 296.762 48.2391C296.802 48.1261 296.822 48.0696 296.822 48.0696C296.838 48.0244 296.826 47.9881 296.785 47.9606C296.748 47.9219 296.722 47.8682 296.709 47.7996C296.702 47.7463 296.761 47.6717 296.884 47.5756C297.008 47.4796 297.136 47.4424 297.268 47.4642C297.378 47.478 297.536 47.5155 297.744 47.5769C297.955 47.627 298.173 47.6601 298.396 47.6762C298.635 47.6851 298.836 47.642 298.997 47.5467C299.188 47.3344 299.395 47.1093 299.621 46.8711C299.85 46.6217 300.059 46.4099 300.249 46.2355C300.443 46.0499 300.572 45.9369 300.638 45.8965C300.866 45.8635 301.078 45.8946 301.273 45.9898C301.473 46.0738 301.597 46.2264 301.645 46.4475C301.673 46.5468 301.698 46.6195 301.72 46.6655C301.753 46.7155 301.752 46.7724 301.717 46.8362C301.692 46.904 301.603 47.0122 301.448 47.1607C301.308 47.3019 301.078 47.5191 300.756 47.812C300.659 47.9049 300.572 47.9884 300.495 48.0627C300.421 48.1256 300.385 48.1571 300.385 48.1571C300.426 48.1845 300.492 48.2144 300.582 48.2467C300.672 48.279 300.787 48.3137 300.927 48.3509C301.059 48.3727 301.201 48.4042 301.352 48.4453C301.507 48.4752 301.637 48.5217 301.742 48.5846C302.002 48.6775 302.168 48.8196 302.239 49.0109C302.311 49.2022 302.312 49.4129 302.243 49.6429C302.221 49.7753 302.138 49.8665 301.992 49.9165C301.847 49.9666 301.622 49.9371 301.317 49.8281C301.215 49.7918 301.066 49.7449 300.87 49.6876C300.674 49.6303 300.472 49.5709 300.265 49.5096C300.057 49.4482 299.876 49.4026 299.721 49.3727C299.581 49.3355 299.507 49.3283 299.499 49.3509C299.457 49.3614 299.369 49.4316 299.233 49.5615C299.113 49.6842 298.975 49.8388 298.819 50.0252C298.674 50.2157 298.539 50.3969 298.414 50.5689C298.198 50.9248 298.008 51.2776 297.845 51.6271C297.682 51.9766 297.563 52.291 297.489 52.5703C297.43 52.8423 297.431 53.053 297.493 53.2023C297.558 53.3403 297.711 53.3948 297.95 53.3658C298.205 53.3295 298.45 53.2702 298.683 53.1879C298.947 53.091 299.14 53.1027 299.263 53.223C299.39 53.332 299.436 53.4886 299.401 53.6928C299.382 53.8898 299.26 54.0694 299.036 54.2316C298.824 54.3979 298.567 54.5101 298.266 54.5682C297.965 54.6263 297.675 54.6371 297.395 54.6008C297.11 54.5757 296.882 54.5006 296.71 54.3755ZM304.654 57.7292C304.633 57.7857 304.605 57.7756 304.569 57.6989C304.528 57.6335 304.462 57.5334 304.37 57.3986C304.305 57.2606 304.233 57.0882 304.154 56.8816C304.074 56.6749 304.079 56.4662 304.167 56.2556C304.316 56.0158 304.553 55.6736 304.878 55.2289C305.206 54.7728 305.571 54.3043 305.972 53.8232C306.072 53.6166 306.17 53.4479 306.268 53.3171C306.377 53.1904 306.431 53.127 306.431 53.127C306.451 53.1085 306.485 53.0826 306.536 53.0495C306.59 53.0052 306.655 52.9838 306.73 52.9854C306.803 52.9604 306.856 52.8837 306.889 52.7553C306.926 52.6157 306.945 52.5269 306.946 52.489C307.088 52.2339 307.321 51.903 307.645 51.4962C307.973 51.0781 308.337 50.6474 308.737 50.2043C309.141 49.7499 309.52 49.331 309.874 48.9476C309.967 48.8661 310.052 48.7882 310.13 48.7139C310.211 48.6284 310.252 48.5856 310.252 48.5856C310.234 48.5283 310.211 48.469 310.182 48.4076C310.153 48.3463 310.124 48.2659 310.096 48.1666C310.05 48.01 310.03 47.8502 310.038 47.6872C310.06 47.5168 310.15 47.3897 310.308 47.3058C310.362 47.2614 310.45 47.2101 310.573 47.152C310.707 47.098 310.845 47.0516 310.986 47.0128C311.298 46.9588 311.593 46.9366 311.87 46.9463C312.162 46.9487 312.4 47.0146 312.583 47.1437C312.94 47.2842 313.202 47.4093 313.366 47.5191C313.542 47.633 313.672 47.7496 313.757 47.8691C313.809 47.9385 313.853 47.9926 313.89 48.0314C313.939 48.0741 314.008 48.1117 314.099 48.144C314.283 48.2352 314.482 48.3894 314.698 48.6066C314.918 48.8124 315.107 49.0138 315.266 49.2108C315.425 49.4078 315.513 49.5349 315.531 49.5922C315.688 49.8651 315.793 50.1956 315.846 50.5839C315.898 50.9722 315.865 51.3871 315.745 51.8286C315.652 52.0885 315.558 52.3162 315.463 52.5115C315.372 52.6955 315.252 52.8695 315.104 53.0333C314.961 53.1859 314.754 53.3542 314.484 53.5382C313.956 53.9482 313.344 54.3223 312.65 54.6604C311.967 55.0026 311.165 55.2512 310.243 55.4061C310.204 55.4432 310.158 55.484 310.104 55.5284C310.065 55.5655 310.045 55.5841 310.045 55.5841C310.013 55.6745 310.027 55.8133 310.088 56.0006C310.16 56.1919 310.256 56.4046 310.376 56.6387C310.5 56.8615 310.63 57.0863 310.766 57.3132C310.913 57.544 311.043 57.7499 311.157 57.9307C311.286 58.1043 311.382 58.2278 311.445 58.3012C311.608 58.3085 311.733 58.334 311.819 58.3776C311.909 58.4099 311.963 58.4736 311.98 58.5689C311.997 58.6641 311.977 58.8098 311.92 59.006C311.856 59.1488 311.766 59.276 311.649 59.3874C311.533 59.4987 311.454 59.5597 311.412 59.5702C311.298 59.6057 311.184 59.6545 311.073 59.7167C310.973 59.7828 310.868 59.8091 310.758 59.7953C310.648 59.7816 310.525 59.6803 310.389 59.4914C309.937 59.1515 309.586 58.6886 309.337 58.1025C309.099 57.5205 308.833 56.8904 308.54 56.2124C308.483 56.0517 308.429 55.9367 308.377 55.8673C308.329 55.7865 308.266 55.732 308.187 55.7038C308.108 55.6755 307.983 55.6501 307.813 55.6275C307.718 55.6065 307.636 55.5516 307.566 55.4628C307.507 55.378 307.448 55.2743 307.39 55.1516C307.376 55.083 307.343 55.0329 307.291 55.0014C307.25 54.974 307.2 54.9881 307.142 55.0438C307.095 55.1035 307.008 55.206 306.879 55.3513C306.766 55.4893 306.648 55.6254 306.523 55.7593C306.41 55.8974 306.309 56.0015 306.22 56.0717C306.207 56.1815 306.1 56.3918 305.9 56.7025C305.703 57.002 305.479 57.3103 305.225 57.6275C305.159 57.7058 305.08 57.7667 304.988 57.8103C304.892 57.8652 304.835 57.864 304.817 57.8067C304.792 57.734 304.763 57.6916 304.729 57.6795C304.706 57.6715 304.681 57.688 304.654 57.7292ZM309.506 53.9385C309.87 53.9539 310.246 53.9164 310.635 53.826C311.04 53.7284 311.436 53.5831 311.823 53.3902C312.211 53.1973 312.553 52.9693 312.851 52.7062C312.966 52.6707 313.089 52.5936 313.22 52.475C313.356 52.345 313.458 52.2732 313.527 52.2595C313.673 52.1715 313.775 52.0997 313.833 52.044C313.903 51.9923 313.927 51.9055 313.907 51.7837C313.939 51.6933 313.981 51.6125 314.032 51.5415C314.098 51.4632 314.157 51.3886 314.207 51.3175C314.32 51.1795 314.371 51.0382 314.359 50.8938C314.358 50.7533 314.245 50.5535 314.019 50.2944C313.941 50.1902 313.854 50.0954 313.757 50.0098C313.676 49.917 313.581 49.8258 313.473 49.7361C313.38 49.6393 313.272 49.5307 313.149 49.4104C312.968 49.3458 312.796 49.2397 312.632 49.0919C312.484 48.9369 312.357 48.8469 312.251 48.8219C312.19 48.813 312.11 48.8606 312.009 48.9647C311.923 49.0616 311.814 49.2073 311.681 49.4018C311.571 49.5665 311.456 49.7101 311.335 49.8328C311.231 49.9482 311.125 50.0124 311.018 50.0253C310.991 50.0665 310.883 50.2065 310.696 50.4454C310.509 50.6844 310.286 50.9681 310.029 51.2966C309.775 51.6138 309.52 51.9367 309.262 52.2652C309.009 52.5824 308.796 52.8568 308.624 53.0885C308.452 53.3201 308.358 53.4586 308.342 53.5038C308.334 53.5264 308.354 53.578 308.401 53.6587C308.46 53.7435 308.516 53.8016 308.568 53.8331C308.568 53.8331 308.584 53.8258 308.614 53.8113C308.645 53.7968 308.67 53.7992 308.688 53.8186L308.995 54.1383L309.506 53.9385ZM314.305 60.8905C313.684 60.6685 313.268 60.3161 313.058 59.8333C312.86 59.3547 312.894 58.7424 313.16 57.9966C313.306 57.5897 313.539 57.1696 313.859 56.7362C314.191 56.3067 314.564 55.9048 314.978 55.5303C315.403 55.1598 315.829 54.8596 316.255 54.6295C316.686 54.3882 317.078 54.2543 317.431 54.2277C317.564 54.2115 317.697 54.2144 317.829 54.2362C317.977 54.2507 318.113 54.2802 318.237 54.3246C318.373 54.373 318.516 54.4368 318.666 54.5159C318.832 54.5878 318.978 54.6782 319.104 54.7872C319.336 54.9591 319.508 55.1924 319.619 55.4871C319.742 55.7858 319.726 56.1498 319.573 56.5792C319.532 56.6922 319.477 56.8125 319.406 56.94C319.339 57.0563 319.255 57.1664 319.154 57.2706C318.874 57.591 318.521 57.8662 318.094 58.0963C317.679 58.3303 317.284 58.4566 316.908 58.4751C316.801 58.488 316.699 58.4896 316.6 58.48C316.517 58.463 316.43 58.4384 316.34 58.4061C316.102 58.3213 315.9 58.2107 315.732 58.0743C315.575 57.9419 315.438 57.7909 315.32 57.6214L315.227 57.4543L315.082 57.5935C314.926 57.78 314.805 57.9406 314.719 58.0754C314.643 58.2142 314.594 58.3175 314.57 58.3853C314.521 58.5209 314.476 58.6642 314.435 58.8152C314.398 58.9548 314.392 59.0799 314.416 59.1905C314.441 59.2632 314.481 59.3286 314.537 59.3867C314.604 59.4488 314.694 59.5001 314.807 59.5405C314.875 59.5647 314.937 59.5869 314.993 59.6071C315.065 59.62 315.126 59.6289 315.175 59.6337C315.394 59.6612 315.585 59.6463 315.745 59.589C315.921 59.5244 316.097 59.4788 316.272 59.4522L316.352 59.4425L316.353 59.3856C316.581 59.3525 316.734 59.3368 316.81 59.3384C316.889 59.3288 316.95 59.3187 316.992 59.3082C317.054 59.2791 317.113 59.2747 317.169 59.2949C317.335 59.3288 317.472 59.4285 317.578 59.594C317.7 59.7522 317.733 59.9104 317.676 60.0686C317.652 60.1364 317.563 60.2256 317.409 60.3362C317.266 60.4508 317.095 60.5553 316.895 60.6498C316.711 60.7369 316.532 60.7938 316.357 60.8204C316.319 60.8196 316.279 60.8245 316.237 60.835C316.199 60.8341 316.159 60.839 316.117 60.8495L316.134 60.8555C315.984 60.9548 315.858 60.9863 315.756 60.9499L315.62 60.9015C315.547 60.9645 315.37 60.9967 315.089 60.9983C314.804 61.0112 314.543 60.9753 314.305 60.8905ZM316.646 57.1202C316.748 57.1566 316.844 57.1719 316.936 57.1663C317.038 57.1646 317.137 57.1554 317.232 57.1384C317.572 57.0432 317.836 56.8572 318.024 56.5803C318.212 56.3035 318.267 56.0617 318.188 55.8551C318.177 55.8131 318.157 55.7804 318.127 55.757C318.101 55.7223 318.066 55.6968 318.021 55.6807C317.896 55.6363 317.741 55.6254 317.554 55.6479C317.379 55.6746 317.192 55.7351 316.993 55.8295C316.793 55.9239 316.595 56.0507 316.398 56.2097L316.051 56.4869C316.077 56.4837 316.096 56.4841 316.107 56.4881C316.134 56.4849 316.153 56.4853 316.164 56.4893C316.266 56.5257 316.322 56.5838 316.331 56.6637C316.341 56.7436 316.356 56.8256 316.377 56.9095C316.41 56.9975 316.499 57.0677 316.646 57.1202ZM320.927 62.7399C320.756 62.7552 320.576 62.7229 320.388 62.6429C320.2 62.563 319.962 62.408 319.675 62.1779C319.652 62.1699 319.591 62.0908 319.492 61.9406C319.393 61.7905 319.3 61.6234 319.213 61.4393C319.125 61.2553 319.075 61.11 319.062 61.0034C318.974 60.6789 319.055 60.2745 319.305 59.7902C319.565 59.3099 319.964 58.7643 320.501 58.1533C320.641 58.012 320.836 57.8397 321.087 57.6363C321.35 57.4369 321.598 57.2582 321.833 57.1C322.083 56.9345 322.248 56.847 322.328 56.8373C322.328 56.8373 322.399 56.8369 322.539 56.8361C322.679 56.8353 322.864 56.8183 323.092 56.7853C323.157 56.7829 323.263 56.7889 323.411 56.8035C323.57 56.822 323.727 56.8463 323.882 56.8761C324.052 56.8988 324.164 56.9258 324.216 56.9573C324.438 57.0493 324.639 57.2169 324.82 57.4598C325.016 57.6956 325.157 57.9434 325.243 58.2033C325.332 58.4519 325.323 58.6396 325.214 58.7663C325.205 58.7889 325.145 58.8503 325.033 58.9504C324.936 59.0432 324.832 59.1396 324.719 59.2397C324.611 59.3285 324.525 59.3931 324.459 59.4334C324.378 59.4811 324.267 59.473 324.124 59.4092C323.992 59.3494 323.884 59.2598 323.799 59.1404C323.715 59.0209 323.691 58.8913 323.728 58.7517C323.738 58.6532 323.683 58.5382 323.564 58.4066C323.457 58.279 323.403 58.2153 323.403 58.2153C323.313 58.183 323.162 58.231 322.951 58.3593C322.739 58.4876 322.514 58.6366 322.275 58.806C321.999 58.9368 321.773 59.1047 321.598 59.3097C321.438 59.5074 321.305 59.702 321.198 59.8933C321.107 60.0773 321.026 60.2141 320.956 60.3037C320.871 60.4006 320.82 60.5418 320.805 60.7275C320.789 60.9131 320.812 61.0294 320.871 61.0762C320.969 61.1238 321.107 61.1666 321.284 61.2046C321.477 61.2353 321.678 61.2623 321.886 61.2858C322.11 61.3019 322.333 61.3181 322.557 61.3342C322.784 61.3391 322.989 61.3359 323.172 61.3246C323.435 61.2657 323.64 61.2815 323.786 61.3719C323.936 61.451 324.046 61.516 324.118 61.5669C324.226 61.6565 324.254 61.7747 324.201 61.9216C324.149 62.0685 324.041 62.2086 323.879 62.3418C323.721 62.4636 323.527 62.5411 323.299 62.5742C323.086 62.6 322.886 62.6432 322.698 62.7037C322.526 62.7569 322.43 62.8118 322.41 62.8683C322.365 62.8522 322.308 62.851 322.239 62.8647C322.186 62.8711 322.145 62.8627 322.115 62.8392C322.092 62.8312 321.996 62.8158 321.825 62.7932C321.655 62.7706 321.477 62.7516 321.291 62.7363C321.117 62.7249 320.996 62.7261 320.927 62.7399ZM326.443 65.0544C326.292 65.0132 326.179 64.9539 326.105 64.8764C326.027 64.8102 325.934 64.7133 325.827 64.5858C325.647 64.3048 325.522 63.9928 325.454 63.6498C325.396 63.3107 325.408 63.0472 325.488 62.8591C325.547 62.7655 325.579 62.6751 325.585 62.5879C325.602 62.5048 325.61 62.4632 325.61 62.4632C325.562 62.3825 325.552 62.3405 325.579 62.3373C325.609 62.3227 325.638 62.2949 325.666 62.2537C325.764 62.2634 325.798 62.2053 325.766 62.0794C325.765 61.9769 325.854 61.7795 326.035 61.4873C326.231 61.1879 326.442 60.9191 326.667 60.681C326.768 60.5768 326.906 60.4413 327.08 60.2742C327.266 60.1111 327.463 59.9521 327.671 59.7972C327.883 59.6309 328.068 59.5058 328.226 59.4219C328.575 59.2282 328.878 59.0752 329.135 58.963C329.403 58.8549 329.677 58.8 329.958 58.7984C330.217 58.7888 330.457 58.83 330.679 58.922C330.912 59.0181 331.093 59.1719 331.221 59.3834C331.464 59.5594 331.663 59.7705 331.817 60.0167C331.975 60.2516 332.041 60.5301 332.015 60.8521C331.989 61.2122 331.878 61.6121 331.682 62.052C331.502 62.4847 331.106 62.9867 330.494 63.5582C330.122 63.9222 329.78 64.2015 329.469 64.396C329.168 64.5945 328.827 64.7656 328.444 64.9093C328.165 65.0134 327.832 65.0727 327.444 65.0872C327.057 65.1017 326.723 65.0907 326.443 65.0544ZM328.832 63.0217C329.052 62.8707 329.235 62.7133 329.383 62.5495C329.542 62.3897 329.722 62.1544 329.922 61.8436C330 61.7314 330.072 61.5849 330.136 61.4041C330.212 61.2273 330.265 61.0615 330.295 60.9065C330.34 60.7442 330.331 60.6454 330.267 60.6098C330.14 60.5009 329.988 60.4464 329.809 60.4463C329.646 60.4391 329.423 60.5121 329.138 60.6654C328.885 60.8043 328.669 60.9439 328.492 61.0843C328.33 61.2175 328.159 61.3922 327.98 61.6086C327.816 61.8176 327.614 62.0961 327.375 62.444C327.152 62.7846 327.039 63.082 327.037 63.3363C327.047 63.5946 327.194 63.7173 327.479 63.7044C327.764 63.6915 328.215 63.4639 328.832 63.0217ZM339.022 68.9174C338.951 68.8665 338.853 68.7487 338.728 68.5638C338.603 68.3789 338.517 68.138 338.47 67.8409C338.434 67.5479 338.493 67.2056 338.646 66.8142C338.778 66.4792 338.885 66.2499 338.968 66.1264C339.065 65.9957 339.077 65.9105 339.002 65.871C338.949 65.8395 338.818 65.85 338.608 65.9024C338.398 65.9549 338.113 66.057 337.753 66.2087C337.393 66.3604 336.948 66.571 336.419 66.8406C336.243 66.9052 336.04 66.9919 335.81 67.1009C335.595 67.2026 335.389 67.2627 335.191 67.2812C335.005 67.3038 334.869 67.2364 334.785 67.079L334.67 66.8659C334.616 66.7698 334.58 66.6552 334.564 66.522C334.548 66.3888 334.565 66.2867 334.616 66.2157L335.563 65.0631C335.804 64.8177 335.971 64.6353 336.064 64.5158C336.169 64.4004 336.222 64.3237 336.223 64.2858C336.235 64.2519 336.211 64.2305 336.15 64.2216C336.078 64.2087 335.96 64.2365 335.796 64.3051C335.635 64.3624 335.52 64.4169 335.45 64.4686C335.405 64.4524 335.327 64.4754 335.216 64.5375C335.115 64.6037 335.019 64.6586 334.927 64.7022C334.835 64.7458 334.67 64.8333 334.432 64.9649C334.198 65.0852 333.949 65.2127 333.684 65.3475C333.488 65.4306 333.254 65.5508 332.981 65.7082C332.709 65.8656 332.466 66.0085 332.255 66.1368C332.043 66.2651 331.921 66.3232 331.887 66.3111C331.687 66.2271 331.525 66.0927 331.4 65.9079C331.286 65.727 331.233 65.5361 331.242 65.3351C331.218 65.1866 331.293 64.9586 331.467 64.651C331.644 64.3322 331.944 63.8338 332.364 63.1558C332.47 63.0024 332.562 62.8696 332.64 62.7574C332.73 62.6493 332.82 62.5411 332.909 62.433C332.999 62.3248 333.1 62.2017 333.213 62.0637C333.337 61.9297 333.491 61.7679 333.673 61.5782C333.786 61.4402 333.861 61.3013 333.898 61.1617C333.94 61.0108 333.971 60.8881 333.992 60.7936C334.052 60.6241 334.152 60.5067 334.29 60.4413C334.439 60.38 334.587 60.3566 334.735 60.3711C334.887 60.3743 334.998 60.4014 335.069 60.4523C335.374 60.5992 335.548 60.7889 335.592 61.0214C335.637 61.2539 335.632 61.4625 335.579 61.6474C335.53 61.8209 335.453 61.9654 335.348 62.0808C335.243 62.1962 335.157 62.2931 335.091 62.3714L334.741 62.7625C334.535 62.982 334.382 63.1438 334.281 63.248C334.195 63.3448 334.139 63.4138 334.111 63.455C334.099 63.4889 334.087 63.5228 334.075 63.5567C334.074 63.5946 334.131 63.5958 334.246 63.5603C334.36 63.5248 334.5 63.4728 334.665 63.4042C334.845 63.3283 335.007 63.2654 335.153 63.2153C335.417 63.1185 335.692 63.0257 335.978 62.9369C336.28 62.8409 336.569 62.7654 336.843 62.7106C337.117 62.6557 337.336 62.6319 337.499 62.6392C337.679 62.7417 337.82 62.9003 337.922 63.1151C338.035 63.3338 338.094 63.5078 338.099 63.6369C338.094 63.8266 338.046 63.9812 337.952 64.1007C337.87 64.2242 337.797 64.3384 337.734 64.4433C337.707 64.4845 337.654 64.5612 337.575 64.6734C337.497 64.7856 337.421 64.8921 337.347 64.993C337.276 65.0826 337.241 65.1274 337.241 65.1274C337.241 65.1274 337.287 65.1056 337.379 65.062C337.471 65.0184 337.59 64.9716 337.735 64.9216C337.885 64.8603 338.03 64.8102 338.171 64.7715C338.89 64.5439 339.433 64.4322 339.801 64.4362C340.184 64.433 340.438 64.632 340.562 65.0332C340.654 65.206 340.678 65.4058 340.635 65.6326C340.604 65.8634 340.523 66.1597 340.394 66.5213C340.353 66.6722 340.306 66.8401 340.252 67.025C340.21 67.2139 340.176 67.3801 340.151 67.5238C340.136 67.6715 340.134 67.7664 340.144 67.8084C340.162 67.8657 340.208 67.9331 340.282 68.0106C340.361 68.0768 340.435 68.1353 340.506 68.1862C340.636 68.3218 340.669 68.499 340.603 68.7177C340.553 68.9292 340.418 69.0592 340.196 69.1076C339.991 69.1487 339.788 69.1463 339.587 69.1003C339.399 69.0583 339.21 68.9973 339.022 68.9174ZM341.327 69.4923C341.309 69.435 341.256 69.3523 341.167 69.2441C341.078 69.1359 341.042 69.0592 341.058 69.014C341.066 68.9914 341.071 68.9612 341.071 68.9232C341.084 68.8893 341.067 68.8643 341.022 68.8481C341 68.8021 341.061 68.6839 341.206 68.4934C341.362 68.3069 341.554 68.089 341.784 67.8396C342.024 67.5942 342.266 67.3622 342.51 67.1434C342.758 66.9134 342.963 66.7318 343.125 66.5986C343.194 66.5849 343.244 66.5518 343.275 66.4994C343.322 66.4396 343.334 66.4057 343.312 66.3976C343.312 66.3976 343.358 66.3569 343.451 66.2754C343.559 66.1866 343.636 66.1313 343.682 66.1095C343.829 65.9836 343.953 65.8496 344.055 65.7075C344.161 65.5542 344.223 65.417 344.24 65.2959C344.215 65.2232 344.171 65.1881 344.106 65.1905C344.042 65.193 344.009 65.1942 344.009 65.1942C343.96 65.1893 343.884 65.1877 343.782 65.1893C343.694 65.1836 343.609 65.1913 343.525 65.2123C343.2 65.3002 342.976 65.322 342.852 65.2776C342.739 65.2372 342.674 65.0613 342.658 64.7497C342.657 64.6092 342.683 64.4845 342.734 64.3755C342.786 64.2666 342.863 64.1923 342.967 64.1528C343.085 64.106 343.227 64.0672 343.391 64.0366C343.559 63.9946 343.671 63.9648 343.728 63.947C343.881 63.9123 344.086 63.8901 344.345 63.8805C344.603 63.8708 344.757 63.8684 344.806 63.8732C345.132 63.8878 345.381 63.9766 345.552 64.1397C345.727 64.2914 345.823 64.5042 345.84 64.7778C345.93 65.0264 345.936 65.2581 345.859 65.4728C345.783 65.6875 345.609 65.9248 345.337 66.1847L345.077 66.3784C344.98 66.4712 344.949 66.5237 344.983 66.5358C345.028 66.552 345.093 66.5306 345.178 66.4717C345.228 66.4386 345.32 66.395 345.454 66.3409C345.588 66.2868 345.672 66.2659 345.705 66.278C345.705 66.278 345.719 66.2764 345.745 66.2731C345.783 66.274 345.816 66.2348 345.845 66.1557C345.891 66.1339 345.937 66.1121 345.983 66.0903C346.04 66.0726 346.069 66.0637 346.069 66.0637C346.114 66.0798 346.179 66.0774 346.262 66.0564C346.362 66.0282 346.528 65.9729 346.761 65.8906C346.918 65.8446 347.047 65.8398 347.149 65.8761C347.437 65.8899 347.616 66.0493 347.685 66.3544C347.766 66.6636 347.736 67.0159 347.594 67.4115L346.911 68.1996L347.788 67.6718C347.888 67.6056 347.984 67.5507 348.076 67.5072C348.179 67.4676 348.267 67.4353 348.34 67.4103C348.391 67.3393 348.441 67.3062 348.49 67.311C348.54 67.3159 348.564 67.3183 348.564 67.3183C348.564 67.3183 348.575 67.3223 348.598 67.3304C348.625 67.3272 348.644 67.3086 348.656 67.2747C348.729 67.2497 348.805 67.2324 348.885 67.2227C348.969 67.2017 349.03 67.1726 349.069 67.1355C349.289 67.125 349.525 67.1965 349.776 67.3499C350.031 67.492 350.173 67.7019 350.201 67.9795C350.232 68.1434 350.263 68.2883 350.294 68.4142C350.326 68.5402 350.305 68.7048 350.232 68.9082C350.149 69.0697 350.084 69.1803 350.038 69.24C350.002 69.3038 349.964 69.3732 349.925 69.4482C349.889 69.512 349.828 69.6303 349.741 69.803C349.663 69.8772 349.601 69.9632 349.553 70.0609C349.517 70.1626 349.482 70.2586 349.45 70.349C349.398 70.496 349.367 70.5997 349.358 70.6602C349.353 70.7095 349.39 70.7482 349.47 70.7765C349.64 70.7991 349.788 70.7946 349.914 70.7632C350.055 70.7244 350.216 70.6671 350.396 70.5913C350.622 70.4936 350.777 70.5235 350.861 70.6809C350.96 70.8311 351.002 70.98 350.988 71.1277C350.994 71.181 350.935 71.2746 350.811 71.4086C350.687 71.5426 350.553 71.6669 350.41 71.7815C350.267 71.8961 350.168 71.9433 350.111 71.9232C350.077 71.911 349.993 71.932 349.859 71.9861C349.725 72.0402 349.624 72.0741 349.555 72.0878C349.448 72.1386 349.343 72.1838 349.239 72.2234C349.147 72.2669 349.056 72.2726 348.966 72.2403C348.921 72.2241 348.858 72.2209 348.778 72.2306C348.713 72.233 348.642 72.2201 348.563 72.1918C348.437 72.1854 348.268 72.1058 348.055 71.9533C347.853 71.8047 347.763 71.594 347.784 71.3212C347.783 71.1807 347.772 70.9983 347.75 70.7739C347.74 70.5535 347.808 70.3102 347.954 70.0438C348.072 69.8565 348.166 69.6802 348.238 69.5147C348.31 69.3492 348.375 69.2386 348.433 69.1829C348.445 69.149 348.474 69.0699 348.518 68.9456C348.566 68.81 348.574 68.7362 348.54 68.7241C348.495 68.7079 348.39 68.7341 348.225 68.8027C348.06 68.8713 347.859 68.9714 347.621 69.103C347.387 69.2232 347.141 69.3584 346.883 69.5085C346.637 69.6627 346.408 69.8229 346.196 69.9892C346.049 70.0771 345.905 70.1974 345.761 70.3499C345.617 70.5025 345.524 70.584 345.482 70.5945C345.371 70.6566 345.231 70.6195 345.063 70.4831C344.907 70.3507 344.81 70.1949 344.772 70.0157C344.762 69.9358 344.737 69.8821 344.695 69.8546C344.658 69.8159 344.631 69.7679 344.613 69.7105C344.611 69.646 344.649 69.5386 344.728 69.3885C344.819 69.2424 344.983 69.0144 345.221 68.7044C345.483 68.3646 345.713 68.0583 345.912 67.7855C346.127 67.5054 346.235 67.3653 346.235 67.3653C346.251 67.3201 346.15 67.3351 345.932 67.4101C345.718 67.4739 345.464 67.5614 345.169 67.6728C345.023 67.7608 344.831 67.8705 344.593 68.0021C344.366 68.1377 344.099 68.2971 343.791 68.4803C343.495 68.6675 343.154 68.8899 342.769 69.1474C342.276 69.4936 341.926 69.6873 341.72 69.7285C341.526 69.7736 341.395 69.6949 341.327 69.4923ZM352.202 73.9509C352.055 73.8984 351.947 73.8277 351.877 73.7389C351.818 73.6542 351.744 73.5387 351.656 73.3926C351.522 73.0899 351.434 72.7844 351.391 72.476C351.36 72.1717 351.395 71.9295 351.498 71.7495C351.564 71.6713 351.606 71.5905 351.623 71.5074C351.655 71.417 351.671 71.3718 351.671 71.3718C351.635 71.2951 351.63 71.2551 351.657 71.2519C351.687 71.2374 351.722 71.2116 351.761 71.1744C351.828 71.1987 351.873 71.1446 351.895 71.0122C351.905 70.9137 352.007 70.7337 352.203 70.4722C352.413 70.2034 352.652 69.9637 352.918 69.753C353.026 69.6643 353.181 69.5537 353.381 69.4213C353.585 69.2777 353.799 69.1437 354.021 69.0194C354.26 68.8878 354.467 68.7898 354.643 68.7252C355.01 68.5888 355.338 68.4896 355.628 68.4274C355.929 68.3693 356.214 68.3564 356.483 68.3888C356.752 68.4211 357.016 68.4836 357.276 68.5765C357.547 68.6734 357.735 68.8425 357.84 69.0839C358.06 69.2897 358.186 69.5069 358.219 69.7353C358.264 69.9678 358.248 70.2427 358.173 70.5599C358.086 70.911 357.903 71.317 357.623 71.7779C357.348 72.2275 356.869 72.6936 356.187 73.1763C355.759 73.4822 355.369 73.6997 355.018 73.8288C354.666 73.9579 354.291 74.06 353.895 74.135C353.601 74.2085 353.313 74.2137 353.029 74.1507C352.746 74.0877 352.47 74.0211 352.202 73.9509ZM354.67 72.5005C354.995 72.3746 355.255 72.1999 355.45 71.9763C355.656 71.7568 355.883 71.494 356.133 71.1881C356.202 71.1365 356.271 71.0336 356.339 70.8794C356.418 70.7292 356.478 70.5787 356.519 70.4278C356.564 70.2655 356.557 70.161 356.497 70.1142C356.424 69.9987 356.328 69.9454 356.211 69.9543C356.097 69.9519 355.94 69.9789 355.742 70.0354C355.302 70.1968 354.868 70.4115 354.441 70.6794C354.03 70.9401 353.673 71.3159 353.37 71.8066C353.235 72.077 353.187 72.3018 353.224 72.481C353.278 72.653 353.422 72.749 353.657 72.7692C353.907 72.7822 354.245 72.6926 354.67 72.5005ZM358.236 75.5902C358.191 75.5741 358.098 75.4962 357.956 75.3565C357.819 75.2056 357.736 75.0994 357.707 75.0381C357.66 74.9194 357.644 74.8052 357.657 74.6954C357.675 74.5743 357.741 74.3556 357.854 74.0391C357.983 73.6775 358.202 73.297 358.51 72.8974C358.822 72.4866 359.291 71.9595 359.916 71.3162L361.113 70.1576C361.198 70.0986 361.273 70.049 361.339 70.0087C361.408 69.957 361.481 69.913 361.558 69.8767C361.58 69.8848 361.609 69.8949 361.643 69.907C361.688 69.9231 361.72 69.9409 361.738 69.9603C361.836 70.0079 361.972 70.1266 362.146 70.3163C362.332 70.51 362.407 70.728 362.371 70.9701C362.319 71.117 362.234 71.2841 362.116 71.4714C362.002 71.6473 361.776 71.8532 361.437 72.0888C361.306 72.1695 361.157 72.3011 360.99 72.4835C360.834 72.67 360.688 72.8471 360.551 73.015C360.532 73.0336 360.478 73.078 360.389 73.1482C360.316 73.2112 360.24 73.2798 360.163 73.354C360.089 73.417 360.048 73.4598 360.04 73.4824L359.918 73.6107L360.901 73.1591C361.591 72.8323 362.15 72.6241 362.577 72.5345C363.004 72.4449 363.33 72.4595 363.555 72.5782C363.792 72.7009 363.939 72.9128 363.997 73.2139C364.036 73.3552 364.048 73.4997 364.034 73.6474C364.023 73.7838 363.993 73.9388 363.944 74.1123C363.895 74.2859 363.812 74.4985 363.697 74.7504L363.352 75.7166C363.587 75.7368 363.767 75.7501 363.892 75.7566C364.021 75.7518 364.148 75.7526 364.273 75.759C364.372 75.7687 364.47 75.7784 364.569 75.7881C364.678 75.8019 364.809 75.8293 364.96 75.8705C364.896 76.0134 364.769 76.172 364.579 76.3463C364.39 76.5207 364.172 76.6849 363.926 76.8391C363.691 76.9972 363.451 77.1155 363.206 77.1938C362.973 77.2761 362.777 77.289 362.619 77.2325C362.472 77.18 362.319 77.0742 362.159 76.9152C362.003 76.7449 361.908 76.4942 361.873 76.1633C361.881 76.0002 361.896 75.8145 361.919 75.6063C361.943 75.398 361.993 75.1865 362.07 74.9718L362.336 74.226C362.36 74.1582 362.371 74.111 362.367 74.0843C362.38 74.0504 362.38 74.0315 362.369 74.0274C362.323 74.0113 362.134 74.0774 361.801 74.2259C361.479 74.3785 361.147 74.5403 360.805 74.7114C360.092 75.0681 359.513 75.3139 359.07 75.4486C358.638 75.5874 358.36 75.6346 358.236 75.5902ZM369.458 80.6123C369.299 80.5937 369.167 80.5017 369.06 80.3362C368.961 80.1861 368.905 80.0387 368.893 79.8943C368.89 79.6892 368.905 79.5036 368.939 79.3373C368.988 79.1637 369.046 78.9676 369.111 78.7488L369.3 78.1665L368.381 78.5454C367.868 78.7697 367.413 78.9005 367.017 78.9376C366.637 78.9674 366.312 78.9339 366.04 78.837C365.924 78.77 365.8 78.6364 365.667 78.4362C365.55 78.2287 365.449 78.014 365.362 77.792C365.291 77.5627 365.248 77.3815 365.232 77.2483C365.22 77.0659 365.277 76.8375 365.4 76.563C365.535 76.2926 365.714 76.0061 365.937 75.7034C366.171 75.4047 366.425 75.1198 366.701 74.8486C366.987 74.5815 367.28 74.3676 367.58 74.207C368.154 73.7752 368.743 73.5904 369.345 73.6526C369.951 73.7035 370.427 73.9243 370.771 74.315C370.938 74.4894 371.071 74.5814 371.17 74.5911C371.268 74.6008 371.351 74.5475 371.418 74.4313C371.528 74.2666 371.639 74.1153 371.752 73.9773C371.865 73.8392 372.029 73.6302 372.244 73.3501C372.833 72.5922 373.316 72.0066 373.693 71.5933C374.082 71.1841 374.425 70.829 374.724 70.5279C374.941 70.3124 375.13 70.176 375.291 70.1187C375.451 70.0614 375.575 70.0546 375.661 70.0982C375.785 70.1426 375.922 70.2423 376.07 70.3973C376.23 70.5563 376.31 70.725 376.31 70.9034C376.319 71.0213 376.297 71.1347 376.246 71.2436C376.205 71.3566 376.129 71.4632 376.017 71.5633C375.773 71.782 375.469 72.081 375.104 72.4604C374.754 72.8325 374.383 73.2478 373.99 73.7062C373.608 74.1687 373.239 74.6296 372.884 75.0889C372.529 75.5482 372.224 75.9554 371.97 76.3105C371.813 76.5349 371.644 76.8311 371.461 77.1992C371.29 77.5713 371.121 77.9567 370.953 78.3555C370.8 78.747 370.673 79.1029 370.571 79.4234C370.473 79.7325 370.42 79.9364 370.41 80.0348C370.397 80.2851 370.337 80.4546 370.228 80.5434C370.12 80.6321 369.998 80.6713 369.862 80.6608C369.721 80.6616 369.587 80.6454 369.458 80.6123ZM367.394 77.5621C367.573 77.5621 367.738 77.5448 367.891 77.5101C368.043 77.4754 368.226 77.4262 368.44 77.3624C368.872 77.2236 369.196 77.0844 369.411 76.9448C369.638 76.8092 369.847 76.6163 370.039 76.3661C370.156 76.2167 370.208 76.0698 370.196 75.9253C370.195 75.7849 370.153 75.6359 370.069 75.4785C369.981 75.3324 369.837 75.2363 369.637 75.1903C369.441 75.133 369.178 75.1729 368.849 75.3101C368.489 75.4618 368.154 75.6673 367.845 75.9263C367.536 76.1854 367.21 76.5979 366.868 77.1637C366.805 77.2686 366.816 77.3619 366.901 77.4434C366.987 77.5249 367.151 77.5645 367.394 77.5621ZM373.352 81.9842C372.73 81.7621 372.315 81.4097 372.105 80.927C371.906 80.4483 371.94 79.8361 372.207 79.0902C372.352 78.6834 372.585 78.2633 372.906 77.8298C373.237 77.4004 373.61 76.9985 374.024 76.6239C374.45 76.2535 374.876 75.9532 375.302 75.7232C375.732 75.4819 376.124 75.3479 376.478 75.3213C376.611 75.3052 376.744 75.308 376.876 75.3298C377.024 75.3444 377.16 75.3738 377.284 75.4183C377.42 75.4667 377.563 75.5305 377.713 75.6096C377.878 75.6815 378.024 75.7719 378.151 75.8809C378.383 76.0528 378.554 76.2861 378.665 76.5808C378.788 76.8794 378.773 77.2435 378.619 77.6729C378.579 77.7859 378.523 77.9062 378.452 78.0337C378.385 78.1499 378.301 78.2601 378.2 78.3642C377.92 78.6847 377.567 78.9599 377.141 79.1899C376.726 79.424 376.33 79.5503 375.954 79.5688C375.848 79.5817 375.745 79.5833 375.647 79.5736C375.564 79.5567 375.477 79.532 375.386 79.4997C375.149 79.415 374.946 79.3044 374.779 79.1679C374.622 79.0355 374.485 78.8846 374.367 78.715L374.274 78.5479L374.128 78.6872C373.973 78.8736 373.851 79.0343 373.765 79.1691C373.69 79.3079 373.64 79.4112 373.616 79.479C373.568 79.6146 373.523 79.7579 373.482 79.9088C373.445 80.0485 373.438 80.1736 373.462 80.2842C373.487 80.3568 373.528 80.4222 373.583 80.4803C373.65 80.5425 373.74 80.5938 373.853 80.6341C373.921 80.6584 373.983 80.6806 374.04 80.7008C374.112 80.7137 374.172 80.7226 374.221 80.7274C374.441 80.7549 374.631 80.74 374.792 80.6827C374.968 80.6181 375.143 80.5725 375.318 80.5459L375.398 80.5362L375.4 80.4793C375.628 80.4462 375.78 80.4305 375.856 80.4321C375.936 80.4224 375.997 80.4123 376.039 80.4018C376.1 80.3728 376.159 80.3684 376.216 80.3885C376.382 80.4225 376.518 80.5222 376.625 80.6877C376.747 80.8459 376.779 81.0041 376.723 81.1623C376.699 81.2301 376.61 81.3193 376.455 81.4299C376.312 81.5445 376.141 81.649 375.942 81.7434C375.758 81.8306 375.578 81.8875 375.403 81.9141C375.365 81.9133 375.325 81.9181 375.283 81.9286C375.245 81.9278 375.205 81.9326 375.163 81.9431L375.18 81.9492C375.03 82.0485 374.904 82.0799 374.803 82.0436L374.667 81.9952C374.593 82.0581 374.416 82.0904 374.135 82.092C373.85 82.1049 373.589 82.0689 373.352 81.9842ZM375.693 78.2139C375.794 78.2502 375.891 78.2656 375.982 78.2599C376.085 78.2583 376.184 78.249 376.279 78.2321C376.619 78.1369 376.883 77.9508 377.071 77.674C377.259 77.3971 377.313 77.1554 377.234 76.9487C377.224 76.9067 377.204 76.874 377.174 76.8506C377.148 76.8159 377.112 76.7905 377.067 76.7743C376.943 76.7299 376.787 76.719 376.601 76.7416C376.426 76.7682 376.239 76.8288 376.039 76.9232C375.84 77.0176 375.642 77.1443 375.445 77.3033L375.097 77.5806C375.124 77.5774 375.143 77.5778 375.154 77.5818C375.181 77.5786 375.2 77.579 375.211 77.583C375.313 77.6193 375.368 77.6775 375.378 77.7574C375.388 77.8373 375.403 77.9192 375.424 78.0032C375.456 78.0912 375.546 78.1614 375.693 78.2139ZM382.281 84.8108C382.108 84.7616 381.947 84.7107 381.801 84.6582C381.665 84.6098 381.566 84.5488 381.503 84.4754C381.36 84.2332 381.273 84.0492 381.241 83.9232C381.221 83.8013 381.233 83.6782 381.278 83.5539C381.345 83.3998 381.408 83.2436 381.464 83.0854C381.525 82.9159 381.571 82.7859 381.603 82.6955C381.574 82.6342 381.466 82.6527 381.278 82.7512C381.09 82.8496 380.881 82.9344 380.652 83.0054C380.16 83.2758 379.746 83.4529 379.41 83.5368C379.079 83.6094 378.796 83.6167 378.562 83.5586C378.324 83.5117 378.096 83.4366 377.878 83.3333C377.682 83.238 377.538 83.0717 377.444 82.8344C377.362 82.6011 377.328 82.3404 377.341 82.0522C377.366 81.7681 377.435 81.5057 377.546 81.2652C377.768 80.8221 378.019 80.4403 378.299 80.1198C378.583 79.7881 378.947 79.4656 379.39 79.1525C379.59 79.0201 379.842 78.8869 380.145 78.753C380.459 78.623 380.784 78.5161 381.119 78.4322C381.459 78.337 381.751 78.2882 381.994 78.2858C382.374 78.2559 382.669 78.285 382.88 78.373C383.102 78.4651 383.31 78.5777 383.505 78.7109C383.635 78.8465 383.745 78.9305 383.835 78.9628C383.937 78.9991 384.031 78.9688 384.116 78.872C384.216 78.8058 384.307 78.7109 384.39 78.5875C384.472 78.464 384.575 78.3542 384.699 78.2581L385.465 77.2896C385.698 77.0288 385.97 76.731 386.281 76.396C386.592 76.0611 386.942 75.689 387.33 75.2798C387.747 74.9319 388.05 74.779 388.239 74.8209C388.439 74.867 388.601 75.0393 388.724 75.338C388.811 75.5221 388.824 75.7178 388.762 75.9252C388.716 76.1254 388.585 76.3333 388.367 76.5488C388.244 76.6448 388.103 76.7728 387.944 76.9326C387.789 77.0811 387.605 77.2574 387.391 77.4617C387.162 77.7111 386.927 77.9584 386.687 78.2038C386.457 78.4532 386.212 78.7289 385.952 79.0307C385.842 79.1954 385.705 79.3823 385.541 79.5913C385.389 79.8044 385.255 79.9989 385.142 80.1749C385.043 80.3436 384.943 80.499 384.841 80.641C384.755 80.7758 384.689 80.8351 384.644 80.819C384.525 80.8658 384.38 81.005 384.208 81.2367C384.04 81.457 383.877 81.6984 383.72 81.9607C383.574 82.2271 383.451 82.4446 383.353 82.6133C383.282 82.7408 383.196 82.9269 383.096 83.1715C383 83.4048 382.912 83.6344 382.831 83.8604C382.754 84.0751 382.702 84.222 382.674 84.3011C382.597 84.5158 382.525 84.6623 382.459 84.7406C382.408 84.8117 382.349 84.8351 382.281 84.8108ZM378.929 82.1032C379.189 82.196 379.47 82.1755 379.773 82.0415C380.091 81.9003 380.435 81.7558 380.807 81.6081C381.037 81.4992 381.279 81.3753 381.532 81.2365C381.79 81.0863 382.028 80.9358 382.248 80.7849C382.479 80.638 382.665 80.5073 382.808 80.3926C382.951 80.278 383.031 80.1981 383.047 80.1529C383.067 80.0964 383.04 80.0294 382.966 79.9519C382.903 79.8785 382.819 79.8102 382.714 79.7473C382.613 79.673 382.513 79.631 382.415 79.6213C382.115 79.6035 381.853 79.6435 381.627 79.7411C381.412 79.8428 381.091 80.0087 380.665 80.2387C380.227 80.5026 379.857 80.7718 379.555 81.0462C379.253 81.3206 379.041 81.5571 378.919 81.7557C378.812 81.947 378.816 82.0628 378.929 82.1032Z" fill="#FC4F24"/>
<defs>
<filter id="filter0_d_2214_745" x="0" y="49" width="352" height="77" filterUnits="userSpaceOnUse" color-interpolation-filters="sRGB">
<feFlood flood-opacity="0" result="BackgroundImageFix"/>
<feColorMatrix in="SourceAlpha" type="matrix" values="0 0 0 0 0 0 0 0 0 0 0 0 0 0 0 0 0 0 127 0" result="hardAlpha"/>
<feOffset dx="4" dy="4"/>
<feComposite in2="hardAlpha" operator="out"/>
<feColorMatrix type="matrix" values="0 0 0 0 0 0 0 0 0 0.470588 0 0 0 0 0.831373 0 0 0 1 0"/>
<feBlend mode="normal" in2="BackgroundImageFix" result="effect1_dropShadow_2214_745"/>
<feBlend mode="normal" in="SourceGraphic" in2="effect1_dropShadow_2214_745" result="shape"/>
</filter>
</defs>
</svg>
