<svg width="344" height="286" viewBox="0 0 344 286" fill="none" xmlns="http://www.w3.org/2000/svg">
<path d="M-0.158203 0H288.842C302.097 0 312.842 10.7452 312.842 24V274C312.842 287.255 302.097 298 288.842 298H-0.158203V0Z" fill="white"/>
<rect x="31.8418" y="20" width="187.879" height="206.797" rx="12" fill="#F8F8F8"/>
<path d="M52.5838 44.1718C52.4684 44.1268 52.3426 44.1154 52.2209 44.1389C52.0992 44.1624 51.9867 44.2198 51.8963 44.3046L45.6463 50.5546C45.529 50.6731 45.4631 50.8332 45.4631 50.9999C45.4631 51.1667 45.529 51.3268 45.6463 51.4453L51.8963 57.6953C52.0163 57.8099 52.1757 57.8742 52.3417 57.8749C52.4246 57.8746 52.5067 57.8587 52.5838 57.8281C52.6976 57.7803 52.7946 57.6998 52.8628 57.597C52.9309 57.4941 52.967 57.3733 52.9667 57.2499V44.7499C52.967 44.6265 52.9309 44.5058 52.8628 44.4029C52.7946 44.3 52.6976 44.2196 52.5838 44.1718Z" fill="black" fill-opacity="0.24"/>
<path d="M84.8378 42V34.08H86.8418L89.3378 40.572H89.3978L91.8698 34.08H93.7898V42H92.5418L92.6378 35.4H92.5298L89.9018 42H88.7018L86.0978 35.4H85.9898L86.0738 42H84.8378ZM98.4231 42.156C97.8151 42.156 97.2791 42.028 96.8151 41.772C96.3591 41.516 95.9991 41.144 95.7351 40.656C95.4791 40.16 95.3511 39.56 95.3511 38.856C95.3511 38.128 95.4831 37.524 95.7471 37.044C96.0191 36.564 96.3871 36.204 96.8511 35.964C97.3151 35.724 97.8351 35.604 98.4111 35.604C99.0031 35.604 99.5311 35.728 99.9951 35.976C100.459 36.224 100.823 36.592 101.087 37.08C101.359 37.568 101.495 38.172 101.495 38.892C101.495 39.62 101.359 40.228 101.087 40.716C100.823 41.196 100.459 41.556 99.9951 41.796C99.5311 42.036 99.0071 42.156 98.4231 42.156ZM98.4711 41.124C98.8311 41.124 99.1391 41.04 99.3951 40.872C99.6511 40.696 99.8471 40.444 99.9831 40.116C100.119 39.788 100.187 39.4 100.187 38.952C100.187 38.48 100.115 38.076 99.9711 37.74C99.8271 37.396 99.6191 37.132 99.3471 36.948C99.0831 36.756 98.7591 36.66 98.3751 36.66C98.0231 36.66 97.7191 36.744 97.4631 36.912C97.2071 37.08 97.0071 37.324 96.8631 37.644C96.7271 37.964 96.6591 38.36 96.6591 38.832C96.6591 39.56 96.8191 40.124 97.1391 40.524C97.4671 40.924 97.9111 41.124 98.4711 41.124ZM102.965 42V38.136V35.76H104.093L104.021 37.68H104.225C104.337 37.208 104.489 36.82 104.681 36.516C104.873 36.204 105.113 35.976 105.401 35.832C105.689 35.68 106.029 35.604 106.421 35.604C107.117 35.604 107.645 35.852 108.005 36.348C108.373 36.844 108.557 37.6 108.557 38.616V42H107.249V38.748C107.249 38.052 107.141 37.544 106.925 37.224C106.717 36.896 106.405 36.732 105.989 36.732C105.629 36.732 105.321 36.844 105.065 37.068C104.817 37.292 104.625 37.588 104.489 37.956C104.353 38.324 104.277 38.72 104.261 39.144V42H102.965Z" fill="black" fill-opacity="0.64"/>
<path d="M86.3618 66V56.96H84.4418V54.44C85.0685 54.44 85.5818 54.3333 85.9818 54.12C86.3818 53.8933 86.6418 53.4533 86.7618 52.8H89.2618V66H86.3618ZM91.5373 66V63.06L96.6373 59.68C96.8773 59.52 97.1173 59.34 97.3573 59.14C97.6106 58.94 97.8373 58.7133 98.0373 58.46C98.2506 58.2067 98.4173 57.9333 98.5373 57.64C98.6706 57.3333 98.7373 57.0067 98.7373 56.66C98.7373 56.3 98.6506 55.9867 98.4773 55.72C98.3173 55.4533 98.0839 55.2533 97.7773 55.12C97.4706 54.9733 97.0906 54.9 96.6373 54.9C96.1839 54.9 95.8039 54.9733 95.4973 55.12C95.2039 55.2533 94.9706 55.4533 94.7973 55.72C94.6239 55.9733 94.4973 56.28 94.4173 56.64C94.3506 57 94.3173 57.3933 94.3173 57.82L91.5573 57.28C91.5306 56.2933 91.7106 55.44 92.0973 54.72C92.4973 54 93.0839 53.4467 93.8573 53.06C94.6439 52.6733 95.5906 52.48 96.6973 52.48C97.6573 52.48 98.5039 52.6333 99.2373 52.94C99.9839 53.2467 100.564 53.6933 100.977 54.28C101.391 54.8667 101.597 55.5933 101.597 56.46C101.597 57.1133 101.484 57.7067 101.257 58.24C101.044 58.7733 100.757 59.2533 100.397 59.68C100.051 60.0933 99.6639 60.46 99.2373 60.78C98.8239 61.1 98.4173 61.38 98.0173 61.62L94.8773 63.58V63.74L101.797 63.64V66H91.5373Z" fill="black"/>
<rect x="133.842" y="28" width="57" height="46" rx="6" fill="white"/>
<path d="M152.506 43V35.08H153.826V43H152.506ZM150.118 36.196V35.08H156.214V36.196H150.118ZM159.145 43.156C158.441 43.156 157.909 42.916 157.549 42.436C157.189 41.948 157.009 41.216 157.009 40.24V36.76H158.317V40.096C158.317 40.752 158.417 41.24 158.617 41.56C158.817 41.88 159.133 42.04 159.565 42.04C159.805 42.04 160.017 41.98 160.201 41.86C160.385 41.74 160.545 41.572 160.681 41.356C160.825 41.14 160.937 40.888 161.017 40.6C161.105 40.304 161.165 39.984 161.197 39.64V36.76H162.493V40.42V43H161.389L161.449 41.032H161.245C161.141 41.52 160.993 41.924 160.801 42.244C160.617 42.556 160.385 42.788 160.105 42.94C159.833 43.084 159.513 43.156 159.145 43.156ZM167.06 43.156C166.564 43.156 166.124 43.084 165.74 42.94C165.356 42.788 165.032 42.576 164.768 42.304C164.504 42.024 164.304 41.692 164.168 41.308C164.032 40.916 163.964 40.476 163.964 39.988C163.964 39.492 164.028 39.04 164.156 38.632C164.292 38.216 164.488 37.856 164.744 37.552C165 37.248 165.312 37.016 165.68 36.856C166.056 36.688 166.48 36.604 166.952 36.604C167.384 36.604 167.772 36.676 168.116 36.82C168.468 36.964 168.764 37.184 169.004 37.48C169.252 37.768 169.436 38.132 169.556 38.572C169.676 39.004 169.72 39.512 169.688 40.096L164.792 40.132V39.316L168.92 39.28L168.464 39.784C168.512 39.304 168.472 38.908 168.344 38.596C168.216 38.284 168.032 38.052 167.792 37.9C167.552 37.74 167.276 37.66 166.964 37.66C166.612 37.66 166.304 37.752 166.04 37.936C165.784 38.12 165.584 38.384 165.44 38.728C165.296 39.064 165.224 39.476 165.224 39.964C165.224 40.684 165.384 41.228 165.704 41.596C166.024 41.956 166.48 42.136 167.072 42.136C167.312 42.136 167.52 42.108 167.696 42.052C167.872 41.988 168.02 41.908 168.14 41.812C168.268 41.708 168.368 41.588 168.44 41.452C168.52 41.316 168.584 41.172 168.632 41.02L169.772 41.284C169.692 41.572 169.58 41.832 169.436 42.064C169.292 42.296 169.108 42.492 168.884 42.652C168.66 42.812 168.396 42.936 168.092 43.024C167.796 43.112 167.452 43.156 167.06 43.156Z" fill="black" fill-opacity="0.64"/>
<path d="M150.682 65V62.06L155.782 58.68C156.022 58.52 156.262 58.34 156.502 58.14C156.755 57.94 156.982 57.7133 157.182 57.46C157.395 57.2067 157.562 56.9333 157.682 56.64C157.815 56.3333 157.882 56.0067 157.882 55.66C157.882 55.3 157.795 54.9867 157.622 54.72C157.462 54.4533 157.228 54.2533 156.922 54.12C156.615 53.9733 156.235 53.9 155.782 53.9C155.328 53.9 154.948 53.9733 154.642 54.12C154.348 54.2533 154.115 54.4533 153.942 54.72C153.768 54.9733 153.642 55.28 153.562 55.64C153.495 56 153.462 56.3933 153.462 56.82L150.702 56.28C150.675 55.2933 150.855 54.44 151.242 53.72C151.642 53 152.228 52.4467 153.002 52.06C153.788 51.6733 154.735 51.48 155.842 51.48C156.802 51.48 157.648 51.6333 158.382 51.94C159.128 52.2467 159.708 52.6933 160.122 53.28C160.535 53.8667 160.742 54.5933 160.742 55.46C160.742 56.1133 160.628 56.7067 160.402 57.24C160.188 57.7733 159.902 58.2533 159.542 58.68C159.195 59.0933 158.808 59.46 158.382 59.78C157.968 60.1 157.562 60.38 157.162 60.62L154.022 62.58V62.74L160.942 62.64V65H150.682ZM167.614 65.28C166.747 65.28 165.987 65.1933 165.334 65.02C164.694 64.8467 164.154 64.5933 163.714 64.26C163.287 63.9267 162.954 63.52 162.714 63.04C162.487 62.56 162.347 62.02 162.294 61.42L164.914 60.64C164.94 61.04 165.02 61.3933 165.154 61.7C165.3 61.9933 165.494 62.2467 165.734 62.46C165.974 62.66 166.26 62.8067 166.594 62.9C166.927 62.9933 167.287 63.04 167.674 63.04C168.18 63.04 168.627 62.9667 169.014 62.82C169.4 62.6733 169.707 62.4533 169.934 62.16C170.16 61.8533 170.274 61.4667 170.274 61C170.274 60.4 170.074 59.92 169.674 59.56C169.274 59.1867 168.68 58.9333 167.894 58.8C167.107 58.6533 166.12 58.6333 164.934 58.74V57.1L169.354 54.24V54.06L162.954 54.12V51.78H172.294V54.44L168.114 57.28V57.46C169.367 57.3933 170.36 57.5267 171.094 57.86C171.827 58.18 172.347 58.6267 172.654 59.2C172.974 59.7733 173.134 60.4 173.134 61.08C173.134 61.9467 172.934 62.6933 172.534 63.32C172.134 63.9467 171.527 64.4333 170.714 64.78C169.9 65.1133 168.867 65.28 167.614 65.28Z" fill="black"/>
<path d="M217.134 42L215.214 34.08H216.63L218.082 40.836H218.202L219.75 34.08H221.478L223.014 40.836H223.134L224.61 34.08H225.978L224.022 42H222.162L220.662 35.232H220.554L219.03 42H217.134ZM229.67 42.156C229.174 42.156 228.734 42.084 228.35 41.94C227.966 41.788 227.642 41.576 227.378 41.304C227.114 41.024 226.914 40.692 226.778 40.308C226.642 39.916 226.574 39.476 226.574 38.988C226.574 38.492 226.638 38.04 226.766 37.632C226.902 37.216 227.098 36.856 227.354 36.552C227.61 36.248 227.922 36.016 228.29 35.856C228.666 35.688 229.09 35.604 229.562 35.604C229.994 35.604 230.382 35.676 230.726 35.82C231.078 35.964 231.374 36.184 231.614 36.48C231.862 36.768 232.046 37.132 232.166 37.572C232.286 38.004 232.33 38.512 232.298 39.096L227.402 39.132V38.316L231.53 38.28L231.074 38.784C231.122 38.304 231.082 37.908 230.954 37.596C230.826 37.284 230.642 37.052 230.402 36.9C230.162 36.74 229.886 36.66 229.574 36.66C229.222 36.66 228.914 36.752 228.65 36.936C228.394 37.12 228.194 37.384 228.05 37.728C227.906 38.064 227.834 38.476 227.834 38.964C227.834 39.684 227.994 40.228 228.314 40.596C228.634 40.956 229.09 41.136 229.682 41.136C229.922 41.136 230.13 41.108 230.306 41.052C230.482 40.988 230.63 40.908 230.75 40.812C230.878 40.708 230.978 40.588 231.05 40.452C231.13 40.316 231.194 40.172 231.242 40.02L232.382 40.284C232.302 40.572 232.19 40.832 232.046 41.064C231.902 41.296 231.718 41.492 231.494 41.652C231.27 41.812 231.006 41.936 230.702 42.024C230.406 42.112 230.062 42.156 229.67 42.156ZM236.056 42.156C235.52 42.156 235.06 42.02 234.676 41.748C234.3 41.468 234.008 41.084 233.8 40.596C233.6 40.1 233.5 39.528 233.5 38.88C233.5 38.248 233.596 37.688 233.788 37.2C233.98 36.704 234.26 36.316 234.628 36.036C235.004 35.756 235.464 35.616 236.008 35.616C236.44 35.616 236.796 35.704 237.076 35.88C237.356 36.048 237.58 36.28 237.748 36.576C237.924 36.864 238.056 37.188 238.144 37.548H238.384C238.344 37.316 238.304 37.076 238.264 36.828C238.224 36.572 238.192 36.328 238.168 36.096C238.144 35.856 238.132 35.644 238.132 35.46V33.528H239.452V38.916V42H238.312L238.36 40.284H238.144C238.048 40.668 237.912 41 237.736 41.28C237.56 41.56 237.332 41.776 237.052 41.928C236.78 42.08 236.448 42.156 236.056 42.156ZM236.416 41.052C236.696 41.052 236.944 40.988 237.16 40.86C237.376 40.724 237.556 40.556 237.7 40.356C237.844 40.148 237.952 39.924 238.024 39.684C238.104 39.436 238.144 39.204 238.144 38.988V38.808C238.144 38.648 238.12 38.476 238.072 38.292C238.032 38.1 237.964 37.912 237.868 37.728C237.78 37.544 237.668 37.376 237.532 37.224C237.396 37.064 237.232 36.94 237.04 36.852C236.856 36.756 236.648 36.708 236.416 36.708C236.08 36.708 235.796 36.804 235.564 36.996C235.34 37.188 235.168 37.448 235.048 37.776C234.928 38.104 234.868 38.48 234.868 38.904C234.868 39.336 234.928 39.712 235.048 40.032C235.176 40.352 235.356 40.604 235.588 40.788C235.82 40.964 236.096 41.052 236.416 41.052Z" fill="black" fill-opacity="0.64"/>
<path d="M220.602 66.28C219.735 66.28 218.975 66.1933 218.322 66.02C217.682 65.8467 217.142 65.5933 216.702 65.26C216.275 64.9267 215.942 64.52 215.702 64.04C215.475 63.56 215.335 63.02 215.282 62.42L217.902 61.64C217.928 62.04 218.008 62.3933 218.142 62.7C218.288 62.9933 218.482 63.2467 218.722 63.46C218.962 63.66 219.248 63.8067 219.582 63.9C219.915 63.9933 220.275 64.04 220.662 64.04C221.168 64.04 221.615 63.9667 222.002 63.82C222.388 63.6733 222.695 63.4533 222.922 63.16C223.148 62.8533 223.262 62.4667 223.262 62C223.262 61.4 223.062 60.92 222.662 60.56C222.262 60.1867 221.668 59.9333 220.882 59.8C220.095 59.6533 219.108 59.6333 217.922 59.74V58.1L222.342 55.24V55.06L215.942 55.12V52.78H225.282V55.44L221.102 58.28V58.46C222.355 58.3933 223.348 58.5267 224.082 58.86C224.815 59.18 225.335 59.6267 225.642 60.2C225.962 60.7733 226.122 61.4 226.122 62.08C226.122 62.9467 225.922 63.6933 225.522 64.32C225.122 64.9467 224.515 65.4333 223.702 65.78C222.888 66.1133 221.855 66.28 220.602 66.28ZM229.237 66V56.96H227.317V54.44C227.943 54.44 228.457 54.3333 228.857 54.12C229.257 53.8933 229.517 53.4533 229.637 52.8H232.137V66H229.237Z" fill="black"/>
<path d="M272.1 44.1718C272.215 44.1268 272.341 44.1154 272.463 44.1389C272.584 44.1624 272.697 44.2198 272.787 44.3046L279.037 50.5546C279.155 50.6731 279.22 50.8332 279.22 50.9999C279.22 51.1667 279.155 51.3268 279.037 51.4453L272.787 57.6953C272.667 57.8099 272.508 57.8742 272.342 57.8749C272.259 57.8746 272.177 57.8587 272.1 57.8281C271.986 57.7803 271.889 57.6998 271.821 57.597C271.753 57.4941 271.717 57.3733 271.717 57.2499V44.7499C271.717 44.6265 271.753 44.5058 271.821 44.4029C271.889 44.3 271.986 44.2196 272.1 44.1718Z" fill="black"/>
<g filter="url(#filter0_d_2214_281)">
<rect x="31.8418" y="98" width="256" height="168" rx="12" fill="white"/>
<rect x="60.8418" y="149" width="198" height="40" rx="7" stroke="#E4E4E4" stroke-width="2"/>
<rect x="61.8418" y="133" width="188" height="72" rx="12" fill="#FC4F24"/>
<rect x="60.8418" y="132" width="190" height="74" rx="13" stroke="#E4E4E4" stroke-width="2"/>
<rect x="236.842" y="150" width="21" height="38" rx="6" fill="#FC4F24"/>
<rect x="61.8418" y="133" width="180" height="72" rx="12" fill="#FFD15A"/>
<rect x="62.1426" y="133" width="162" height="72" rx="12" fill="#F3B0FF"/>
<rect x="62.1426" y="133" width="131" height="72" rx="12" fill="#14501A"/>
<path d="M62.143 173.999L87.6426 205" stroke="#256A2C"/>
<path d="M155.644 205.001L95.1426 133" stroke="#256A2C"/>
<path d="M133.144 205.001L72.1438 133.001" stroke="#256A2C"/>
<path d="M139.643 133L170.014 169.321L192.643 196.5" stroke="#256A2C"/>
<path d="M162.143 133L193.143 170" stroke="#256A2C"/>
<path d="M62.1417 148L80.2098 169.32L110.143 204.998" stroke="#256A2C"/>
<path d="M178.142 204.999L117.642 133" stroke="#256A2C"/>
<circle cx="64.3418" cy="226.5" r="2.5" fill="#14501A"/>
<path d="M73.3688 228.091C73.1075 228.091 72.8695 228.063 72.6548 228.007C72.4448 227.951 72.2605 227.872 72.1018 227.769C71.9431 227.662 71.8101 227.533 71.7028 227.384C71.6001 227.23 71.5208 227.057 71.4648 226.866C71.4135 226.67 71.3878 226.455 71.3878 226.222V223.38H72.1578V226.194C72.1578 226.465 72.2021 226.689 72.2908 226.866C72.3841 227.043 72.5195 227.176 72.6968 227.265C72.8788 227.354 73.1028 227.398 73.3688 227.398C73.6395 227.398 73.8635 227.356 74.0408 227.272C74.2228 227.183 74.3581 227.05 74.4468 226.873C74.5355 226.691 74.5798 226.465 74.5798 226.194V223.38H75.3428V226.222C75.3428 226.815 75.1748 227.274 74.8388 227.601C74.5075 227.928 74.0175 228.091 73.3688 228.091ZM76.3845 229.148V226.201V224.36H77.0425L77.0215 225.312L77.1335 225.319C77.1849 225.104 77.2619 224.918 77.3645 224.759C77.4672 224.6 77.5979 224.479 77.7565 224.395C77.9199 224.311 78.1135 224.269 78.3375 224.269C78.6689 224.269 78.9465 224.351 79.1705 224.514C79.3945 224.677 79.5649 224.904 79.6815 225.193C79.7982 225.482 79.8565 225.814 79.8565 226.187C79.8565 226.551 79.8005 226.878 79.6885 227.167C79.5765 227.452 79.4109 227.678 79.1915 227.846C78.9769 228.009 78.7085 228.091 78.3865 228.091C78.1392 228.091 77.9339 228.042 77.7705 227.944C77.6072 227.841 77.4742 227.708 77.3715 227.545C77.2735 227.377 77.1942 227.193 77.1335 226.992H77.0075C77.0355 227.118 77.0589 227.249 77.0775 227.384C77.0962 227.515 77.1125 227.645 77.1265 227.776C77.1405 227.907 77.1475 228.03 77.1475 228.147V229.148H76.3845ZM78.1625 227.454C78.3539 227.454 78.5149 227.4 78.6455 227.293C78.7809 227.181 78.8835 227.029 78.9535 226.838C79.0235 226.642 79.0585 226.423 79.0585 226.18C79.0585 225.919 79.0212 225.695 78.9465 225.508C78.8765 225.321 78.7739 225.177 78.6385 225.074C78.5032 224.971 78.3422 224.92 78.1555 224.92C77.9922 224.92 77.8475 224.957 77.7215 225.032C77.5955 225.102 77.4882 225.198 77.3995 225.319C77.3155 225.44 77.2502 225.573 77.2035 225.718C77.1615 225.858 77.1405 225.996 77.1405 226.131V226.236C77.1405 226.329 77.1545 226.43 77.1825 226.537C77.2105 226.644 77.2502 226.752 77.3015 226.859C77.3575 226.966 77.4252 227.067 77.5045 227.16C77.5885 227.249 77.6842 227.321 77.7915 227.377C77.9035 227.428 78.0272 227.454 78.1625 227.454ZM80.7254 228V223.058H81.4744V228H80.7254ZM84.1259 228.091C83.7712 228.091 83.4585 228.016 83.1879 227.867C82.9219 227.718 82.7119 227.501 82.5579 227.216C82.4085 226.927 82.3339 226.577 82.3339 226.166C82.3339 225.741 82.4109 225.389 82.5649 225.109C82.7235 224.829 82.9382 224.619 83.2089 224.479C83.4795 224.339 83.7829 224.269 84.1189 224.269C84.4642 224.269 84.7722 224.341 85.0429 224.486C85.3135 224.631 85.5259 224.845 85.6799 225.13C85.8385 225.415 85.9179 225.767 85.9179 226.187C85.9179 226.612 85.8385 226.966 85.6799 227.251C85.5259 227.531 85.3135 227.741 85.0429 227.881C84.7722 228.021 84.4665 228.091 84.1259 228.091ZM84.1539 227.489C84.3639 227.489 84.5435 227.44 84.6929 227.342C84.8422 227.239 84.9565 227.092 85.0359 226.901C85.1152 226.71 85.1549 226.483 85.1549 226.222C85.1549 225.947 85.1129 225.711 85.0289 225.515C84.9449 225.314 84.8235 225.16 84.6649 225.053C84.5109 224.941 84.3219 224.885 84.0979 224.885C83.8925 224.885 83.7152 224.934 83.5659 225.032C83.4165 225.13 83.2999 225.272 83.2159 225.459C83.1365 225.646 83.0969 225.877 83.0969 226.152C83.0969 226.577 83.1902 226.906 83.3769 227.139C83.5682 227.372 83.8272 227.489 84.1539 227.489ZM87.6152 228.091C87.4145 228.091 87.2348 228.054 87.0762 227.979C86.9175 227.9 86.7915 227.783 86.6982 227.629C86.6095 227.475 86.5652 227.284 86.5652 227.055C86.5652 226.873 86.5978 226.717 86.6632 226.586C86.7285 226.451 86.8312 226.339 86.9712 226.25C87.1112 226.157 87.2885 226.08 87.5032 226.019C87.7178 225.958 87.9722 225.909 88.2662 225.872C88.4295 225.849 88.5625 225.825 88.6652 225.802C88.7725 225.779 88.8495 225.741 88.8962 225.69C88.9475 225.639 88.9732 225.559 88.9732 225.452C88.9732 225.293 88.9172 225.158 88.8052 225.046C88.6978 224.934 88.5228 224.878 88.2802 224.878C88.1448 224.878 88.0095 224.901 87.8742 224.948C87.7435 224.995 87.6292 225.072 87.5312 225.179C87.4378 225.282 87.3748 225.422 87.3422 225.599L86.6562 225.375C86.6982 225.198 86.7658 225.041 86.8592 224.906C86.9525 224.771 87.0668 224.656 87.2022 224.563C87.3422 224.465 87.5032 224.393 87.6852 224.346C87.8718 224.295 88.0772 224.269 88.3012 224.269C88.6232 224.269 88.8892 224.323 89.0992 224.43C89.3092 224.533 89.4655 224.696 89.5682 224.92C89.6755 225.139 89.7292 225.424 89.7292 225.774V226.516C89.7292 226.67 89.7315 226.833 89.7362 227.006C89.7455 227.174 89.7548 227.344 89.7642 227.517C89.7782 227.685 89.7945 227.846 89.8132 228H89.1202C89.1062 227.86 89.0922 227.718 89.0782 227.573C89.0642 227.424 89.0548 227.272 89.0502 227.118H88.9452C88.8752 227.291 88.7795 227.452 88.6582 227.601C88.5415 227.75 88.3968 227.869 88.2242 227.958C88.0515 228.047 87.8485 228.091 87.6152 228.091ZM87.8812 227.503C87.9792 227.503 88.0772 227.487 88.1752 227.454C88.2778 227.421 88.3782 227.372 88.4762 227.307C88.5742 227.237 88.6675 227.151 88.7562 227.048C88.8448 226.941 88.9218 226.812 88.9872 226.663L88.9802 225.991L89.1622 226.026C89.0828 226.096 88.9825 226.15 88.8612 226.187C88.7398 226.224 88.6092 226.255 88.4692 226.278C88.3338 226.297 88.1962 226.32 88.0562 226.348C87.9162 226.371 87.7902 226.406 87.6782 226.453C87.5662 226.495 87.4752 226.558 87.4052 226.642C87.3398 226.721 87.3072 226.831 87.3072 226.971C87.3072 227.144 87.3608 227.277 87.4682 227.37C87.5755 227.459 87.7132 227.503 87.8812 227.503ZM92.0692 228.091C91.7565 228.091 91.4882 228.012 91.2642 227.853C91.0449 227.69 90.8745 227.466 90.7532 227.181C90.6365 226.892 90.5782 226.558 90.5782 226.18C90.5782 225.811 90.6342 225.485 90.7462 225.2C90.8582 224.911 91.0215 224.684 91.2362 224.521C91.4555 224.358 91.7239 224.276 92.0412 224.276C92.2932 224.276 92.5009 224.327 92.6642 224.43C92.8275 224.528 92.9582 224.663 93.0562 224.836C93.1589 225.004 93.2359 225.193 93.2872 225.403H93.4272C93.4039 225.268 93.3805 225.128 93.3572 224.983C93.3339 224.834 93.3152 224.691 93.3012 224.556C93.2872 224.416 93.2802 224.292 93.2802 224.185V223.058H94.0502V226.201V228H93.3852L93.4132 226.999H93.2872C93.2312 227.223 93.1519 227.417 93.0492 227.58C92.9465 227.743 92.8135 227.869 92.6502 227.958C92.4915 228.047 92.2979 228.091 92.0692 228.091ZM92.2792 227.447C92.4425 227.447 92.5872 227.41 92.7132 227.335C92.8392 227.256 92.9442 227.158 93.0282 227.041C93.1122 226.92 93.1752 226.789 93.2172 226.649C93.2639 226.504 93.2872 226.369 93.2872 226.243V226.138C93.2872 226.045 93.2732 225.944 93.2452 225.837C93.2219 225.725 93.1822 225.615 93.1262 225.508C93.0749 225.401 93.0095 225.303 92.9302 225.214C92.8509 225.121 92.7552 225.048 92.6432 224.997C92.5359 224.941 92.4145 224.913 92.2792 224.913C92.0832 224.913 91.9175 224.969 91.7822 225.081C91.6515 225.193 91.5512 225.345 91.4812 225.536C91.4112 225.727 91.3762 225.947 91.3762 226.194C91.3762 226.446 91.4112 226.665 91.4812 226.852C91.5559 227.039 91.6609 227.186 91.7962 227.293C91.9315 227.396 92.0925 227.447 92.2792 227.447ZM96.7112 228.091C96.4218 228.091 96.1652 228.049 95.9412 227.965C95.7172 227.876 95.5282 227.753 95.3742 227.594C95.2202 227.431 95.1035 227.237 95.0242 227.013C94.9448 226.784 94.9052 226.528 94.9052 226.243C94.9052 225.954 94.9425 225.69 95.0172 225.452C95.0965 225.209 95.2108 224.999 95.3602 224.822C95.5095 224.645 95.6915 224.509 95.9062 224.416C96.1255 224.318 96.3728 224.269 96.6482 224.269C96.9002 224.269 97.1265 224.311 97.3272 224.395C97.5325 224.479 97.7052 224.607 97.8452 224.78C97.9898 224.948 98.0972 225.16 98.1672 225.417C98.2372 225.669 98.2628 225.965 98.2442 226.306L95.3882 226.327V225.851L97.7962 225.83L97.5302 226.124C97.5582 225.844 97.5348 225.613 97.4602 225.431C97.3855 225.249 97.2782 225.114 97.1382 225.025C96.9982 224.932 96.8372 224.885 96.6552 224.885C96.4498 224.885 96.2702 224.939 96.1162 225.046C95.9668 225.153 95.8502 225.307 95.7662 225.508C95.6822 225.704 95.6402 225.944 95.6402 226.229C95.6402 226.649 95.7335 226.966 95.9202 227.181C96.1068 227.391 96.3728 227.496 96.7182 227.496C96.8582 227.496 96.9795 227.48 97.0822 227.447C97.1848 227.41 97.2712 227.363 97.3412 227.307C97.4158 227.246 97.4742 227.176 97.5162 227.097C97.5628 227.018 97.6002 226.934 97.6282 226.845L98.2932 226.999C98.2465 227.167 98.1812 227.319 98.0972 227.454C98.0132 227.589 97.9058 227.704 97.7752 227.797C97.6445 227.89 97.4905 227.963 97.3132 228.014C97.1405 228.065 96.9398 228.091 96.7112 228.091ZM100.436 228.091C100.124 228.091 99.8554 228.012 99.6314 227.853C99.412 227.69 99.2417 227.466 99.1204 227.181C99.0037 226.892 98.9454 226.558 98.9454 226.18C98.9454 225.811 99.0014 225.485 99.1134 225.2C99.2254 224.911 99.3887 224.684 99.6034 224.521C99.8227 224.358 100.091 224.276 100.408 224.276C100.66 224.276 100.868 224.327 101.031 224.43C101.195 224.528 101.325 224.663 101.423 224.836C101.526 225.004 101.603 225.193 101.654 225.403H101.794C101.771 225.268 101.748 225.128 101.724 224.983C101.701 224.834 101.682 224.691 101.668 224.556C101.654 224.416 101.647 224.292 101.647 224.185V223.058H102.417V226.201V228H101.752L101.78 226.999H101.654C101.598 227.223 101.519 227.417 101.416 227.58C101.314 227.743 101.181 227.869 101.017 227.958C100.859 228.047 100.665 228.091 100.436 228.091ZM100.646 227.447C100.81 227.447 100.954 227.41 101.08 227.335C101.206 227.256 101.311 227.158 101.395 227.041C101.479 226.92 101.542 226.789 101.584 226.649C101.631 226.504 101.654 226.369 101.654 226.243V226.138C101.654 226.045 101.64 225.944 101.612 225.837C101.589 225.725 101.549 225.615 101.493 225.508C101.442 225.401 101.377 225.303 101.297 225.214C101.218 225.121 101.122 225.048 101.01 224.997C100.903 224.941 100.782 224.913 100.646 224.913C100.45 224.913 100.285 224.969 100.149 225.081C100.019 225.193 99.9184 225.345 99.8484 225.536C99.7784 225.727 99.7434 225.947 99.7434 226.194C99.7434 226.446 99.7784 226.665 99.8484 226.852C99.923 227.039 100.028 227.186 100.163 227.293C100.299 227.396 100.46 227.447 100.646 227.447Z" fill="black"/>
<circle cx="118.342" cy="226.5" r="2.5" fill="#F3B0FF"/>
<path d="M125.885 226.621V225.998H126.998C127.404 225.998 127.709 225.919 127.915 225.76C128.12 225.601 128.223 225.34 128.223 224.976C128.223 224.649 128.127 224.404 127.936 224.241C127.744 224.078 127.453 223.996 127.061 223.996H125.885V223.38H127.075C127.378 223.38 127.649 223.415 127.887 223.485C128.125 223.555 128.325 223.658 128.489 223.793C128.657 223.928 128.783 224.099 128.867 224.304C128.955 224.505 129 224.738 129 225.004C129 225.354 128.918 225.65 128.755 225.893C128.596 226.131 128.36 226.313 128.048 226.439C127.74 226.56 127.357 226.621 126.9 226.621H125.885ZM125.423 228V223.38H126.186V228H125.423ZM129.769 228V226.096V224.36H130.427L130.392 225.606H130.518C130.56 225.326 130.626 225.088 130.714 224.892C130.803 224.691 130.924 224.537 131.078 224.43C131.232 224.323 131.421 224.269 131.645 224.269C131.692 224.269 131.743 224.274 131.799 224.283C131.855 224.288 131.921 224.299 131.995 224.318L131.96 225.123C131.89 225.095 131.818 225.074 131.743 225.06C131.669 225.046 131.599 225.039 131.533 225.039C131.351 225.039 131.193 225.093 131.057 225.2C130.927 225.303 130.817 225.447 130.728 225.634C130.644 225.816 130.579 226.026 130.532 226.264V228H129.769ZM134.202 228.091C133.847 228.091 133.535 228.016 133.264 227.867C132.998 227.718 132.788 227.501 132.634 227.216C132.485 226.927 132.41 226.577 132.41 226.166C132.41 225.741 132.487 225.389 132.641 225.109C132.8 224.829 133.014 224.619 133.285 224.479C133.556 224.339 133.859 224.269 134.195 224.269C134.54 224.269 134.848 224.341 135.119 224.486C135.39 224.631 135.602 224.845 135.756 225.13C135.915 225.415 135.994 225.767 135.994 226.187C135.994 226.612 135.915 226.966 135.756 227.251C135.602 227.531 135.39 227.741 135.119 227.881C134.848 228.021 134.543 228.091 134.202 228.091ZM134.23 227.489C134.44 227.489 134.62 227.44 134.769 227.342C134.918 227.239 135.033 227.092 135.112 226.901C135.191 226.71 135.231 226.483 135.231 226.222C135.231 225.947 135.189 225.711 135.105 225.515C135.021 225.314 134.9 225.16 134.741 225.053C134.587 224.941 134.398 224.885 134.174 224.885C133.969 224.885 133.791 224.934 133.642 225.032C133.493 225.13 133.376 225.272 133.292 225.459C133.213 225.646 133.173 225.877 133.173 226.152C133.173 226.577 133.266 226.906 133.453 227.139C133.644 227.372 133.903 227.489 134.23 227.489ZM138.237 229.246C137.845 229.246 137.523 229.216 137.271 229.155C137.024 229.099 136.84 229.01 136.718 228.889C136.602 228.768 136.543 228.616 136.543 228.434C136.543 228.219 136.627 228.044 136.795 227.909C136.963 227.769 137.218 227.68 137.558 227.643V227.503C137.306 227.508 137.117 227.482 136.991 227.426C136.865 227.365 136.802 227.272 136.802 227.146C136.802 227.015 136.865 226.906 136.991 226.817C137.122 226.724 137.332 226.642 137.621 226.572V226.432C137.337 226.423 137.117 226.336 136.963 226.173C136.809 226.005 136.732 225.788 136.732 225.522C136.732 225.284 136.795 225.076 136.921 224.899C137.052 224.722 137.241 224.584 137.488 224.486C137.74 224.383 138.044 224.332 138.398 224.332H140.155V224.948L139.028 224.78V224.92C139.308 224.971 139.518 225.06 139.658 225.186C139.798 225.312 139.868 225.48 139.868 225.69C139.868 225.886 139.808 226.059 139.686 226.208C139.57 226.357 139.397 226.474 139.168 226.558C138.94 226.637 138.66 226.677 138.328 226.677C138.268 226.677 138.202 226.675 138.132 226.67C138.062 226.661 137.96 226.647 137.824 226.628C137.712 226.703 137.621 226.77 137.551 226.831C137.486 226.892 137.453 226.945 137.453 226.992C137.453 227.039 137.481 227.076 137.537 227.104C137.598 227.132 137.673 227.151 137.761 227.16C137.85 227.169 137.934 227.174 138.013 227.174H138.909C139.003 227.174 139.122 227.183 139.266 227.202C139.411 227.216 139.556 227.253 139.7 227.314C139.845 227.375 139.966 227.47 140.064 227.601C140.162 227.732 140.211 227.911 140.211 228.14C140.211 228.397 140.137 228.607 139.987 228.77C139.838 228.938 139.616 229.059 139.322 229.134C139.028 229.209 138.667 229.246 138.237 229.246ZM138.286 228.63C138.585 228.63 138.825 228.611 139.007 228.574C139.189 228.537 139.322 228.478 139.406 228.399C139.49 228.32 139.532 228.219 139.532 228.098C139.532 227.986 139.504 227.9 139.448 227.839C139.392 227.774 139.322 227.729 139.238 227.706C139.159 227.678 139.077 227.662 138.993 227.657C138.909 227.652 138.837 227.65 138.776 227.65H137.943C137.696 227.692 137.523 227.764 137.425 227.867C137.327 227.965 137.278 228.075 137.278 228.196C137.278 228.317 137.32 228.408 137.404 228.469C137.488 228.53 137.605 228.572 137.754 228.595C137.908 228.618 138.086 228.63 138.286 228.63ZM138.335 226.229C138.606 226.229 138.809 226.171 138.944 226.054C139.084 225.933 139.154 225.774 139.154 225.578C139.154 225.368 139.084 225.195 138.944 225.06C138.804 224.925 138.597 224.857 138.321 224.857C138.051 224.857 137.843 224.922 137.698 225.053C137.554 225.184 137.481 225.352 137.481 225.557C137.481 225.692 137.514 225.811 137.579 225.914C137.645 226.012 137.74 226.089 137.866 226.145C137.992 226.201 138.149 226.229 138.335 226.229ZM140.98 228V226.096V224.36H141.638L141.603 225.606H141.729C141.771 225.326 141.837 225.088 141.925 224.892C142.014 224.691 142.135 224.537 142.289 224.43C142.443 224.323 142.632 224.269 142.856 224.269C142.903 224.269 142.954 224.274 143.01 224.283C143.066 224.288 143.132 224.299 143.206 224.318L143.171 225.123C143.101 225.095 143.029 225.074 142.954 225.06C142.88 225.046 142.81 225.039 142.744 225.039C142.562 225.039 142.404 225.093 142.268 225.2C142.138 225.303 142.028 225.447 141.939 225.634C141.855 225.816 141.79 226.026 141.743 226.264V228H140.98ZM145.427 228.091C145.138 228.091 144.881 228.049 144.657 227.965C144.433 227.876 144.244 227.753 144.09 227.594C143.936 227.431 143.819 227.237 143.74 227.013C143.661 226.784 143.621 226.528 143.621 226.243C143.621 225.954 143.658 225.69 143.733 225.452C143.812 225.209 143.927 224.999 144.076 224.822C144.225 224.645 144.407 224.509 144.622 224.416C144.841 224.318 145.089 224.269 145.364 224.269C145.616 224.269 145.842 224.311 146.043 224.395C146.248 224.479 146.421 224.607 146.561 224.78C146.706 224.948 146.813 225.16 146.883 225.417C146.953 225.669 146.979 225.965 146.96 226.306L144.104 226.327V225.851L146.512 225.83L146.246 226.124C146.274 225.844 146.251 225.613 146.176 225.431C146.101 225.249 145.994 225.114 145.854 225.025C145.714 224.932 145.553 224.885 145.371 224.885C145.166 224.885 144.986 224.939 144.832 225.046C144.683 225.153 144.566 225.307 144.482 225.508C144.398 225.704 144.356 225.944 144.356 226.229C144.356 226.649 144.449 226.966 144.636 227.181C144.823 227.391 145.089 227.496 145.434 227.496C145.574 227.496 145.695 227.48 145.798 227.447C145.901 227.41 145.987 227.363 146.057 227.307C146.132 227.246 146.19 227.176 146.232 227.097C146.279 227.018 146.316 226.934 146.344 226.845L147.009 226.999C146.962 227.167 146.897 227.319 146.813 227.454C146.729 227.589 146.622 227.704 146.491 227.797C146.36 227.89 146.206 227.963 146.029 228.014C145.856 228.065 145.656 228.091 145.427 228.091ZM149.25 228.091C148.998 228.091 148.774 228.065 148.578 228.014C148.382 227.963 148.216 227.89 148.081 227.797C147.946 227.699 147.838 227.585 147.759 227.454C147.684 227.319 147.642 227.169 147.633 227.006L148.242 226.803C148.247 226.938 148.291 227.06 148.375 227.167C148.459 227.27 148.578 227.351 148.732 227.412C148.891 227.468 149.08 227.496 149.299 227.496C149.556 227.496 149.754 227.456 149.894 227.377C150.034 227.293 150.104 227.176 150.104 227.027C150.104 226.91 150.064 226.819 149.985 226.754C149.906 226.689 149.796 226.635 149.656 226.593C149.516 226.551 149.35 226.511 149.159 226.474C148.986 226.437 148.814 226.395 148.641 226.348C148.473 226.301 148.317 226.238 148.172 226.159C148.032 226.08 147.918 225.975 147.829 225.844C147.74 225.713 147.696 225.55 147.696 225.354C147.696 225.135 147.754 224.946 147.871 224.787C147.988 224.624 148.156 224.498 148.375 224.409C148.599 224.316 148.867 224.269 149.18 224.269C149.479 224.269 149.735 224.313 149.95 224.402C150.169 224.486 150.342 224.607 150.468 224.766C150.599 224.925 150.68 225.111 150.713 225.326L150.069 225.515C150.06 225.375 150.015 225.256 149.936 225.158C149.861 225.06 149.759 224.985 149.628 224.934C149.497 224.883 149.343 224.857 149.166 224.857C148.933 224.857 148.748 224.899 148.613 224.983C148.482 225.067 148.417 225.181 148.417 225.326C148.417 225.438 148.457 225.529 148.536 225.599C148.62 225.664 148.732 225.718 148.872 225.76C149.017 225.797 149.18 225.837 149.362 225.879C149.549 225.916 149.728 225.958 149.901 226.005C150.074 226.052 150.228 226.115 150.363 226.194C150.503 226.269 150.613 226.369 150.692 226.495C150.771 226.621 150.811 226.782 150.811 226.978C150.811 227.221 150.748 227.426 150.622 227.594C150.496 227.757 150.316 227.881 150.083 227.965C149.85 228.049 149.572 228.091 149.25 228.091ZM153.064 228.091C152.812 228.091 152.588 228.065 152.392 228.014C152.196 227.963 152.031 227.89 151.895 227.797C151.76 227.699 151.653 227.585 151.573 227.454C151.499 227.319 151.457 227.169 151.447 227.006L152.056 226.803C152.061 226.938 152.105 227.06 152.189 227.167C152.273 227.27 152.392 227.351 152.546 227.412C152.705 227.468 152.894 227.496 153.113 227.496C153.37 227.496 153.568 227.456 153.708 227.377C153.848 227.293 153.918 227.176 153.918 227.027C153.918 226.91 153.879 226.819 153.799 226.754C153.72 226.689 153.61 226.635 153.47 226.593C153.33 226.551 153.165 226.511 152.973 226.474C152.801 226.437 152.628 226.395 152.455 226.348C152.287 226.301 152.131 226.238 151.986 226.159C151.846 226.08 151.732 225.975 151.643 225.844C151.555 225.713 151.51 225.55 151.51 225.354C151.51 225.135 151.569 224.946 151.685 224.787C151.802 224.624 151.97 224.498 152.189 224.409C152.413 224.316 152.682 224.269 152.994 224.269C153.293 224.269 153.55 224.313 153.764 224.402C153.984 224.486 154.156 224.607 154.282 224.766C154.413 224.925 154.495 225.111 154.527 225.326L153.883 225.515C153.874 225.375 153.83 225.256 153.75 225.158C153.676 225.06 153.573 224.985 153.442 224.934C153.312 224.883 153.158 224.857 152.98 224.857C152.747 224.857 152.563 224.899 152.427 224.983C152.297 225.067 152.231 225.181 152.231 225.326C152.231 225.438 152.271 225.529 152.35 225.599C152.434 225.664 152.546 225.718 152.686 225.76C152.831 225.797 152.994 225.837 153.176 225.879C153.363 225.916 153.543 225.958 153.715 226.005C153.888 226.052 154.042 226.115 154.177 226.194C154.317 226.269 154.427 226.369 154.506 226.495C154.586 226.621 154.625 226.782 154.625 226.978C154.625 227.221 154.562 227.426 154.436 227.594C154.31 227.757 154.131 227.881 153.897 227.965C153.664 228.049 153.386 228.091 153.064 228.091Z" fill="black"/>
<circle cx="170.342" cy="226.5" r="2.5" fill="#FFD15A"/>
<path d="M177.885 226.621V225.998H178.998C179.404 225.998 179.709 225.919 179.915 225.76C180.12 225.601 180.223 225.34 180.223 224.976C180.223 224.649 180.127 224.404 179.936 224.241C179.744 224.078 179.453 223.996 179.061 223.996H177.885V223.38H179.075C179.378 223.38 179.649 223.415 179.887 223.485C180.125 223.555 180.325 223.658 180.489 223.793C180.657 223.928 180.783 224.099 180.867 224.304C180.955 224.505 181 224.738 181 225.004C181 225.354 180.918 225.65 180.755 225.893C180.596 226.131 180.36 226.313 180.048 226.439C179.74 226.56 179.357 226.621 178.9 226.621H177.885ZM177.423 228V223.38H178.186V228H177.423ZM183.386 228.091C183.097 228.091 182.84 228.049 182.616 227.965C182.392 227.876 182.203 227.753 182.049 227.594C181.895 227.431 181.778 227.237 181.699 227.013C181.62 226.784 181.58 226.528 181.58 226.243C181.58 225.954 181.617 225.69 181.692 225.452C181.771 225.209 181.886 224.999 182.035 224.822C182.184 224.645 182.366 224.509 182.581 224.416C182.8 224.318 183.048 224.269 183.323 224.269C183.575 224.269 183.801 224.311 184.002 224.395C184.207 224.479 184.38 224.607 184.52 224.78C184.665 224.948 184.772 225.16 184.842 225.417C184.912 225.669 184.938 225.965 184.919 226.306L182.063 226.327V225.851L184.471 225.83L184.205 226.124C184.233 225.844 184.21 225.613 184.135 225.431C184.06 225.249 183.953 225.114 183.813 225.025C183.673 224.932 183.512 224.885 183.33 224.885C183.125 224.885 182.945 224.939 182.791 225.046C182.642 225.153 182.525 225.307 182.441 225.508C182.357 225.704 182.315 225.944 182.315 226.229C182.315 226.649 182.408 226.966 182.595 227.181C182.782 227.391 183.048 227.496 183.393 227.496C183.533 227.496 183.654 227.48 183.757 227.447C183.86 227.41 183.946 227.363 184.016 227.307C184.091 227.246 184.149 227.176 184.191 227.097C184.238 227.018 184.275 226.934 184.303 226.845L184.968 226.999C184.921 227.167 184.856 227.319 184.772 227.454C184.688 227.589 184.581 227.704 184.45 227.797C184.319 227.89 184.165 227.963 183.988 228.014C183.815 228.065 183.615 228.091 183.386 228.091ZM185.782 228V225.746V224.36H186.44L186.398 225.48H186.517C186.582 225.205 186.671 224.978 186.783 224.801C186.895 224.619 187.035 224.486 187.203 224.402C187.371 224.313 187.569 224.269 187.798 224.269C188.204 224.269 188.512 224.414 188.722 224.703C188.937 224.992 189.044 225.433 189.044 226.026V228H188.281V226.103C188.281 225.697 188.218 225.401 188.092 225.214C187.971 225.023 187.789 224.927 187.546 224.927C187.336 224.927 187.156 224.992 187.007 225.123C186.862 225.254 186.75 225.426 186.671 225.641C186.592 225.856 186.547 226.087 186.538 226.334V228H185.782ZM191.356 228.091C191.044 228.091 190.775 228.012 190.551 227.853C190.332 227.69 190.162 227.466 190.04 227.181C189.924 226.892 189.865 226.558 189.865 226.18C189.865 225.811 189.921 225.485 190.033 225.2C190.145 224.911 190.309 224.684 190.523 224.521C190.743 224.358 191.011 224.276 191.328 224.276C191.58 224.276 191.788 224.327 191.951 224.43C192.115 224.528 192.245 224.663 192.343 224.836C192.446 225.004 192.523 225.193 192.574 225.403H192.714C192.691 225.268 192.668 225.128 192.644 224.983C192.621 224.834 192.602 224.691 192.588 224.556C192.574 224.416 192.567 224.292 192.567 224.185V223.058H193.337V226.201V228H192.672L192.7 226.999H192.574C192.518 227.223 192.439 227.417 192.336 227.58C192.234 227.743 192.101 227.869 191.937 227.958C191.779 228.047 191.585 228.091 191.356 228.091ZM191.566 227.447C191.73 227.447 191.874 227.41 192 227.335C192.126 227.256 192.231 227.158 192.315 227.041C192.399 226.92 192.462 226.789 192.504 226.649C192.551 226.504 192.574 226.369 192.574 226.243V226.138C192.574 226.045 192.56 225.944 192.532 225.837C192.509 225.725 192.469 225.615 192.413 225.508C192.362 225.401 192.297 225.303 192.217 225.214C192.138 225.121 192.042 225.048 191.93 224.997C191.823 224.941 191.702 224.913 191.566 224.913C191.37 224.913 191.205 224.969 191.069 225.081C190.939 225.193 190.838 225.345 190.768 225.536C190.698 225.727 190.663 225.947 190.663 226.194C190.663 226.446 190.698 226.665 190.768 226.852C190.843 227.039 190.948 227.186 191.083 227.293C191.219 227.396 191.38 227.447 191.566 227.447ZM194.402 228V224.36H195.158V228H194.402ZM194.78 223.744C194.612 223.744 194.486 223.711 194.402 223.646C194.318 223.576 194.276 223.476 194.276 223.345C194.276 223.21 194.318 223.107 194.402 223.037C194.491 222.967 194.615 222.932 194.773 222.932C194.941 222.932 195.067 222.967 195.151 223.037C195.24 223.107 195.284 223.21 195.284 223.345C195.284 223.476 195.24 223.576 195.151 223.646C195.067 223.711 194.944 223.744 194.78 223.744ZM196.22 228V225.746V224.36H196.878L196.836 225.48H196.955C197.021 225.205 197.109 224.978 197.221 224.801C197.333 224.619 197.473 224.486 197.641 224.402C197.809 224.313 198.008 224.269 198.236 224.269C198.642 224.269 198.95 224.414 199.16 224.703C199.375 224.992 199.482 225.433 199.482 226.026V228H198.719V226.103C198.719 225.697 198.656 225.401 198.53 225.214C198.409 225.023 198.227 224.927 197.984 224.927C197.774 224.927 197.595 224.992 197.445 225.123C197.301 225.254 197.189 225.426 197.109 225.641C197.03 225.856 196.986 226.087 196.976 226.334V228H196.22ZM201.879 229.246C201.487 229.246 201.165 229.216 200.913 229.155C200.666 229.099 200.481 229.01 200.36 228.889C200.243 228.768 200.185 228.616 200.185 228.434C200.185 228.219 200.269 228.044 200.437 227.909C200.605 227.769 200.859 227.68 201.2 227.643V227.503C200.948 227.508 200.759 227.482 200.633 227.426C200.507 227.365 200.444 227.272 200.444 227.146C200.444 227.015 200.507 226.906 200.633 226.817C200.764 226.724 200.974 226.642 201.263 226.572V226.432C200.978 226.423 200.759 226.336 200.605 226.173C200.451 226.005 200.374 225.788 200.374 225.522C200.374 225.284 200.437 225.076 200.563 224.899C200.694 224.722 200.883 224.584 201.13 224.486C201.382 224.383 201.685 224.332 202.04 224.332H203.797V224.948L202.67 224.78V224.92C202.95 224.971 203.16 225.06 203.3 225.186C203.44 225.312 203.51 225.48 203.51 225.69C203.51 225.886 203.449 226.059 203.328 226.208C203.211 226.357 203.039 226.474 202.81 226.558C202.581 226.637 202.301 226.677 201.97 226.677C201.909 226.677 201.844 226.675 201.774 226.67C201.704 226.661 201.601 226.647 201.466 226.628C201.354 226.703 201.263 226.77 201.193 226.831C201.128 226.892 201.095 226.945 201.095 226.992C201.095 227.039 201.123 227.076 201.179 227.104C201.24 227.132 201.314 227.151 201.403 227.16C201.492 227.169 201.576 227.174 201.655 227.174H202.551C202.644 227.174 202.763 227.183 202.908 227.202C203.053 227.216 203.197 227.253 203.342 227.314C203.487 227.375 203.608 227.47 203.706 227.601C203.804 227.732 203.853 227.911 203.853 228.14C203.853 228.397 203.778 228.607 203.629 228.77C203.48 228.938 203.258 229.059 202.964 229.134C202.67 229.209 202.308 229.246 201.879 229.246ZM201.928 228.63C202.227 228.63 202.467 228.611 202.649 228.574C202.831 228.537 202.964 228.478 203.048 228.399C203.132 228.32 203.174 228.219 203.174 228.098C203.174 227.986 203.146 227.9 203.09 227.839C203.034 227.774 202.964 227.729 202.88 227.706C202.801 227.678 202.719 227.662 202.635 227.657C202.551 227.652 202.479 227.65 202.418 227.65H201.585C201.338 227.692 201.165 227.764 201.067 227.867C200.969 227.965 200.92 228.075 200.92 228.196C200.92 228.317 200.962 228.408 201.046 228.469C201.13 228.53 201.247 228.572 201.396 228.595C201.55 228.618 201.727 228.63 201.928 228.63ZM201.977 226.229C202.248 226.229 202.451 226.171 202.586 226.054C202.726 225.933 202.796 225.774 202.796 225.578C202.796 225.368 202.726 225.195 202.586 225.06C202.446 224.925 202.238 224.857 201.963 224.857C201.692 224.857 201.485 224.922 201.34 225.053C201.195 225.184 201.123 225.352 201.123 225.557C201.123 225.692 201.156 225.811 201.221 225.914C201.286 226.012 201.382 226.089 201.508 226.145C201.634 226.201 201.79 226.229 201.977 226.229Z" fill="black"/>
<circle cx="219.342" cy="226.5" r="2.5" fill="#FC4F24"/>
<path d="M226.423 228V223.38H227.2V228H226.423ZM228.308 228V225.746V224.36H228.966L228.924 225.48H229.043C229.109 225.205 229.197 224.978 229.309 224.801C229.421 224.619 229.561 224.486 229.729 224.402C229.897 224.313 230.096 224.269 230.324 224.269C230.73 224.269 231.038 224.414 231.248 224.703C231.463 224.992 231.57 225.433 231.57 226.026V228H230.807V226.103C230.807 225.697 230.744 225.401 230.618 225.214C230.497 225.023 230.315 224.927 230.072 224.927C229.862 224.927 229.683 224.992 229.533 225.123C229.389 225.254 229.277 225.426 229.197 225.641C229.118 225.856 229.074 226.087 229.064 226.334V228H228.308ZM234.177 228.091C233.859 228.091 233.586 228.042 233.358 227.944C233.134 227.846 232.949 227.711 232.805 227.538C232.66 227.365 232.553 227.167 232.483 226.943C232.413 226.714 232.378 226.474 232.378 226.222C232.378 225.947 232.415 225.692 232.49 225.459C232.564 225.221 232.676 225.013 232.826 224.836C232.975 224.654 233.159 224.514 233.379 224.416C233.598 224.318 233.852 224.269 234.142 224.269C234.422 224.269 234.669 224.318 234.884 224.416C235.098 224.509 235.273 224.642 235.409 224.815C235.544 224.988 235.633 225.191 235.675 225.424L234.961 225.648C234.947 225.513 234.907 225.387 234.842 225.27C234.776 225.153 234.683 225.062 234.562 224.997C234.44 224.927 234.291 224.892 234.114 224.892C233.95 224.892 233.808 224.925 233.687 224.99C233.57 225.051 233.472 225.142 233.393 225.263C233.313 225.38 233.253 225.517 233.211 225.676C233.169 225.835 233.148 226.01 233.148 226.201C233.148 226.462 233.185 226.689 233.26 226.88C233.334 227.071 233.446 227.221 233.596 227.328C233.75 227.435 233.946 227.489 234.184 227.489C234.375 227.489 234.534 227.454 234.66 227.384C234.79 227.314 234.891 227.221 234.961 227.104C235.031 226.983 235.077 226.845 235.101 226.691L235.78 226.845C235.752 227.041 235.693 227.216 235.605 227.37C235.521 227.524 235.411 227.655 235.276 227.762C235.14 227.869 234.982 227.951 234.8 228.007C234.618 228.063 234.41 228.091 234.177 228.091ZM238.059 228.091C237.705 228.091 237.392 228.016 237.121 227.867C236.855 227.718 236.645 227.501 236.491 227.216C236.342 226.927 236.267 226.577 236.267 226.166C236.267 225.741 236.344 225.389 236.498 225.109C236.657 224.829 236.872 224.619 237.142 224.479C237.413 224.339 237.716 224.269 238.052 224.269C238.398 224.269 238.706 224.341 238.976 224.486C239.247 224.631 239.459 224.845 239.613 225.13C239.772 225.415 239.851 225.767 239.851 226.187C239.851 226.612 239.772 226.966 239.613 227.251C239.459 227.531 239.247 227.741 238.976 227.881C238.706 228.021 238.4 228.091 238.059 228.091ZM238.087 227.489C238.297 227.489 238.477 227.44 238.626 227.342C238.776 227.239 238.89 227.092 238.969 226.901C239.049 226.71 239.088 226.483 239.088 226.222C239.088 225.947 239.046 225.711 238.962 225.515C238.878 225.314 238.757 225.16 238.598 225.053C238.444 224.941 238.255 224.885 238.031 224.885C237.826 224.885 237.649 224.934 237.499 225.032C237.35 225.13 237.233 225.272 237.149 225.459C237.07 225.646 237.03 225.877 237.03 226.152C237.03 226.577 237.124 226.906 237.31 227.139C237.502 227.372 237.761 227.489 238.087 227.489ZM240.709 228V225.704V224.36H241.353L241.311 225.48H241.437C241.497 225.209 241.579 224.985 241.682 224.808C241.789 224.626 241.917 224.491 242.067 224.402C242.221 224.313 242.398 224.269 242.599 224.269C242.823 224.269 243.007 224.323 243.152 224.43C243.301 224.537 243.413 224.682 243.488 224.864C243.567 225.041 243.611 225.242 243.621 225.466H243.733C243.789 225.2 243.873 224.978 243.985 224.801C244.097 224.624 244.232 224.491 244.391 224.402C244.554 224.313 244.736 224.269 244.937 224.269C245.128 224.269 245.296 224.309 245.441 224.388C245.585 224.463 245.707 224.575 245.805 224.724C245.907 224.873 245.982 225.06 246.029 225.284C246.08 225.503 246.106 225.758 246.106 226.047V228H245.343V226.145C245.343 225.874 245.317 225.65 245.266 225.473C245.219 225.296 245.147 225.163 245.049 225.074C244.955 224.985 244.834 224.941 244.685 224.941C244.517 224.941 244.367 224.997 244.237 225.109C244.111 225.221 244.008 225.377 243.929 225.578C243.849 225.779 243.798 226.007 243.775 226.264V228H243.033V226.201C243.033 225.916 243.007 225.683 242.956 225.501C242.909 225.314 242.837 225.174 242.739 225.081C242.641 224.988 242.517 224.941 242.368 224.941C242.19 224.941 242.036 225.002 241.906 225.123C241.78 225.24 241.679 225.401 241.605 225.606C241.53 225.807 241.483 226.033 241.465 226.285V228H240.709ZM247.107 229.148V226.201V224.36H247.765L247.744 225.312L247.856 225.319C247.908 225.104 247.985 224.918 248.087 224.759C248.19 224.6 248.321 224.479 248.479 224.395C248.643 224.311 248.836 224.269 249.06 224.269C249.392 224.269 249.669 224.351 249.893 224.514C250.117 224.677 250.288 224.904 250.404 225.193C250.521 225.482 250.579 225.814 250.579 226.187C250.579 226.551 250.523 226.878 250.411 227.167C250.299 227.452 250.134 227.678 249.914 227.846C249.7 228.009 249.431 228.091 249.109 228.091C248.862 228.091 248.657 228.042 248.493 227.944C248.33 227.841 248.197 227.708 248.094 227.545C247.996 227.377 247.917 227.193 247.856 226.992H247.73C247.758 227.118 247.782 227.249 247.8 227.384C247.819 227.515 247.835 227.645 247.849 227.776C247.863 227.907 247.87 228.03 247.87 228.147V229.148H247.107ZM248.885 227.454C249.077 227.454 249.238 227.4 249.368 227.293C249.504 227.181 249.606 227.029 249.676 226.838C249.746 226.642 249.781 226.423 249.781 226.18C249.781 225.919 249.744 225.695 249.669 225.508C249.599 225.321 249.497 225.177 249.361 225.074C249.226 224.971 249.065 224.92 248.878 224.92C248.715 224.92 248.57 224.957 248.444 225.032C248.318 225.102 248.211 225.198 248.122 225.319C248.038 225.44 247.973 225.573 247.926 225.718C247.884 225.858 247.863 225.996 247.863 226.131V226.236C247.863 226.329 247.877 226.43 247.905 226.537C247.933 226.644 247.973 226.752 248.024 226.859C248.08 226.966 248.148 227.067 248.227 227.16C248.311 227.249 248.407 227.321 248.514 227.377C248.626 227.428 248.75 227.454 248.885 227.454ZM251.448 228V223.058H252.197V228H251.448ZM254.863 228.091C254.573 228.091 254.317 228.049 254.093 227.965C253.869 227.876 253.68 227.753 253.526 227.594C253.372 227.431 253.255 227.237 253.176 227.013C253.096 226.784 253.057 226.528 253.057 226.243C253.057 225.954 253.094 225.69 253.169 225.452C253.248 225.209 253.362 224.999 253.512 224.822C253.661 224.645 253.843 224.509 254.058 224.416C254.277 224.318 254.524 224.269 254.8 224.269C255.052 224.269 255.278 224.311 255.479 224.395C255.684 224.479 255.857 224.607 255.997 224.78C256.141 224.948 256.249 225.16 256.319 225.417C256.389 225.669 256.414 225.965 256.396 226.306L253.54 226.327V225.851L255.948 225.83L255.682 226.124C255.71 225.844 255.686 225.613 255.612 225.431C255.537 225.249 255.43 225.114 255.29 225.025C255.15 224.932 254.989 224.885 254.807 224.885C254.601 224.885 254.422 224.939 254.268 225.046C254.118 225.153 254.002 225.307 253.918 225.508C253.834 225.704 253.792 225.944 253.792 226.229C253.792 226.649 253.885 226.966 254.072 227.181C254.258 227.391 254.524 227.496 254.87 227.496C255.01 227.496 255.131 227.48 255.234 227.447C255.336 227.41 255.423 227.363 255.493 227.307C255.567 227.246 255.626 227.176 255.668 227.097C255.714 227.018 255.752 226.934 255.78 226.845L256.445 226.999C256.398 227.167 256.333 227.319 256.249 227.454C256.165 227.589 256.057 227.704 255.927 227.797C255.796 227.89 255.642 227.963 255.465 228.014C255.292 228.065 255.091 228.091 254.863 228.091ZM258.463 228.077C258.099 228.077 257.83 227.979 257.658 227.783C257.485 227.587 257.399 227.286 257.399 226.88V224.976H256.86L256.867 224.36H257.224C257.345 224.36 257.434 224.341 257.49 224.304C257.55 224.262 257.588 224.19 257.602 224.087L257.679 223.541H258.134V224.36H259.135V224.997H258.134V226.859C258.134 227.036 258.176 227.167 258.26 227.251C258.344 227.33 258.467 227.37 258.631 227.37C258.719 227.37 258.808 227.358 258.897 227.335C258.99 227.312 259.079 227.27 259.163 227.209V227.951C259.023 227.998 258.894 228.03 258.778 228.049C258.661 228.068 258.556 228.077 258.463 228.077ZM261.493 228.091C261.204 228.091 260.947 228.049 260.723 227.965C260.499 227.876 260.31 227.753 260.156 227.594C260.002 227.431 259.886 227.237 259.806 227.013C259.727 226.784 259.687 226.528 259.687 226.243C259.687 225.954 259.725 225.69 259.799 225.452C259.879 225.209 259.993 224.999 260.142 224.822C260.292 224.645 260.474 224.509 260.688 224.416C260.908 224.318 261.155 224.269 261.43 224.269C261.682 224.269 261.909 224.311 262.109 224.395C262.315 224.479 262.487 224.607 262.627 224.78C262.772 224.948 262.879 225.16 262.949 225.417C263.019 225.669 263.045 225.965 263.026 226.306L260.17 226.327V225.851L262.578 225.83L262.312 226.124C262.34 225.844 262.317 225.613 262.242 225.431C262.168 225.249 262.06 225.114 261.92 225.025C261.78 224.932 261.619 224.885 261.437 224.885C261.232 224.885 261.052 224.939 260.898 225.046C260.749 225.153 260.632 225.307 260.548 225.508C260.464 225.704 260.422 225.944 260.422 226.229C260.422 226.649 260.516 226.966 260.702 227.181C260.889 227.391 261.155 227.496 261.5 227.496C261.64 227.496 261.762 227.48 261.864 227.447C261.967 227.41 262.053 227.363 262.123 227.307C262.198 227.246 262.256 227.176 262.298 227.097C262.345 227.018 262.382 226.934 262.41 226.845L263.075 226.999C263.029 227.167 262.963 227.319 262.879 227.454C262.795 227.589 262.688 227.704 262.557 227.797C262.427 227.89 262.273 227.963 262.095 228.014C261.923 228.065 261.722 228.091 261.493 228.091Z" fill="black"/>
<g filter="url(#filter1_bd_2214_281)">
<rect x="177.842" y="111" width="68" height="27" rx="4" fill="white" fill-opacity="0.43" shape-rendering="crispEdges"/>
<rect x="177.842" y="111" width="68" height="27" rx="4" stroke="white" stroke-opacity="0.28" stroke-width="0.5" shape-rendering="crispEdges"/>
<path d="M182.458 123V117.04H184.626C185.026 117.04 185.378 117.115 185.682 117.264C185.991 117.408 186.231 117.621 186.402 117.904C186.572 118.181 186.658 118.515 186.658 118.904C186.658 119.288 186.57 119.619 186.394 119.896C186.223 120.173 185.986 120.387 185.682 120.536C185.378 120.685 185.026 120.76 184.626 120.76H183.402V123H182.458ZM183.402 119.92H184.65C184.863 119.92 185.05 119.877 185.21 119.792C185.37 119.707 185.495 119.589 185.586 119.44C185.676 119.285 185.722 119.104 185.722 118.896C185.722 118.688 185.676 118.509 185.586 118.36C185.495 118.205 185.37 118.088 185.21 118.008C185.05 117.923 184.863 117.88 184.65 117.88H183.402V119.92ZM187.542 123V118.672H188.406V119.544L188.326 119.416C188.422 119.133 188.576 118.931 188.79 118.808C189.003 118.68 189.259 118.616 189.558 118.616H189.822V119.44H189.446C189.147 119.44 188.904 119.533 188.718 119.72C188.536 119.901 188.446 120.163 188.446 120.504V123H187.542ZM192.528 123.096C192.112 123.096 191.731 122.997 191.384 122.8C191.043 122.603 190.771 122.333 190.568 121.992C190.365 121.651 190.264 121.264 190.264 120.832C190.264 120.395 190.365 120.008 190.568 119.672C190.771 119.331 191.043 119.064 191.384 118.872C191.725 118.675 192.107 118.576 192.528 118.576C192.955 118.576 193.336 118.675 193.672 118.872C194.013 119.064 194.283 119.331 194.48 119.672C194.683 120.008 194.784 120.395 194.784 120.832C194.784 121.269 194.683 121.659 194.48 122C194.277 122.341 194.005 122.611 193.664 122.808C193.323 123 192.944 123.096 192.528 123.096ZM192.528 122.256C192.784 122.256 193.011 122.195 193.208 122.072C193.405 121.949 193.56 121.781 193.672 121.568C193.789 121.349 193.848 121.104 193.848 120.832C193.848 120.56 193.789 120.317 193.672 120.104C193.56 119.891 193.405 119.723 193.208 119.6C193.011 119.477 192.784 119.416 192.528 119.416C192.277 119.416 192.051 119.477 191.848 119.6C191.651 119.723 191.493 119.891 191.376 120.104C191.264 120.317 191.208 120.56 191.208 120.832C191.208 121.104 191.264 121.349 191.376 121.568C191.493 121.781 191.651 121.949 191.848 122.072C192.051 122.195 192.277 122.256 192.528 122.256ZM197.755 124.76C197.44 124.76 197.149 124.709 196.883 124.608C196.616 124.507 196.387 124.365 196.195 124.184C196.003 124.008 195.859 123.8 195.763 123.56L196.595 123.216C196.669 123.419 196.805 123.587 197.003 123.72C197.205 123.853 197.453 123.92 197.747 123.92C197.976 123.92 198.181 123.875 198.363 123.784C198.544 123.699 198.688 123.571 198.795 123.4C198.901 123.235 198.955 123.035 198.955 122.8V121.824L199.115 122.008C198.965 122.285 198.757 122.496 198.491 122.64C198.229 122.784 197.933 122.856 197.603 122.856C197.203 122.856 196.843 122.763 196.523 122.576C196.203 122.389 195.949 122.133 195.763 121.808C195.581 121.483 195.491 121.117 195.491 120.712C195.491 120.301 195.581 119.936 195.763 119.616C195.949 119.296 196.2 119.043 196.515 118.856C196.829 118.669 197.189 118.576 197.595 118.576C197.925 118.576 198.219 118.648 198.475 118.792C198.736 118.931 198.949 119.133 199.115 119.4L198.995 119.624V118.672H199.851V122.8C199.851 123.173 199.76 123.507 199.579 123.8C199.403 124.099 199.157 124.333 198.843 124.504C198.528 124.675 198.165 124.76 197.755 124.76ZM197.707 122.016C197.947 122.016 198.16 121.96 198.347 121.848C198.533 121.731 198.68 121.576 198.787 121.384C198.899 121.187 198.955 120.965 198.955 120.72C198.955 120.475 198.899 120.253 198.787 120.056C198.675 119.859 198.525 119.704 198.339 119.592C198.152 119.475 197.941 119.416 197.707 119.416C197.461 119.416 197.243 119.475 197.051 119.592C196.859 119.704 196.707 119.859 196.595 120.056C196.488 120.248 196.435 120.469 196.435 120.72C196.435 120.96 196.488 121.179 196.595 121.376C196.707 121.573 196.859 121.731 197.051 121.848C197.243 121.96 197.461 122.016 197.707 122.016ZM200.909 123V118.672H201.773V119.544L201.693 119.416C201.789 119.133 201.944 118.931 202.157 118.808C202.37 118.68 202.626 118.616 202.925 118.616H203.189V119.44H202.813C202.514 119.44 202.272 119.533 202.085 119.72C201.904 119.901 201.813 120.163 201.813 120.504V123H200.909ZM205.839 123.096C205.407 123.096 205.023 122.997 204.687 122.8C204.357 122.597 204.098 122.325 203.911 121.984C203.725 121.637 203.631 121.251 203.631 120.824C203.631 120.387 203.725 120 203.911 119.664C204.103 119.328 204.359 119.064 204.679 118.872C204.999 118.675 205.362 118.576 205.767 118.576C206.093 118.576 206.383 118.632 206.639 118.744C206.895 118.856 207.111 119.011 207.287 119.208C207.463 119.4 207.597 119.621 207.687 119.872C207.783 120.123 207.831 120.389 207.831 120.672C207.831 120.741 207.829 120.813 207.823 120.888C207.818 120.963 207.807 121.032 207.791 121.096H204.343V120.376H207.279L206.847 120.704C206.901 120.443 206.882 120.211 206.791 120.008C206.706 119.8 206.573 119.637 206.391 119.52C206.215 119.397 206.007 119.336 205.767 119.336C205.527 119.336 205.314 119.397 205.127 119.52C204.941 119.637 204.797 119.808 204.695 120.032C204.594 120.251 204.554 120.517 204.575 120.832C204.549 121.125 204.589 121.381 204.695 121.6C204.807 121.819 204.962 121.989 205.159 122.112C205.362 122.235 205.591 122.296 205.847 122.296C206.109 122.296 206.33 122.237 206.511 122.12C206.698 122.003 206.845 121.851 206.951 121.664L207.687 122.024C207.602 122.227 207.469 122.411 207.287 122.576C207.111 122.736 206.898 122.864 206.647 122.96C206.402 123.051 206.133 123.096 205.839 123.096ZM210.314 123.096C209.871 123.096 209.482 122.987 209.146 122.768C208.815 122.549 208.583 122.256 208.45 121.888L209.146 121.56C209.263 121.805 209.423 122 209.626 122.144C209.834 122.288 210.063 122.36 210.314 122.36C210.527 122.36 210.7 122.312 210.834 122.216C210.967 122.12 211.034 121.989 211.034 121.824C211.034 121.717 211.004 121.632 210.946 121.568C210.887 121.499 210.812 121.443 210.722 121.4C210.636 121.357 210.548 121.325 210.458 121.304L209.778 121.112C209.404 121.005 209.124 120.845 208.938 120.632C208.756 120.413 208.666 120.16 208.666 119.872C208.666 119.611 208.732 119.384 208.866 119.192C208.999 118.995 209.183 118.843 209.418 118.736C209.652 118.629 209.916 118.576 210.21 118.576C210.604 118.576 210.956 118.675 211.266 118.872C211.575 119.064 211.794 119.333 211.922 119.68L211.226 120.008C211.14 119.8 211.004 119.635 210.818 119.512C210.636 119.389 210.431 119.328 210.202 119.328C210.004 119.328 209.847 119.376 209.73 119.472C209.612 119.563 209.554 119.683 209.554 119.832C209.554 119.933 209.58 120.019 209.634 120.088C209.687 120.152 209.756 120.205 209.842 120.248C209.927 120.285 210.015 120.317 210.106 120.344L210.81 120.552C211.167 120.653 211.442 120.813 211.634 121.032C211.826 121.245 211.922 121.501 211.922 121.8C211.922 122.056 211.852 122.283 211.714 122.48C211.58 122.672 211.394 122.824 211.154 122.936C210.914 123.043 210.634 123.096 210.314 123.096ZM214.407 123.096C213.965 123.096 213.575 122.987 213.239 122.768C212.909 122.549 212.677 122.256 212.543 121.888L213.239 121.56C213.357 121.805 213.517 122 213.719 122.144C213.927 122.288 214.157 122.36 214.407 122.36C214.621 122.36 214.794 122.312 214.927 122.216C215.061 122.12 215.127 121.989 215.127 121.824C215.127 121.717 215.098 121.632 215.039 121.568C214.981 121.499 214.906 121.443 214.815 121.4C214.73 121.357 214.642 121.325 214.551 121.304L213.871 121.112C213.498 121.005 213.218 120.845 213.031 120.632C212.85 120.413 212.759 120.16 212.759 119.872C212.759 119.611 212.826 119.384 212.959 119.192C213.093 118.995 213.277 118.843 213.511 118.736C213.746 118.629 214.01 118.576 214.303 118.576C214.698 118.576 215.05 118.675 215.359 118.872C215.669 119.064 215.887 119.333 216.015 119.68L215.319 120.008C215.234 119.8 215.098 119.635 214.911 119.512C214.73 119.389 214.525 119.328 214.295 119.328C214.098 119.328 213.941 119.376 213.823 119.472C213.706 119.563 213.647 119.683 213.647 119.832C213.647 119.933 213.674 120.019 213.727 120.088C213.781 120.152 213.85 120.205 213.935 120.248C214.021 120.285 214.109 120.317 214.199 120.344L214.903 120.552C215.261 120.653 215.535 120.813 215.727 121.032C215.919 121.245 216.015 121.501 216.015 121.8C216.015 122.056 215.946 122.283 215.807 122.48C215.674 122.672 215.487 122.824 215.247 122.936C215.007 123.043 214.727 123.096 214.407 123.096Z" fill="black"/>
<path d="M184.41 132.072C184.094 132.072 183.804 132.016 183.54 131.904C183.276 131.788 183.046 131.628 182.85 131.424C182.658 131.216 182.508 130.972 182.4 130.692C182.292 130.412 182.238 130.104 182.238 129.768C182.238 129.432 182.292 129.124 182.4 128.844C182.508 128.564 182.658 128.32 182.85 128.112C183.046 127.904 183.276 127.744 183.54 127.632C183.804 127.516 184.094 127.458 184.41 127.458C184.714 127.458 184.986 127.512 185.226 127.62C185.47 127.728 185.674 127.868 185.838 128.04C186.006 128.208 186.126 128.386 186.198 128.574L185.748 128.772C185.636 128.512 185.464 128.304 185.232 128.148C185.004 127.988 184.73 127.908 184.41 127.908C184.082 127.908 183.79 127.986 183.534 128.142C183.278 128.298 183.078 128.516 182.934 128.796C182.79 129.072 182.718 129.396 182.718 129.768C182.718 130.136 182.79 130.46 182.934 130.74C183.078 131.02 183.278 131.238 183.534 131.394C183.79 131.546 184.082 131.622 184.41 131.622C184.73 131.622 185.004 131.544 185.232 131.388C185.464 131.232 185.636 131.024 185.748 130.764L186.198 130.962C186.126 131.146 186.006 131.324 185.838 131.496C185.674 131.664 185.47 131.802 185.226 131.91C184.986 132.018 184.714 132.072 184.41 132.072ZM188.439 132.072C188.135 132.072 187.859 132 187.611 131.856C187.363 131.708 187.165 131.508 187.017 131.256C186.873 131 186.801 130.71 186.801 130.386C186.801 130.066 186.873 129.78 187.017 129.528C187.161 129.276 187.355 129.078 187.599 128.934C187.847 128.786 188.127 128.712 188.439 128.712C188.751 128.712 189.029 128.784 189.273 128.928C189.521 129.072 189.715 129.27 189.855 129.522C189.999 129.774 190.071 130.062 190.071 130.386C190.071 130.714 189.997 131.006 189.849 131.262C189.701 131.514 189.503 131.712 189.255 131.856C189.011 132 188.739 132.072 188.439 132.072ZM188.439 131.622C188.655 131.622 188.849 131.568 189.021 131.46C189.197 131.352 189.335 131.204 189.435 131.016C189.539 130.828 189.591 130.618 189.591 130.386C189.591 130.154 189.539 129.946 189.435 129.762C189.335 129.578 189.197 129.432 189.021 129.324C188.849 129.216 188.655 129.162 188.439 129.162C188.223 129.162 188.027 129.216 187.851 129.324C187.679 129.432 187.541 129.578 187.437 129.762C187.333 129.946 187.281 130.154 187.281 130.386C187.281 130.618 187.333 130.828 187.437 131.016C187.541 131.204 187.679 131.352 187.851 131.46C188.027 131.568 188.223 131.622 188.439 131.622ZM190.864 132V128.784H191.314V129.396L191.242 129.306C191.33 129.118 191.46 128.972 191.632 128.868C191.808 128.764 192 128.712 192.208 128.712C192.456 128.712 192.68 128.782 192.88 128.922C193.08 129.062 193.222 129.244 193.306 129.468L193.18 129.474C193.26 129.226 193.398 129.038 193.594 128.91C193.794 128.778 194.014 128.712 194.254 128.712C194.47 128.712 194.668 128.764 194.848 128.868C195.032 128.972 195.178 129.116 195.286 129.3C195.398 129.48 195.454 129.684 195.454 129.912V132H195.004V130.086C195.004 129.89 194.968 129.724 194.896 129.588C194.828 129.452 194.734 129.348 194.614 129.276C194.494 129.2 194.356 129.162 194.2 129.162C194.048 129.162 193.91 129.2 193.786 129.276C193.662 129.348 193.564 129.454 193.492 129.594C193.42 129.73 193.384 129.894 193.384 130.086V132H192.934V130.086C192.934 129.89 192.898 129.724 192.826 129.588C192.758 129.452 192.664 129.348 192.544 129.276C192.424 129.2 192.286 129.162 192.13 129.162C191.974 129.162 191.834 129.2 191.71 129.276C191.59 129.348 191.494 129.454 191.422 129.594C191.35 129.73 191.314 129.894 191.314 130.086V132H190.864ZM196.314 133.2V128.784H196.764V129.504L196.692 129.378C196.82 129.174 196.99 129.012 197.202 128.892C197.418 128.772 197.664 128.712 197.94 128.712C198.244 128.712 198.514 128.786 198.75 128.934C198.99 129.078 199.178 129.276 199.314 129.528C199.454 129.78 199.524 130.068 199.524 130.392C199.524 130.712 199.454 131 199.314 131.256C199.178 131.508 198.99 131.708 198.75 131.856C198.514 132 198.244 132.072 197.94 132.072C197.664 132.072 197.414 132.01 197.19 131.886C196.97 131.758 196.804 131.578 196.692 131.346L196.764 131.28V133.2H196.314ZM197.916 131.622C198.132 131.622 198.324 131.568 198.492 131.46C198.664 131.352 198.798 131.206 198.894 131.022C198.994 130.834 199.044 130.624 199.044 130.392C199.044 130.156 198.994 129.946 198.894 129.762C198.798 129.578 198.664 129.432 198.492 129.324C198.324 129.216 198.132 129.162 197.916 129.162C197.7 129.162 197.504 129.216 197.328 129.324C197.156 129.432 197.018 129.58 196.914 129.768C196.814 129.952 196.764 130.16 196.764 130.392C196.764 130.624 196.814 130.834 196.914 131.022C197.018 131.206 197.156 131.352 197.328 131.46C197.504 131.568 197.7 131.622 197.916 131.622ZM200.316 132V127.458H200.766V132H200.316ZM203.151 132.072C202.851 132.072 202.579 132 202.335 131.856C202.095 131.708 201.905 131.506 201.765 131.25C201.625 130.994 201.555 130.704 201.555 130.38C201.555 130.056 201.623 129.77 201.759 129.522C201.895 129.27 202.079 129.072 202.311 128.928C202.547 128.784 202.811 128.712 203.103 128.712C203.335 128.712 203.541 128.756 203.721 128.844C203.905 128.928 204.061 129.044 204.189 129.192C204.317 129.336 204.415 129.5 204.483 129.684C204.551 129.864 204.585 130.05 204.585 130.242C204.585 130.282 204.583 130.328 204.579 130.38C204.575 130.428 204.569 130.478 204.561 130.53H201.843V130.11H204.303L204.087 130.29C204.123 130.07 204.097 129.874 204.009 129.702C203.925 129.526 203.803 129.388 203.643 129.288C203.483 129.184 203.303 129.132 203.103 129.132C202.903 129.132 202.717 129.184 202.545 129.288C202.377 129.392 202.245 129.538 202.149 129.726C202.053 129.91 202.015 130.13 202.035 130.386C202.015 130.642 202.055 130.866 202.155 131.058C202.259 131.246 202.399 131.392 202.575 131.496C202.755 131.6 202.947 131.652 203.151 131.652C203.387 131.652 203.585 131.596 203.745 131.484C203.905 131.372 204.035 131.232 204.135 131.064L204.519 131.268C204.455 131.412 204.357 131.546 204.225 131.67C204.093 131.79 203.935 131.888 203.751 131.964C203.571 132.036 203.371 132.072 203.151 132.072ZM206.608 132.036C206.32 132.036 206.098 131.952 205.942 131.784C205.786 131.616 205.708 131.376 205.708 131.064V129.234H205.114V128.784H205.264C205.4 128.784 205.508 128.74 205.588 128.652C205.668 128.56 205.708 128.446 205.708 128.31V128.04H206.158V128.784H206.866V129.234H206.158V131.064C206.158 131.172 206.174 131.268 206.206 131.352C206.238 131.432 206.292 131.496 206.368 131.544C206.448 131.592 206.554 131.616 206.686 131.616C206.718 131.616 206.756 131.614 206.8 131.61C206.844 131.606 206.882 131.602 206.914 131.598V132C206.866 132.012 206.812 132.02 206.752 132.024C206.692 132.032 206.644 132.036 206.608 132.036ZM209.051 132.072C208.751 132.072 208.479 132 208.235 131.856C207.995 131.708 207.805 131.506 207.665 131.25C207.525 130.994 207.455 130.704 207.455 130.38C207.455 130.056 207.523 129.77 207.659 129.522C207.795 129.27 207.979 129.072 208.211 128.928C208.447 128.784 208.711 128.712 209.003 128.712C209.235 128.712 209.441 128.756 209.621 128.844C209.805 128.928 209.961 129.044 210.089 129.192C210.217 129.336 210.315 129.5 210.383 129.684C210.451 129.864 210.485 130.05 210.485 130.242C210.485 130.282 210.483 130.328 210.479 130.38C210.475 130.428 210.469 130.478 210.461 130.53H207.743V130.11H210.203L209.987 130.29C210.023 130.07 209.997 129.874 209.909 129.702C209.825 129.526 209.703 129.388 209.543 129.288C209.383 129.184 209.203 129.132 209.003 129.132C208.803 129.132 208.617 129.184 208.445 129.288C208.277 129.392 208.145 129.538 208.049 129.726C207.953 129.91 207.915 130.13 207.935 130.386C207.915 130.642 207.955 130.866 208.055 131.058C208.159 131.246 208.299 131.392 208.475 131.496C208.655 131.6 208.847 131.652 209.051 131.652C209.287 131.652 209.485 131.596 209.645 131.484C209.805 131.372 209.935 131.232 210.035 131.064L210.419 131.268C210.355 131.412 210.257 131.546 210.125 131.67C209.993 131.79 209.835 131.888 209.651 131.964C209.471 132.036 209.271 132.072 209.051 132.072ZM213.228 132.072C213.024 132.072 212.842 132.034 212.682 131.958C212.522 131.878 212.396 131.77 212.304 131.634C212.212 131.498 212.166 131.342 212.166 131.166C212.166 130.998 212.202 130.846 212.274 130.71C212.346 130.57 212.458 130.452 212.61 130.356C212.762 130.26 212.956 130.192 213.192 130.152L214.452 129.942V130.35L213.3 130.542C213.068 130.582 212.9 130.656 212.796 130.764C212.696 130.872 212.646 131 212.646 131.148C212.646 131.292 212.702 131.414 212.814 131.514C212.93 131.614 213.078 131.664 213.258 131.664C213.478 131.664 213.67 131.618 213.834 131.526C213.998 131.43 214.126 131.302 214.218 131.142C214.31 130.982 214.356 130.804 214.356 130.608V129.792C214.356 129.6 214.286 129.444 214.146 129.324C214.006 129.204 213.824 129.144 213.6 129.144C213.404 129.144 213.232 129.194 213.084 129.294C212.936 129.39 212.826 129.516 212.754 129.672L212.346 129.45C212.406 129.314 212.5 129.19 212.628 129.078C212.76 128.966 212.91 128.878 213.078 128.814C213.246 128.746 213.42 128.712 213.6 128.712C213.836 128.712 214.044 128.758 214.224 128.85C214.408 128.942 214.55 129.07 214.65 129.234C214.754 129.394 214.806 129.58 214.806 129.792V132H214.356V131.358L214.422 131.424C214.366 131.544 214.278 131.654 214.158 131.754C214.042 131.85 213.904 131.928 213.744 131.988C213.588 132.044 213.416 132.072 213.228 132.072ZM215.732 132V127.458H216.182V132H215.732ZM217.103 132V128.784H217.553V129.396L217.481 129.306C217.569 129.118 217.699 128.972 217.871 128.868C218.047 128.764 218.239 128.712 218.447 128.712C218.695 128.712 218.919 128.782 219.119 128.922C219.319 129.062 219.461 129.244 219.545 129.468L219.419 129.474C219.499 129.226 219.637 129.038 219.833 128.91C220.033 128.778 220.253 128.712 220.493 128.712C220.709 128.712 220.907 128.764 221.087 128.868C221.271 128.972 221.417 129.116 221.525 129.3C221.637 129.48 221.693 129.684 221.693 129.912V132H221.243V130.086C221.243 129.89 221.207 129.724 221.135 129.588C221.067 129.452 220.973 129.348 220.853 129.276C220.733 129.2 220.595 129.162 220.439 129.162C220.287 129.162 220.149 129.2 220.025 129.276C219.901 129.348 219.803 129.454 219.731 129.594C219.659 129.73 219.623 129.894 219.623 130.086V132H219.173V130.086C219.173 129.89 219.137 129.724 219.065 129.588C218.997 129.452 218.903 129.348 218.783 129.276C218.663 129.2 218.525 129.162 218.369 129.162C218.213 129.162 218.073 129.2 217.949 129.276C217.829 129.348 217.733 129.454 217.661 129.594C217.589 129.73 217.553 129.894 217.553 130.086V132H217.103ZM224.058 132.072C223.754 132.072 223.478 132 223.23 131.856C222.982 131.708 222.784 131.508 222.636 131.256C222.492 131 222.42 130.71 222.42 130.386C222.42 130.066 222.492 129.78 222.636 129.528C222.78 129.276 222.974 129.078 223.218 128.934C223.466 128.786 223.746 128.712 224.058 128.712C224.37 128.712 224.648 128.784 224.892 128.928C225.14 129.072 225.334 129.27 225.474 129.522C225.618 129.774 225.69 130.062 225.69 130.386C225.69 130.714 225.616 131.006 225.468 131.262C225.32 131.514 225.122 131.712 224.874 131.856C224.63 132 224.358 132.072 224.058 132.072ZM224.058 131.622C224.274 131.622 224.468 131.568 224.64 131.46C224.816 131.352 224.954 131.204 225.054 131.016C225.158 130.828 225.21 130.618 225.21 130.386C225.21 130.154 225.158 129.946 225.054 129.762C224.954 129.578 224.816 129.432 224.64 129.324C224.468 129.216 224.274 129.162 224.058 129.162C223.842 129.162 223.646 129.216 223.47 129.324C223.298 129.432 223.16 129.578 223.056 129.762C222.952 129.946 222.9 130.154 222.9 130.386C222.9 130.618 222.952 130.828 223.056 131.016C223.16 131.204 223.298 131.352 223.47 131.46C223.646 131.568 223.842 131.622 224.058 131.622ZM227.599 132.072C227.291 132.072 227.021 131.994 226.789 131.838C226.557 131.682 226.389 131.47 226.285 131.202L226.663 131.022C226.755 131.218 226.883 131.374 227.047 131.49C227.215 131.606 227.399 131.664 227.599 131.664C227.791 131.664 227.953 131.618 228.085 131.526C228.217 131.43 228.283 131.306 228.283 131.154C228.283 131.042 228.251 130.954 228.187 130.89C228.123 130.822 228.049 130.77 227.965 130.734C227.881 130.698 227.807 130.672 227.743 130.656L227.281 130.524C226.985 130.44 226.771 130.322 226.639 130.17C226.507 130.018 226.441 129.842 226.441 129.642C226.441 129.454 226.489 129.29 226.585 129.15C226.681 129.01 226.811 128.902 226.975 128.826C227.139 128.75 227.321 128.712 227.521 128.712C227.793 128.712 228.039 128.784 228.259 128.928C228.483 129.068 228.641 129.264 228.733 129.516L228.349 129.696C228.269 129.516 228.153 129.376 228.001 129.276C227.853 129.172 227.687 129.12 227.503 129.12C227.323 129.12 227.179 129.166 227.071 129.258C226.963 129.35 226.909 129.466 226.909 129.606C226.909 129.714 226.937 129.8 226.993 129.864C227.049 129.928 227.113 129.976 227.185 130.008C227.261 130.04 227.327 130.064 227.383 130.08L227.917 130.236C228.177 130.312 228.379 130.43 228.523 130.59C228.671 130.75 228.745 130.938 228.745 131.154C228.745 131.33 228.695 131.488 228.595 131.628C228.499 131.768 228.365 131.878 228.193 131.958C228.021 132.034 227.823 132.072 227.599 132.072ZM230.766 132.036C230.478 132.036 230.256 131.952 230.1 131.784C229.944 131.616 229.866 131.376 229.866 131.064V129.234H229.272V128.784H229.422C229.558 128.784 229.666 128.74 229.746 128.652C229.826 128.56 229.866 128.446 229.866 128.31V128.04H230.316V128.784H231.024V129.234H230.316V131.064C230.316 131.172 230.332 131.268 230.364 131.352C230.396 131.432 230.45 131.496 230.526 131.544C230.606 131.592 230.712 131.616 230.844 131.616C230.876 131.616 230.914 131.614 230.958 131.61C231.002 131.606 231.04 131.602 231.072 131.598V132C231.024 132.012 230.97 132.02 230.91 132.024C230.85 132.032 230.802 132.036 230.766 132.036Z" fill="black" fill-opacity="0.64"/>
<path d="M233.29 132L234.844 129.966L234.934 129.912C234.874 130.008 234.804 130.084 234.724 130.14C234.644 130.196 234.556 130.236 234.46 130.26C234.364 130.284 234.258 130.296 234.142 130.296C233.882 130.296 233.648 130.236 233.44 130.116C233.232 129.992 233.066 129.824 232.942 129.612C232.822 129.396 232.762 129.15 232.762 128.874C232.762 128.602 232.824 128.36 232.948 128.148C233.076 127.936 233.248 127.768 233.464 127.644C233.684 127.52 233.93 127.458 234.202 127.458C234.482 127.458 234.73 127.522 234.946 127.65C235.162 127.774 235.332 127.948 235.456 128.172C235.58 128.392 235.642 128.646 235.642 128.934C235.642 129.094 235.622 129.252 235.582 129.408C235.546 129.564 235.49 129.718 235.414 129.87C235.338 130.022 235.242 130.174 235.126 130.326L233.866 132H233.29ZM234.202 129.864C234.39 129.864 234.556 129.822 234.7 129.738C234.844 129.65 234.956 129.532 235.036 129.384C235.12 129.232 235.162 129.062 235.162 128.874C235.162 128.682 235.12 128.512 235.036 128.364C234.952 128.212 234.838 128.094 234.694 128.01C234.55 127.922 234.386 127.878 234.202 127.878C234.018 127.878 233.854 127.922 233.71 128.01C233.566 128.094 233.452 128.212 233.368 128.364C233.284 128.512 233.242 128.682 233.242 128.874C233.242 129.062 233.282 129.232 233.362 129.384C233.446 129.532 233.56 129.65 233.704 129.738C233.852 129.822 234.018 129.864 234.202 129.864ZM238.202 132.072C237.85 132.072 237.54 131.976 237.272 131.784C237.008 131.588 236.802 131.318 236.654 130.974C236.506 130.626 236.432 130.222 236.432 129.762C236.432 129.302 236.506 128.9 236.654 128.556C236.802 128.208 237.008 127.938 237.272 127.746C237.536 127.554 237.844 127.458 238.196 127.458C238.548 127.458 238.856 127.554 239.12 127.746C239.384 127.938 239.59 128.208 239.738 128.556C239.886 128.9 239.96 129.302 239.96 129.762C239.96 130.222 239.886 130.626 239.738 130.974C239.594 131.322 239.39 131.592 239.126 131.784C238.862 131.976 238.554 132.072 238.202 132.072ZM238.202 131.622C238.458 131.622 238.682 131.544 238.874 131.388C239.066 131.232 239.216 131.016 239.324 130.74C239.432 130.46 239.486 130.134 239.486 129.762C239.486 129.39 239.432 129.066 239.324 128.79C239.216 128.51 239.066 128.294 238.874 128.142C238.682 127.986 238.456 127.908 238.196 127.908C237.94 127.908 237.716 127.986 237.524 128.142C237.332 128.294 237.182 128.51 237.074 128.79C236.966 129.066 236.912 129.39 236.912 129.762C236.912 130.13 236.966 130.454 237.074 130.734C237.182 131.014 237.332 131.232 237.524 131.388C237.72 131.544 237.946 131.622 238.202 131.622ZM241.223 132L244.883 127.53H245.465L241.805 132H241.223ZM241.877 129.798C241.661 129.798 241.465 129.746 241.289 129.642C241.113 129.534 240.971 129.392 240.863 129.216C240.759 129.04 240.707 128.844 240.707 128.628C240.707 128.412 240.759 128.216 240.863 128.04C240.971 127.86 241.113 127.718 241.289 127.614C241.465 127.51 241.661 127.458 241.877 127.458C242.093 127.458 242.289 127.51 242.465 127.614C242.641 127.718 242.781 127.86 242.885 128.04C242.989 128.216 243.041 128.412 243.041 128.628C243.041 128.844 242.989 129.04 242.885 129.216C242.781 129.392 242.641 129.534 242.465 129.642C242.289 129.746 242.093 129.798 241.877 129.798ZM241.877 129.366C242.017 129.366 242.139 129.332 242.243 129.264C242.351 129.192 242.435 129.1 242.495 128.988C242.559 128.872 242.591 128.752 242.591 128.628C242.591 128.5 242.559 128.38 242.495 128.268C242.435 128.156 242.351 128.066 242.243 127.998C242.139 127.926 242.017 127.89 241.877 127.89C241.741 127.89 241.617 127.926 241.505 127.998C241.397 128.066 241.311 128.156 241.247 128.268C241.187 128.38 241.157 128.5 241.157 128.628C241.157 128.752 241.187 128.872 241.247 128.988C241.311 129.1 241.397 129.192 241.505 129.264C241.617 129.332 241.741 129.366 241.877 129.366ZM244.757 132.072C244.541 132.072 244.345 132.02 244.169 131.916C243.993 131.808 243.851 131.666 243.743 131.49C243.639 131.314 243.587 131.118 243.587 130.902C243.587 130.686 243.639 130.49 243.743 130.314C243.851 130.134 243.993 129.992 244.169 129.888C244.345 129.784 244.541 129.732 244.757 129.732C244.973 129.732 245.169 129.784 245.345 129.888C245.521 129.992 245.661 130.134 245.765 130.314C245.869 130.49 245.921 130.686 245.921 130.902C245.921 131.118 245.869 131.314 245.765 131.49C245.661 131.666 245.521 131.808 245.345 131.916C245.169 132.02 244.973 132.072 244.757 132.072ZM244.757 131.64C244.897 131.64 245.019 131.606 245.123 131.538C245.231 131.466 245.315 131.374 245.375 131.262C245.439 131.146 245.471 131.026 245.471 130.902C245.471 130.774 245.439 130.654 245.375 130.542C245.315 130.43 245.231 130.34 245.123 130.272C245.019 130.2 244.897 130.164 244.757 130.164C244.621 130.164 244.497 130.2 244.385 130.272C244.277 130.34 244.191 130.43 244.127 130.542C244.067 130.654 244.037 130.774 244.037 130.902C244.037 131.026 244.067 131.146 244.127 131.262C244.191 131.374 244.277 131.466 244.385 131.538C244.497 131.606 244.621 131.64 244.757 131.64Z" fill="#F3B0FF"/>
<g filter="url(#filter2_b_2214_281)">
<path d="M213.208 140.5C212.823 141.167 211.861 141.167 211.476 140.5L209.311 136.75C208.926 136.083 209.407 135.25 210.177 135.25L214.507 135.25C215.277 135.25 215.758 136.083 215.373 136.75L213.208 140.5Z" fill="white" fill-opacity="0.32"/>
</g>
</g>
</g>
<defs>
<filter id="filter0_d_2214_281" x="-72.1582" y="42" width="416" height="328" filterUnits="userSpaceOnUse" color-interpolation-filters="sRGB">
<feFlood flood-opacity="0" result="BackgroundImageFix"/>
<feColorMatrix in="SourceAlpha" type="matrix" values="0 0 0 0 0 0 0 0 0 0 0 0 0 0 0 0 0 0 127 0" result="hardAlpha"/>
<feOffset dx="-24" dy="24"/>
<feGaussianBlur stdDeviation="40"/>
<feComposite in2="hardAlpha" operator="out"/>
<feColorMatrix type="matrix" values="0 0 0 0 0 0 0 0 0 0 0 0 0 0 0 0 0 0 0.04 0"/>
<feBlend mode="normal" in2="BackgroundImageFix" result="effect1_dropShadow_2214_281"/>
<feBlend mode="normal" in="SourceGraphic" in2="effect1_dropShadow_2214_281" result="shape"/>
</filter>
<filter id="filter1_bd_2214_281" x="157.592" y="90.75" width="108.5" height="70.25" filterUnits="userSpaceOnUse" color-interpolation-filters="sRGB">
<feFlood flood-opacity="0" result="BackgroundImageFix"/>
<feGaussianBlur in="BackgroundImageFix" stdDeviation="10"/>
<feComposite in2="SourceAlpha" operator="in" result="effect1_backgroundBlur_2214_281"/>
<feColorMatrix in="SourceAlpha" type="matrix" values="0 0 0 0 0 0 0 0 0 0 0 0 0 0 0 0 0 0 127 0" result="hardAlpha"/>
<feOffset dy="4"/>
<feGaussianBlur stdDeviation="4.5"/>
<feComposite in2="hardAlpha" operator="out"/>
<feColorMatrix type="matrix" values="0 0 0 0 0 0 0 0 0 0 0 0 0 0 0 0 0 0 0.04 0"/>
<feBlend mode="normal" in2="effect1_backgroundBlur_2214_281" result="effect2_dropShadow_2214_281"/>
<feBlend mode="normal" in="SourceGraphic" in2="effect2_dropShadow_2214_281" result="shape"/>
</filter>
<filter id="filter2_b_2214_281" x="201.175" y="127.25" width="22.333" height="21.75" filterUnits="userSpaceOnUse" color-interpolation-filters="sRGB">
<feFlood flood-opacity="0" result="BackgroundImageFix"/>
<feGaussianBlur in="BackgroundImageFix" stdDeviation="4"/>
<feComposite in2="SourceAlpha" operator="in" result="effect1_backgroundBlur_2214_281"/>
<feBlend mode="normal" in="SourceGraphic" in2="effect1_backgroundBlur_2214_281" result="shape"/>
</filter>
</defs>
</svg>
